<?xml version="1.0" encoding="UTF-8" standalone="no"?>
<svg
   xmlns:dc="http://purl.org/dc/elements/1.1/"
   xmlns:cc="http://creativecommons.org/ns#"
   xmlns:rdf="http://www.w3.org/1999/02/22-rdf-syntax-ns#"
   xmlns:svg="http://www.w3.org/2000/svg"
   xmlns="http://www.w3.org/2000/svg"
   id="svg846"
   version="1.1"
   viewBox="0 0 46 19"
   height="71.81102"
   width="173.85826">
  <defs
     id="defs840" />
  <metadata
     id="metadata843">
    <rdf:RDF>
      <cc:Work
         rdf:about="">
        <dc:format>image/svg+xml</dc:format>
        <dc:type
           rdf:resource="http://purl.org/dc/dcmitype/StillImage" />
        <dc:title></dc:title>
      </cc:Work>
    </rdf:RDF>
  </metadata>
  <g
     id="layer2">
    <rect
       y="-0.17658959"
       x="-0.28063297"
       height="19.644312"
       width="46.538303"
       id="rect838"
       style="fill:#000000;fill-opacity:1;stroke-width:0.26458332" />
  </g>
  <g
     transform="translate(0,-278)"
     id="layer1">
    <g
       transform="matrix(1.0000103,0,0,0.99999991,0.21020136,-1.6030674)"
       id="g1418">
      <path
         id="path3518"
         style="fill:#ffffff;fill-opacity:1;fill-rule:nonzero;stroke:#ffffff;stroke-width:0.51840144;stroke-linecap:round;stroke-linejoin:round;stroke-miterlimit:4;stroke-dasharray:none;stroke-opacity:1"
         d="M 2.3466066,296.70834 C 2.1503111,296.4643 2.2618906,296.28408 3.3473659,296 c 1.5323919,-0.40171 1.6,-0.49199 1.6,-1.3 0,-0.60845 -0.1336888,-0.84876 -0.9,-1.4 -4.295393,-2.48701 -4.09759846,-11.89445 3.8,-11.9 7.8823501,-0.0489 8.5141411,9.15073 3.8000001,11.9 -1.063468,0.6273 -0.930581,1.11802 -0.9,1.4 0.09295,0.85709 0.521893,0.99561 1.6,1.3 1.279373,0.36123 0.991732,0.72894 0.991732,0.72894 -0.716645,0.13933 -4.5297335,0.0799 -4.5917321,-0.0289 0,0 0.025733,-0.37667 0.3,-0.7 0.2556606,-0.36892 0.1828388,-0.76373 0.1,-1.5 -0.2650454,-1.5058 1.0916811,-2.20143 1.7000001,-2.8 0.855169,-0.79044 1.554433,-2.6202 1.5,-4 -0.269299,-3.858 -2.7054605,-4.71632 -4.5000001,-4.75539 -1.5746896,0.0643 -4.236018,0.88498 -4.5,4.75539 0.07817,2.04667 0.3244648,2.89449 1.5,4 0.885526,0.70092 1.6645686,1.5395 1.7,2.8 0.00402,0.7798 -0.1850219,0.92918 0.1,1.5 0.1764025,0.35344 0.3,0.64149 0.3,0.7 0,0.19151 -4.4444333,0.1921 -4.6,0 z" />
    </g>
    <text
       id="text11"
       y="292.23749"
       x="19.909895"
       style="font-style:normal;font-weight:normal;font-size:10.58333302px;line-height:1.25;font-family:sans-serif;letter-spacing:0px;word-spacing:0px;fill:#ffffff;fill-opacity:1;stroke:none;stroke-width:0.26458332"
       xml:space="preserve"><tspan
         style="fill:#ffffff;fill-opacity:1;stroke-width:0.26458332"
         y="301.60126"
         x="19.909895"
         id="tspan9" /></text>
    <path
       d="m 16.227637,295.4711 h 0.211668 c 0.391589,0 0.560923,-0.10583 0.560923,-0.3069 v -3.55601 c 0.08467,-0.15875 0.455089,-0.65616 1.016011,-0.65616 0.550339,0 0.814925,0.29633 0.814925,0.78316 v 3.42901 c 0,0.20107 0.169335,0.3069 0.560922,0.3069 h 0.211669 c 0.391588,0 0.560923,-0.10583 0.560923,-0.3069 v -3.60893 c 0,-1.27 -0.698508,-1.7145 -1.629851,-1.7145 -0.64559,0 -1.195929,0.33867 -1.534599,0.71967 v -2.78342 c 0,-0.1905 -0.169334,-0.29632 -0.560923,-0.29632 h -0.211668 c -0.391588,0 -0.560923,0.10582 -0.560923,0.29632 v 7.38718 c 0,0.20107 0.169335,0.3069 0.560923,0.3069 z"
       style="font-style:normal;font-variant:normal;font-weight:600;font-stretch:normal;font-size:medium;line-height:1.25;font-family:Asap;-inkscape-font-specification:'Asap Semi-Bold';letter-spacing:0px;word-spacing:0px;fill:#ffffff;fill-opacity:1;stroke:none;stroke-width:0.26458466"
       id="path820" />
    <path
       d="m 27.503799,289.84077 c -0.698508,0 -1.301764,0.40217 -1.651018,0.82551 -0.232835,-0.60326 -0.772591,-0.82551 -1.428764,-0.82551 -0.687924,0 -1.25943,0.39159 -1.587516,0.79376 -0.0635,-0.26459 -0.09525,-0.68792 -0.402171,-0.68792 -0.222252,0 -0.973677,0.0741 -0.973677,0.30691 0,0.15875 0.127001,0.44451 0.127001,1.43933 v 3.47135 c 0,0.20107 0.169335,0.3069 0.560923,0.3069 h 0.211668 c 0.391588,0 0.560923,-0.10583 0.560923,-0.3069 v -3.55601 c 0.08467,-0.16934 0.444505,-0.65616 0.994843,-0.65616 0.539756,0 0.762008,0.29633 0.762008,0.78316 v 3.42901 c 0,0.20107 0.158752,0.3069 0.560923,0.3069 h 0.201085 c 0.391587,0 0.560923,-0.10583 0.560923,-0.3069 v -3.55601 c 0.137585,-0.22225 0.476255,-0.65616 0.994843,-0.65616 0.539756,0 0.762008,0.29633 0.762008,0.78316 v 3.42901 c 0,0.20107 0.169335,0.3069 0.560922,0.3069 h 0.211669 c 0.391588,0 0.560923,-0.10583 0.560923,-0.3069 v -3.60893 c 0,-1.27 -0.656173,-1.7145 -1.587516,-1.7145 z"
       style="font-style:normal;font-variant:normal;font-weight:600;font-stretch:normal;font-size:medium;line-height:1.25;font-family:Asap;-inkscape-font-specification:'Asap Semi-Bold';letter-spacing:0px;word-spacing:0px;fill:#ffffff;fill-opacity:1;stroke:none;stroke-width:0.26458466"
       id="path822" />
    <path
       d="m 33.342221,295.52402 c 1.195929,0 2.010854,-1.06891 2.010854,-2.84691 0,-1.75683 -0.836092,-2.83634 -2.201356,-2.83634 -0.560923,0 -0.941927,0.17992 -1.238263,0.40217 v -2.46592 c 0,-0.1905 -0.158752,-0.29632 -0.560922,-0.29632 h -0.201086 c -0.391587,0 -0.560922,0.10582 -0.560922,0.29632 v 7.38718 c 0,0.20107 0.148168,0.3069 0.518589,0.3069 h 0.09525 c 0.264587,0 0.402171,-0.0423 0.476256,-0.22225 0.0635,-0.14815 0.116417,-0.32807 0.158752,-0.51857 0.338669,0.48682 0.867841,0.79374 1.502848,0.79374 z m -0.359837,-1.10066 c -0.423338,0 -0.793759,-0.28575 -1.068928,-0.66675 v -2.54 c 0.243419,-0.16933 0.571506,-0.29633 0.941927,-0.29633 0.762008,0 1.132428,0.60324 1.132428,1.73566 0,1.143 -0.33867,1.76742 -1.005427,1.76742 z"
       style="font-style:normal;font-variant:normal;font-weight:600;font-stretch:normal;font-size:medium;line-height:1.25;font-family:Asap;-inkscape-font-specification:'Asap Semi-Bold';letter-spacing:0px;word-spacing:0px;fill:#ffffff;fill-opacity:1;stroke:none;stroke-width:0.26458466"
       id="path824" />
    <path
       d="m 37.156063,295.4711 h 0.201086 c 0.40217,0 0.571505,-0.10583 0.571505,-0.3069 v -3.55601 c 0.07408,-0.13759 0.412755,-0.5715 0.88901,-0.5715 0.264586,0 0.381004,0.0953 0.518589,0.0953 0.190502,0 0.296336,-0.58209 0.296336,-0.78318 0,-0.3175 -0.127002,-0.508 -0.61384,-0.508 -0.550339,0 -0.910176,0.35984 -1.174762,0.79376 -0.0635,-0.26459 -0.09525,-0.68792 -0.40217,-0.68792 -0.222252,0 -0.973677,0.0741 -0.973677,0.30691 0,0.15875 0.127001,0.44451 0.127001,1.43933 v 3.47135 c 0,0.20107 0.169335,0.3069 0.560922,0.3069 z"
       style="font-style:normal;font-variant:normal;font-weight:600;font-stretch:normal;font-size:medium;line-height:1.25;font-family:Asap;-inkscape-font-specification:'Asap Semi-Bold';letter-spacing:0px;word-spacing:0px;fill:#ffffff;fill-opacity:1;stroke:none;stroke-width:0.26458466"
       id="path826" />
    <path
       d="m 42.688062,295.52402 c 0.762008,0 1.90502,-0.29633 1.90502,-0.73024 0,-0.17992 -0.285753,-0.70909 -0.486839,-0.70909 -0.137584,0 -0.613839,0.37042 -1.375847,0.37042 -0.814925,0 -1.280596,-0.35984 -1.354681,-1.32291 h 2.92103 c 0.127002,0 0.476256,-0.39159 0.476256,-0.55034 0,-1.5875 -0.666758,-2.74109 -2.254274,-2.74109 -1.545183,0 -2.529443,0.86784 -2.529443,2.87867 0,1.76742 0.836092,2.80458 2.698778,2.80458 z m -1.312347,-3.33375 c 0.105835,-0.92074 0.518589,-1.28058 1.132429,-1.28058 0.635006,0 0.941926,0.49741 0.941926,1.28058 z"
       style="font-style:normal;font-variant:normal;font-weight:600;font-stretch:normal;font-size:medium;line-height:1.25;font-family:Asap;-inkscape-font-specification:'Asap Semi-Bold';letter-spacing:0px;word-spacing:0px;fill:#ffffff;fill-opacity:1;stroke:none;stroke-width:0.26458466"
       id="path828" />
  </g>
</svg>
