<?xml version="1.0" encoding="UTF-8" standalone="no"?>
<!-- Created with Inkscape (http://www.inkscape.org/) -->

<svg
   xmlns:dc="http://purl.org/dc/elements/1.1/"
   xmlns:cc="http://creativecommons.org/ns#"
   xmlns:rdf="http://www.w3.org/1999/02/22-rdf-syntax-ns#"
   xmlns:svg="http://www.w3.org/2000/svg"
   xmlns="http://www.w3.org/2000/svg"
   xmlns:sodipodi="http://sodipodi.sourceforge.net/DTD/sodipodi-0.dtd"
   xmlns:inkscape="http://www.inkscape.org/namespaces/inkscape"
   width="417.54562"
   height="276.18295"
   viewBox="0 0 110.47561 73.073408"
   version="1.1"
   id="svg8"
   inkscape:version="0.92.4 5da689c313, 2019-01-14"
   sodipodi:docname="down.svg">
  <defs
     id="defs2" />
  <sodipodi:namedview
     id="base"
     pagecolor="#ffffff"
     bordercolor="#666666"
     borderopacity="1.0"
     inkscape:pageopacity="0.0"
     inkscape:pageshadow="2"
     inkscape:zoom="1.979899"
     inkscape:cx="46.309372"
     inkscape:cy="91.092557"
     inkscape:document-units="px"
     inkscape:current-layer="layer1"
     showgrid="false"
     units="px"
     fit-margin-top="0"
     fit-margin-left="0"
     fit-margin-right="0"
     fit-margin-bottom="0"
     inkscape:window-width="1500"
     inkscape:window-height="906"
     inkscape:window-x="0"
     inkscape:window-y="1"
     inkscape:window-maximized="1" />
  <metadata
     id="metadata5">
    <rdf:RDF>
      <cc:Work
         rdf:about="">
        <dc:format>image/svg+xml</dc:format>
        <dc:type
           rdf:resource="http://purl.org/dc/dcmitype/StillImage" />
        <dc:title></dc:title>
      </cc:Work>
    </rdf:RDF>
  </metadata>
  <g
     inkscape:label="Layer 1"
     inkscape:groupmode="layer"
     id="layer1"
     transform="translate(-112.01606,-192.76863)">
    <g
       id="g325"
       transform="translate(-9.8808722,0.29329671)">
      <path
         style="fill:#f2d3d5;stroke-width:0.35277778"
         d="m 122.25572,263.67042 c 0.70617,-3.90106 11.87756,-40.49007 13.09751,-42.89753 1.06352,-2.09877 2.06192,-5.53715 2.01292,-6.93233 -0.0489,-1.39311 0.92967,-4.33143 1.85948,-5.58326 0.40736,-0.54843 1.41684,-1.75713 2.2433,-2.686 1.29016,-1.45002 1.78489,-1.74553 3.49842,-2.08965 2.92497,-0.58742 76.5773,-0.53532 78.78547,0.0557 2.1342,0.57125 3.7466,1.78199 4.59945,3.45372 0.59859,1.17334 0.87635,1.38222 1.8441,1.38681 1.69037,0.008 2.10433,0.40423 1.87552,1.79516 -0.1084,0.65893 -0.28317,2.86492 -0.38839,4.90221 -0.10522,2.0373 -0.35092,5.05355 -0.54603,6.70278 -0.1951,1.64924 -0.36102,3.23674 -0.36872,3.52778 -0.0265,1.00175 -3.15432,37.21991 -3.34364,38.71736 l -0.18956,1.49931 H 174.578 121.92045 Z"
         id="path371"
         inkscape:connector-curvature="0" />
      <path
         style="fill:#dacdd0;stroke-width:0.35277778"
         d="m 122.38862,263.26435 c 0.24658,-1.18336 1.33295,-5.00907 2.41417,-8.50157 1.08121,-3.4925 3.71323,-12.065 5.84892,-19.05 2.1357,-6.985 4.25409,-13.4174 4.70754,-14.29423 1.12589,-2.1771 2.39949,-6.57641 2.14029,-7.39307 -0.28571,-0.90018 0.79678,-4.5983 1.60308,-5.47658 0.35624,-0.38806 1.32307,-1.47181 2.1485,-2.40834 2.78001,-3.15418 -1.20595,-2.87042 41.93044,-2.98502 26.88923,-0.0714 38.74866,0.0134 39.86389,0.28515 2.23556,0.54476 4.09806,1.87255 4.93909,3.5211 0.64418,1.26271 0.85774,1.41128 2.03544,1.41612 1.81791,0.007 2.34681,0.41078 2.05634,1.56811 -0.13027,0.51903 -0.2466,2.16326 -0.2585,3.65384 -0.0203,2.54348 -0.0547,2.66133 -0.55949,1.9164 -0.2958,-0.43657 -0.77752,-0.79375 -1.07048,-0.79375 -0.51671,0 -0.51701,2.20243 -0.002,12.34722 0.0246,0.48507 -0.0888,2.62819 -0.25219,4.7625 -0.16334,2.1343 -0.35792,4.6743 -0.43238,5.64444 -0.0745,0.97014 -0.21965,2.55764 -0.32262,3.52778 -0.10297,0.97014 -0.26206,2.71639 -0.35353,3.88056 -0.0915,1.16416 -0.24525,2.98979 -0.34175,4.05694 -0.1773,1.96077 -0.39247,4.42246 -0.72464,8.29028 -0.26786,3.11916 -0.49736,6.21796 -0.54213,7.32014 l -0.0394,0.97014 H 177.0158 c -39.87702,0 -50.16791,-0.0904 -50.19313,-0.44098 -0.0174,-0.24253 -0.18548,-0.91722 -0.3734,-1.4993 l -0.34167,-1.05834 -0.42547,1.14653 c -0.234,0.63059 -0.60837,1.16531 -0.83193,1.18827 -0.22355,0.023 0.0698,0.16782 0.65188,0.32191 0.80848,0.21404 0.51294,0.27489 -1.25188,0.25775 l -2.31022,-0.0224 0.44833,-2.15156 z m 11.05127,-11.30297 c 0,-1.31039 -0.57757,-1.99956 -0.92248,-1.10072 -0.27303,0.71149 0.12621,2.31462 0.57642,2.31462 0.19033,0 0.34606,-0.54625 0.34606,-1.2139 z m 82.39161,-0.009 c 0.28114,-0.67286 0.51117,-1.30786 0.51117,-1.41111 0,-0.26511 -24.47926,-0.22862 -26.71402,0.0398 -1.01375,0.12178 -1.75845,0.35852 -1.65488,0.5261 0.10358,0.16758 -0.41636,0.30713 -1.15542,0.3101 -1.76264,0.007 -2.72417,0.56219 -1.50173,0.86697 2.01522,0.50244 8.62336,0.79593 18.96141,0.84215 l 11.04231,0.0494 z m 2.11925,-0.36411 c 0.17236,-0.73882 0.13418,-0.95183 -0.12646,-0.70555 -0.20535,0.19403 -0.48447,0.82903 -0.62026,1.41111 -0.17236,0.73882 -0.13418,0.95183 0.12646,0.70556 0.20535,-0.19403 0.48447,-0.82903 0.62026,-1.41112 z m 12.15025,-28.3991 c 0,-0.19402 0.15875,-0.35277 0.35278,-0.35277 0.19403,0 0.35278,0.15875 0.35278,0.35277 0,0.19403 -0.15875,0.35278 -0.35278,0.35278 -0.19403,0 -0.35278,-0.15875 -0.35278,-0.35278 z"
         id="path369"
         inkscape:connector-curvature="0" />
      <path
         style="fill:#ecb0b2;stroke-width:0.35277778"
         d="m 122.75779,262.36506 c 0.45826,-1.65889 1.84341,-6.19117 3.07812,-10.07172 1.2347,-3.88056 2.59051,-8.24618 3.01289,-9.70139 0.42239,-1.45521 1.13985,-3.83646 1.59437,-5.29167 0.45451,-1.4552 1.32994,-4.3127 1.9454,-6.35 1.52381,-5.04414 2.85668,-8.85177 3.39896,-9.70985 0.69263,-1.09598 2.29513,-6.91977 2.06738,-7.51327 -0.27446,-0.71522 0.81067,-3.94997 1.62638,-4.84822 0.36376,-0.40056 0.66138,-0.86183 0.66138,-1.02504 0,-0.63695 1.89305,-2.73047 3.29131,-3.63986 l 1.47119,-0.95681 38.42696,-0.0958 c 34.5685,-0.0862 38.5989,-0.0387 40.13942,0.47296 2.01914,0.67065 3.61252,1.92312 4.39829,3.45725 0.73683,1.43858 1.05587,1.6218 2.83525,1.62827 l 1.48603,0.005 -0.21142,2.38125 c -0.24095,2.71373 -0.49395,3.17762 -1.81632,3.33045 -1.05998,0.1225 -0.83985,-1.29585 -2.34388,15.10219 -0.31143,3.39549 -0.95737,10.27502 -1.43542,15.28786 -0.47806,5.01283 -0.86919,11.46891 -0.86919,14.34684 0,2.87793 -0.0964,5.48371 -0.21413,5.79062 -0.19383,0.50512 -4.84215,0.55802 -49.03463,0.55802 h -48.8205 l -0.58849,-2.11667 c -0.32367,-1.16417 -0.68473,-2.11667 -0.80237,-2.11667 -0.11764,0 -0.52817,0.91282 -0.9123,2.02847 -0.67259,1.95347 -0.745,2.02913 -1.95814,2.04603 l -1.25972,0.0176 0.83318,-3.01616 z m 10.6821,-10.60089 c 0,-1.39614 -0.53805,-1.90534 -0.93107,-0.88115 -0.26621,0.69373 0.14175,2.29226 0.58501,2.29226 0.19033,0 0.34606,-0.635 0.34606,-1.41111 z m 82.39161,0.18772 c 0.28114,-0.67286 0.51117,-1.30786 0.51117,-1.41111 0,-0.26511 -24.47926,-0.22862 -26.71402,0.0398 -1.01375,0.12178 -1.75845,0.35852 -1.65488,0.5261 0.10358,0.16758 -0.41636,0.30713 -1.15542,0.3101 -1.76264,0.007 -2.72417,0.56219 -1.50173,0.86697 2.01522,0.50244 8.62336,0.79593 18.96141,0.84215 l 11.04231,0.0494 z m 2.27506,-0.67848 c 0,-0.99122 -0.60085,-0.29564 -0.88102,1.01993 -0.21428,1.00619 -0.19813,1.0246 0.32782,0.37355 0.30426,-0.37664 0.5532,-1.0037 0.5532,-1.39348 z"
         id="path367"
         inkscape:connector-curvature="0" />
      <path
         style="fill:#cdabae;stroke-width:0.35277778"
         d="m 122.75779,262.36506 c 0.45826,-1.65889 1.84341,-6.19117 3.07812,-10.07172 1.2347,-3.88056 2.59051,-8.24618 3.01289,-9.70139 0.42239,-1.45521 1.13985,-3.83646 1.59437,-5.29167 0.45451,-1.4552 1.32994,-4.3127 1.9454,-6.35 1.52381,-5.04414 2.85668,-8.85177 3.39896,-9.70985 0.69263,-1.09598 2.29513,-6.91977 2.06738,-7.51327 -0.27446,-0.71522 0.81067,-3.94997 1.62638,-4.84822 0.36376,-0.40056 0.66138,-0.89478 0.66138,-1.09826 0,-0.3186 1.97354,-2.23998 4.10272,-3.99428 0.56065,-0.46194 5.5513,-0.54124 39.28018,-0.62419 l 38.63793,-0.095 2.28638,1.16429 c 1.47864,0.75297 2.567,1.59664 3.0807,2.38807 1.28808,1.9845 1.46655,2.10572 3.10022,2.10572 h 1.56032 l -0.21142,2.38125 c -0.24095,2.71373 -0.49395,3.17762 -1.81632,3.33045 -1.05998,0.1225 -0.83985,-1.29585 -2.34388,15.10219 -0.31143,3.39549 -0.95737,10.27502 -1.43542,15.28786 -0.49195,5.15853 -0.86919,11.47434 -0.86919,14.55208 0,3.59207 -0.12681,5.43784 -0.3736,5.43784 -0.20548,0 -0.27548,0.15875 -0.15556,0.35278 0.14495,0.23454 -16.16483,0.35278 -48.66104,0.35278 h -48.87906 l -0.58849,-2.11667 c -0.32367,-1.16417 -0.68473,-2.11667 -0.80237,-2.11667 -0.11764,0 -0.52817,0.91282 -0.9123,2.02847 -0.67259,1.95347 -0.745,2.02913 -1.95814,2.04603 l -1.25972,0.0176 0.83318,-3.01616 z M 133.72854,251.955 c 0.12613,-1.50799 -0.24077,-2.08632 -1.11161,-1.75215 -0.66792,0.25631 -0.77542,1.61057 -0.21149,2.66429 0.56047,1.04725 1.19584,0.60923 1.3231,-0.91214 z m 84.02326,1.04628 c 0.21442,-0.25836 0.42164,-0.92021 0.4605,-1.47079 0.0553,-0.78335 -0.0828,-1.00577 -0.63491,-1.02278 -0.38805,-0.012 -0.97773,-0.14585 -1.3104,-0.29753 -0.33266,-0.15167 -8.58766,-0.2154 -18.34444,-0.14161 -15.79584,0.11946 -17.88928,0.20038 -19.1056,0.7385 -0.7513,0.33238 -1.90224,0.60433 -2.55764,0.60433 -2.00061,0 -1.32989,0.60734 1.18961,1.07721 3.78081,0.70509 9.80698,0.93264 25.38048,0.95839 11.69291,0.0193 14.60873,-0.0678 14.9224,-0.44572 z"
         id="path365"
         inkscape:connector-curvature="0" />
      <path
         style="fill:#e3947a;stroke-width:0.35277778"
         d="m 122.39469,263.93561 c 0.27376,-0.77645 1.26634,-3.87234 2.20571,-6.87977 0.93938,-3.00743 2.27031,-7.13493 2.95761,-9.17222 0.68731,-2.03729 1.42707,-4.41854 1.64391,-5.29167 0.43828,-1.76476 2.60716,-8.86173 3.42841,-11.21838 0.29075,-0.83435 0.73326,-2.34247 0.98335,-3.35139 0.45687,-1.84318 1.61593,-4.90327 2.52137,-6.65682 0.82531,-1.59837 2.27636,-7.04261 2.05932,-7.72643 -0.30596,-0.964 0.77841,-4.23992 1.59212,-4.80986 0.38993,-0.27312 0.70971,-0.68601 0.71064,-0.91754 0.005,-1.16326 3.66454,-4.08428 5.46637,-4.36281 0.9064,-0.14011 76.02536,-0.14324 76.72917,-0.003 0.92246,0.18356 3.32922,1.55165 3.92621,2.23181 0.31615,0.36019 0.83616,1.17084 1.15559,1.80143 0.54679,1.07946 0.69178,1.14652 2.47853,1.14652 h 1.89776 l -0.17144,2.20487 c -0.23042,2.9633 -0.28929,3.0868 -1.47127,3.0868 -0.56442,0 -1.19943,0.20872 -1.41114,0.46381 -0.21171,0.2551 -0.54948,2.35853 -0.7506,4.67431 -0.20112,2.31577 -0.52886,5.79799 -0.72829,7.73827 -1.30272,12.67387 -2.202,23.94147 -2.42267,30.35515 -0.14051,4.08352 -0.37358,7.61571 -0.51795,7.8493 -0.20255,0.32774 -11.25072,0.42472 -48.3877,0.42472 h -48.12521 l -0.5231,-0.79835 c -0.2877,-0.43908 -0.70467,-1.64502 -0.9266,-2.67986 -0.22194,-1.03483 -0.52618,-1.74714 -0.67611,-1.5829 -0.14992,0.16423 -0.61941,1.36037 -1.04332,2.65808 -0.7536,2.30705 -0.79659,2.35802 -1.93458,2.29366 l -1.16385,-0.0658 z m 11.45997,-11.83477 c 0.16761,-1.75754 -0.10404,-2.24672 -1.07629,-1.93814 -0.82765,0.26268 -1.00759,1.51857 -0.3844,2.683 0.62136,1.16102 1.31255,0.80855 1.46069,-0.74486 z m 84.11533,0.53402 c 0.69759,-1.06466 0.50347,-2.09907 -0.39917,-2.12715 -0.38444,-0.012 -0.96885,-0.14496 -1.29868,-0.29555 -0.32983,-0.1506 -8.50546,-0.21091 -18.16805,-0.13403 -15.19011,0.12085 -17.92654,0.22372 -20.2142,0.75987 -4.41616,1.03501 -4.45731,1.10308 -1.01686,1.68193 3.90642,0.65725 10.9725,0.91039 25.9865,0.93097 l 14.5627,0.0199 0.54776,-0.83599 z"
         id="path363"
         inkscape:connector-curvature="0" />
      <path
         style="fill:#b39399;stroke-width:0.35277778"
         d="m 122.39469,263.93561 c 0.27376,-0.77645 1.26634,-3.87234 2.20571,-6.87977 0.93938,-3.00743 2.27031,-7.13493 2.95761,-9.17222 0.68731,-2.03729 1.42707,-4.41854 1.64391,-5.29167 0.43828,-1.76476 2.60716,-8.86173 3.42841,-11.21838 0.29075,-0.83435 0.73326,-2.34247 0.98335,-3.35139 0.45687,-1.84318 1.61593,-4.90327 2.52137,-6.65682 0.82531,-1.59837 2.27636,-7.04261 2.05932,-7.72643 -0.30596,-0.964 0.77841,-4.23992 1.59212,-4.80986 0.38993,-0.27312 0.71397,-0.68601 0.7201,-0.91754 0.0185,-0.69848 1.50142,-2.13113 3.17442,-3.0668 l 1.57693,-0.88195 37.92362,-0.10657 c 39.81103,-0.11188 40.98459,-0.0728 42.89111,1.42683 0.48016,0.37769 1.18932,1.30671 1.5759,2.06448 0.68578,1.34424 0.74911,1.37776 2.60254,1.37776 h 1.89965 l -0.17144,2.20487 c -0.23042,2.9633 -0.28929,3.0868 -1.47127,3.0868 -0.56442,0 -1.19943,0.20872 -1.41114,0.46381 -0.21171,0.2551 -0.54948,2.35853 -0.7506,4.67431 -0.20112,2.31577 -0.52886,5.79799 -0.72829,7.73827 -1.28071,12.45972 -2.20606,23.90877 -2.43783,30.1625 -0.14741,3.97757 -0.38752,7.50976 -0.53357,7.8493 -0.251,0.58355 -2.84177,0.61737 -47.30282,0.61737 -30.32204,0 -47.11317,-0.1228 -47.25084,-0.34556 -0.1344,-0.21747 -0.47754,-0.18478 -0.92574,0.0882 -0.60983,0.37141 -0.807,0.3181 -1.37203,-0.37103 -0.36292,-0.44262 -0.84361,-1.6899 -1.0682,-2.77174 -0.22459,-1.08183 -0.53266,-1.83094 -0.68462,-1.66467 -0.15195,0.16626 -0.6231,1.36406 -1.04701,2.66177 -0.7536,2.30705 -0.79659,2.35802 -1.93458,2.29366 l -1.16385,-0.0658 z m 93.54754,-10.28816 c 1.74595,-0.20966 1.93248,-0.32265 2.40687,-1.45803 0.45971,-1.10024 0.45395,-1.29093 -0.0543,-1.79814 -0.50842,-0.50735 -2.53629,-0.56582 -19.16382,-0.55259 -18.31657,0.0146 -21.75854,0.18837 -25.3862,1.28183 -1.11686,0.33665 -1.44437,0.77072 -0.85592,1.1344 0.79932,0.494 6.67291,1.03984 13.46773,1.25155 10.65645,0.33203 27.33282,0.41149 29.58567,0.14098 z m -81.97318,-1.88328 c 0,-1.5287 -0.0392,-1.5875 -1.05833,-1.5875 -0.88752,0 -1.07608,0.15376 -1.16828,0.9527 -0.15826,1.37141 0.52465,2.4646 1.45673,2.3319 0.66103,-0.0941 0.76988,-0.33405 0.76988,-1.6971 z"
         id="path361"
         inkscape:connector-curvature="0" />
      <path
         style="fill:#c27a83;stroke-width:0.35277778"
         d="m 127.85258,264.87409 c -0.35663,-0.35663 -0.84087,-1.62663 -1.07608,-2.82222 -0.23522,-1.19559 -0.56549,-2.17381 -0.73394,-2.17381 -0.31152,0 -1.98177,4.54342 -1.84805,5.02708 0.0402,0.14553 -0.4031,0.26459 -0.98518,0.26459 -0.58208,0 -1.05833,-0.18521 -1.05833,-0.41158 0,-0.22636 0.10401,-0.30756 0.23113,-0.18044 0.12712,0.12712 1.08046,-2.71079 2.11853,-6.30647 1.03808,-3.59568 2.1036,-6.88792 2.36783,-7.31608 0.49524,-0.80249 2.0175,-5.34116 2.62752,-7.83404 0.4887,-1.99711 1.67917,-6.15607 2.12056,-7.40834 0.33146,-0.94034 1.48362,-4.80418 2.4721,-8.29027 0.19255,-0.6791 0.83574,-2.39233 1.42931,-3.80717 0.93103,-2.21924 2.21711,-6.31575 3.62252,-11.53867 0.5857,-2.17666 1.72335,-4.86872 2.36348,-5.59281 0.31796,-0.35966 1.29267,-1.07403 2.16603,-1.5875 l 1.58793,-0.93358 37.92362,-0.10992 c 39.55048,-0.11463 40.67037,-0.0787 42.716,1.36962 0.50151,0.35508 1.29526,1.37585 1.76389,2.26839 l 0.85205,1.6228 1.76389,-0.09 c 1.20485,-0.0614 1.75271,0.0447 1.72861,0.33497 -0.0194,0.23371 -0.0591,1.26429 -0.0882,2.29017 -0.0522,1.83891 -0.0691,1.86647 -1.19915,1.95258 -0.63042,0.048 -1.37518,0.31629 -1.65502,0.59613 -0.73526,0.73526 -3.90459,35.20608 -4.00535,43.56382 -0.0509,4.22296 -0.21615,6.42209 -0.52295,6.96001 l -0.44851,0.7864 -46.78242,0.0108 c -32.40744,0.008 -46.92067,-0.10389 -47.23234,-0.36255 -0.31328,-0.26 -0.51936,-0.26106 -0.67854,-0.004 -0.334,0.54041 -0.80762,0.45481 -1.54095,-0.27851 z m 88.08965,-11.22664 c 1.74595,-0.20966 1.93248,-0.32265 2.40687,-1.45803 0.45971,-1.10024 0.45395,-1.29093 -0.0543,-1.79814 -0.50842,-0.50735 -2.53629,-0.56582 -19.16382,-0.55259 -18.31657,0.0146 -21.75854,0.18837 -25.3862,1.28183 -1.11686,0.33665 -1.44437,0.77072 -0.85592,1.1344 0.79932,0.494 6.67291,1.03984 13.46773,1.25155 10.65645,0.33203 27.33282,0.41149 29.58567,0.14098 z m -81.97318,-1.88328 c 0,-1.5287 -0.0392,-1.5875 -1.05833,-1.5875 -0.88752,0 -1.07608,0.15376 -1.16828,0.9527 -0.15826,1.37141 0.52465,2.4646 1.45673,2.3319 0.66103,-0.0941 0.76988,-0.33405 0.76988,-1.6971 z"
         id="path359"
         inkscape:connector-curvature="0" />
      <path
         style="fill:#cc696c;stroke-width:0.35277778"
         d="m 130.11774,265.21704 c -0.10384,-0.16801 -0.55942,-0.23462 -1.01242,-0.14802 -1.12517,0.21509 -1.61145,-0.48938 -2.14569,-3.10839 -0.24883,-1.2199 -0.62321,-2.27493 -0.83194,-2.34451 -0.34836,-0.11611 -1.97654,4.09384 -1.97729,5.11264 -1.9e-4,0.24894 -0.43559,0.44097 -0.99987,0.44097 -0.54974,0 -0.99953,-0.16812 -0.99953,-0.3736 0,-0.20548 0.14,-0.28707 0.31112,-0.18131 0.17112,0.10576 0.57401,-0.85424 0.8953,-2.13332 1.10749,-4.40892 2.75528,-9.13556 3.92073,-11.24649 1.26638,-2.29374 2.32869,-5.0401 3.34319,-8.64306 0.35511,-1.26118 0.95902,-3.24555 1.34201,-4.40972 1.97645,-6.00782 2.88765,-8.98276 2.88765,-9.42784 0,-0.27159 0.3175,-1.15095 0.70555,-1.95414 0.38806,-0.80318 0.70556,-1.62435 0.70556,-1.82482 0,-0.90679 4.83961,-16.54781 5.56502,-17.98545 0.75832,-1.50289 2.01765,-2.44991 3.81089,-2.86581 2.01524,-0.46739 75.81597,-0.43291 77.50526,0.0362 1.66363,0.46199 3.51927,2.06246 4.30078,3.70937 0.58991,1.24314 0.61825,1.25584 2.59682,1.16419 1.38141,-0.064 1.98949,0.0377 1.96512,0.3285 -0.0194,0.23164 -0.0591,1.29429 -0.0882,2.36145 -0.0291,1.06715 -0.17198,1.90737 -0.3175,1.86716 -0.84931,-0.23469 -3.23762,0.49706 -3.4063,1.04364 -0.10473,0.33933 -0.43914,3.63322 -0.74314,7.31975 -0.7758,9.40791 -1.54113,17.85317 -1.91817,21.16667 -0.55173,4.84859 -0.85978,10.3834 -0.88014,15.81341 -0.018,4.80894 -0.0764,5.27198 -0.72517,5.75039 -0.38805,0.28617 -1.21298,0.47735 -1.83316,0.42484 -0.62018,-0.0525 -1.24195,0.0189 -1.38171,0.15864 -0.36619,0.36618 -90.36826,0.31516 -90.59478,-0.0514 z m 4.20882,-12.76886 c 0.37747,-1.71858 -0.071,-2.50463 -1.3578,-2.3798 -0.96981,0.0941 -1.13068,0.25608 -1.22537,1.23402 -0.0744,0.76863 0.11888,1.3536 0.60936,1.84408 0.90194,0.90194 1.68304,0.6256 1.97381,-0.6983 z m 83.51526,0.80083 c 0.86728,-0.72041 1.10048,-2.21162 0.44769,-2.86281 -0.50316,-0.50194 -2.61683,-0.55709 -19.6879,-0.51371 -17.68481,0.0449 -19.42622,0.10354 -23.1366,0.77858 -2.2068,0.40149 -4.1072,0.82482 -4.22311,0.94073 -0.41953,0.41952 0.79937,0.80552 3.95729,1.25318 6.87997,0.97529 41.55933,1.30387 42.64263,0.40403 z"
         id="path357"
         inkscape:connector-curvature="0" />
      <path
         style="fill:#d57353;stroke-width:0.35277778"
         d="m 130.42851,265.14907 c -0.13054,-0.21122 -0.66527,-0.278 -1.23101,-0.15374 -1.20766,0.26524 -1.68407,-0.43347 -2.26853,-3.32704 -0.21262,-1.05266 -0.56528,-1.9735 -0.78369,-2.0463 -0.36313,-0.12104 -1.99411,4.05416 -1.99488,5.10677 -1.9e-4,0.24894 -0.43559,0.44097 -0.99987,0.44097 -0.54974,0 -0.99953,-0.16812 -0.99953,-0.3736 0,-0.20548 0.14,-0.28707 0.31112,-0.18131 0.17112,0.10576 0.57926,-0.87514 0.90697,-2.17978 1.31931,-5.25218 4.23781,-13.25482 3.53778,-9.70073 -0.13388,0.67972 -0.0822,1.14653 0.12696,1.14653 0.19402,0 0.46178,-0.51594 0.59502,-1.14653 0.13323,-0.63059 0.60671,-1.8609 1.05217,-2.73403 1.01064,-1.98088 0.57552,-0.65897 5.51562,-16.75694 0.59543,-1.94028 1.29558,-4.20679 1.5559,-5.03669 0.31943,-1.01838 0.34501,-1.42964 0.0787,-1.26505 -0.26067,0.16111 -0.31438,0.0349 -0.15825,-0.37202 0.12999,-0.33874 0.23877,-0.72197 0.24174,-0.85162 0.003,-0.12965 0.14447,-0.0162 0.31444,0.25221 0.22456,0.35457 0.37579,0.16171 0.55327,-0.70556 0.27007,-1.31965 4.45862,-15.34819 5.40662,-18.10812 0.44664,-1.30034 0.91417,-1.92979 1.83416,-2.46944 1.22523,-0.7187 1.53476,-0.72427 40.27209,-0.72427 h 39.03738 l 1.35568,1.10339 c 1.5207,1.23768 1.44999,0.71686 1.0476,7.71606 -0.13385,2.32833 -0.3893,5.02708 -0.56766,5.99722 -0.17836,0.97014 -0.65429,4.93889 -1.05763,8.81945 -0.40334,3.88055 -0.88244,8.4843 -1.06466,10.23055 -0.59827,5.73336 -0.83548,11.81806 -0.46072,11.81806 0.1932,0 0.63627,-2.57969 0.98459,-5.73264 1.13502,-10.27395 1.69416,-13.64898 2.32667,-14.04409 0.95003,-0.59344 0.82341,2.49653 -0.60799,14.83784 -0.32768,2.82518 -0.53614,7.33932 -0.51247,11.0971 0.0511,8.11489 -0.44815,9.67434 -2.95194,9.22031 -0.48615,-0.0881 -0.97523,-0.0125 -1.08685,0.1681 -0.29919,0.4841 -90.00942,0.43935 -90.3088,-0.0451 z m 4.10129,-11.82598 c 0.54559,-0.49375 2.61874,-0.55344 18.06967,-0.52021 11.73408,0.0252 19.57554,0.20564 23.92954,0.5505 4.44733,0.35226 11.91656,0.51523 23.84233,0.52021 l 17.36617,0.007 0.56294,-0.85914 c 0.30961,-0.47253 0.51171,-1.30521 0.4491,-1.85041 -0.0893,-0.77778 -0.34175,-1.03962 -1.17216,-1.21579 -1.74593,-0.37038 -36.40985,-0.31067 -40.21667,0.0693 -1.94028,0.19366 -12.15903,0.43188 -22.70835,0.52939 -17.28177,0.15973 -19.26699,0.12066 -20.05337,-0.3946 -1.92299,-1.25999 -3.67893,0.30962 -2.77271,2.47849 0.57868,1.38499 1.63446,1.65251 2.70351,0.68504 z m 91.1,-27.17764 c 0.33064,-5.39384 0.86383,-11.29233 1.32767,-14.68759 0.33722,-2.46835 0.51416,-3.0117 0.88148,-2.70685 0.25276,0.20978 1.30169,0.33671 2.33095,0.28208 1.29343,-0.0686 1.86049,0.0319 1.8361,0.3256 -0.0194,0.23371 -0.0591,1.29805 -0.0882,2.36521 -0.0291,1.06715 -0.17198,1.90737 -0.3175,1.86716 -0.14552,-0.0402 -0.93661,0.0406 -1.75798,0.17961 -1.80889,0.30612 -1.71513,0.004 -2.3774,7.65461 -0.54293,6.27193 -0.8432,7.80374 -1.57767,8.04857 -0.38115,0.12704 -0.43031,-0.5086 -0.25746,-3.3284 z"
         id="path355"
         inkscape:connector-curvature="0" />
      <path
         style="fill:#e54d4e;stroke-width:0.35277778"
         d="m 130.42851,265.14907 c -0.13054,-0.21122 -0.66527,-0.278 -1.23101,-0.15374 -1.20766,0.26524 -1.68407,-0.43347 -2.26853,-3.32704 -0.21262,-1.05266 -0.56528,-1.9735 -0.78369,-2.0463 -0.36313,-0.12104 -1.99411,4.05416 -1.99488,5.10677 -1.9e-4,0.24894 -0.43559,0.44097 -0.99987,0.44097 -0.54974,0 -0.99953,-0.16812 -0.99953,-0.3736 0,-0.20548 0.14,-0.28707 0.31112,-0.18131 0.17112,0.10576 0.57926,-0.87514 0.90697,-2.17978 1.31931,-5.25218 4.23781,-13.25482 3.53778,-9.70073 -0.33673,1.70961 0.38849,1.39887 0.83032,-0.35577 0.20805,-0.82626 0.86369,-2.23513 1.45697,-3.13082 0.59328,-0.89568 1.5373,-3.11684 2.09784,-4.93589 0.56053,-1.81906 1.91131,-6.24425 3.00172,-9.83377 1.09042,-3.58951 2.29094,-7.32014 2.66783,-8.29028 0.37688,-0.97013 1.00755,-3.03388 1.40147,-4.58611 0.39393,-1.55222 1.58334,-5.67972 2.64314,-9.17222 2.05766,-6.78091 2.34746,-7.2675 4.72099,-7.92674 1.85969,-0.51653 75.59519,-0.49272 77.49469,0.025 0.77611,0.21155 1.78046,0.72601 2.23188,1.14325 0.68081,0.62926 0.78777,0.9995 0.62723,2.17105 -0.10646,0.77683 -0.2846,3.15867 -0.39587,5.29298 -0.11128,2.1343 -0.34604,4.6743 -0.52169,5.64444 -0.17565,0.97014 -0.64937,4.93889 -1.05271,8.81945 -0.40334,3.88055 -0.88244,8.4843 -1.06466,10.23055 -0.59827,5.73336 -0.83548,11.81806 -0.46072,11.81806 0.1932,0 0.63627,-2.57969 0.98459,-5.73264 1.13502,-10.27395 1.69416,-13.64898 2.32667,-14.04409 0.95003,-0.59344 0.82341,2.49653 -0.60799,14.83784 -0.32768,2.82518 -0.53614,7.33932 -0.51247,11.0971 0.0511,8.11489 -0.44815,9.67434 -2.95194,9.22031 -0.48615,-0.0881 -0.97523,-0.0125 -1.08685,0.1681 -0.29919,0.4841 -90.00942,0.43935 -90.3088,-0.0451 z m 4.10129,-11.82598 c 0.54559,-0.49375 2.61874,-0.55344 18.06967,-0.52021 11.73408,0.0252 19.57554,0.20564 23.92954,0.5505 4.44733,0.35226 11.91656,0.51523 23.84233,0.52021 l 17.36617,0.007 0.56294,-0.85914 c 0.30961,-0.47253 0.51171,-1.30521 0.4491,-1.85041 -0.0893,-0.77778 -0.34175,-1.03962 -1.17216,-1.21579 -1.74593,-0.37038 -36.40985,-0.31067 -40.21667,0.0693 -1.94028,0.19366 -12.15903,0.43188 -22.70835,0.52939 -17.28177,0.15973 -19.26699,0.12066 -20.05337,-0.3946 -1.92299,-1.25999 -3.67893,0.30962 -2.77271,2.47849 0.57868,1.38499 1.63446,1.65251 2.70351,0.68504 z m 91.1,-27.17764 c 0.33064,-5.39384 0.86383,-11.29233 1.32767,-14.68759 0.33722,-2.46835 0.51416,-3.0117 0.88148,-2.70685 0.25276,0.20978 1.30169,0.33671 2.33095,0.28208 1.29343,-0.0686 1.86049,0.0319 1.8361,0.3256 -0.0194,0.23371 -0.0591,1.29805 -0.0882,2.36521 -0.0291,1.06715 -0.17198,1.90737 -0.3175,1.86716 -0.14552,-0.0402 -0.93661,0.0406 -1.75798,0.17961 -1.80889,0.30612 -1.71513,0.004 -2.3774,7.65461 -0.54293,6.27193 -0.8432,7.80374 -1.57767,8.04857 -0.38115,0.12704 -0.43031,-0.5086 -0.25746,-3.3284 z m -90.06784,0.68052 c 0.003,-0.15698 0.15929,-0.52353 0.34737,-0.81457 0.29471,-0.45604 0.34272,-0.44672 0.34738,0.0674 0.003,0.3281 -0.15335,0.69465 -0.34738,0.81457 -0.19403,0.11992 -0.35034,0.0896 -0.34737,-0.0674 z"
         id="path353"
         inkscape:connector-curvature="0" />
      <path
         style="fill:#b36069;stroke-width:0.35277778"
         d="m 130.42851,265.14907 c -0.13054,-0.21122 -0.66527,-0.278 -1.23101,-0.15374 -1.20766,0.26524 -1.68407,-0.43347 -2.26853,-3.32704 -0.21262,-1.05266 -0.56528,-1.9735 -0.78369,-2.0463 -0.36313,-0.12104 -1.99411,4.05416 -1.99488,5.10677 -1.9e-4,0.24894 -0.43559,0.44097 -0.99987,0.44097 -0.54974,0 -0.99953,-0.16812 -0.99953,-0.3736 0,-0.20548 0.14,-0.28707 0.31112,-0.18131 0.17112,0.10576 0.57926,-0.87514 0.90697,-2.17978 1.31931,-5.25218 4.23781,-13.25482 3.53778,-9.70073 -0.33673,1.70961 0.38849,1.39887 0.83032,-0.35577 0.20805,-0.82626 0.86369,-2.23513 1.45697,-3.13082 0.59328,-0.89568 1.5373,-3.11684 2.09784,-4.93589 0.56053,-1.81906 1.91131,-6.24425 3.00172,-9.83377 1.09042,-3.58951 2.29094,-7.32014 2.66783,-8.29028 0.37688,-0.97013 1.00755,-3.03388 1.40147,-4.58611 0.39393,-1.55222 1.58334,-5.67972 2.64314,-9.17222 2.05766,-6.78091 2.34746,-7.2675 4.72099,-7.92674 1.85969,-0.51653 75.59519,-0.49272 77.49469,0.025 0.77611,0.21155 1.78046,0.72601 2.23188,1.14325 0.68081,0.62926 0.78777,0.9995 0.62723,2.17105 -0.10646,0.77683 -0.2846,3.15867 -0.39587,5.29298 -0.11128,2.1343 -0.34604,4.6743 -0.52169,5.64444 -0.17565,0.97014 -0.64937,4.93889 -1.05271,8.81945 -0.40334,3.88055 -0.88244,8.4843 -1.06466,10.23055 -0.59827,5.73336 -0.83548,11.81806 -0.46072,11.81806 0.1932,0 0.63627,-2.57969 0.98459,-5.73264 1.13502,-10.27395 1.69416,-13.64898 2.32667,-14.04409 0.95003,-0.59344 0.82341,2.49653 -0.60799,14.83784 -0.32768,2.82518 -0.53614,7.33932 -0.51247,11.0971 0.0511,8.11489 -0.44815,9.67434 -2.95194,9.22031 -0.48615,-0.0881 -0.97523,-0.0125 -1.08685,0.1681 -0.29919,0.4841 -90.00942,0.43935 -90.3088,-0.0451 z m 84.32666,-7.38768 v -0.88194 h -4.58611 c -7.4663,0 -24.56701,0.48132 -26.28195,0.73973 -1.37367,0.207 -1.46871,0.27196 -0.70555,0.48233 0.48507,0.13371 2.86171,0.27926 5.28143,0.32345 2.41973,0.0442 4.4725,0.15333 4.56172,0.24256 0.0892,0.0892 5.01508,0.12028 10.94635,0.069 l 10.78411,-0.0932 z m -72.67223,-0.35277 c -0.17068,-0.27617 -0.37361,-0.29666 -0.6088,-0.0615 -0.19403,0.19403 -0.23757,0.53919 -0.0968,0.76703 0.17068,0.27617 0.37361,0.29666 0.6088,0.0615 0.19403,-0.19403 0.23757,-0.53919 0.0968,-0.76703 z m 8.46667,0.35277 c 0,-0.79486 -1.72331,-0.6897 -1.87821,0.11462 -0.10025,0.52055 0.0676,0.62184 0.87712,0.52917 0.60373,-0.0691 1.00109,-0.32466 1.00109,-0.64379 z m 66.85139,0.17639 c 0,-0.29104 -0.15875,-0.52916 -0.35278,-0.52916 -0.19402,0 -0.35277,0.23812 -0.35277,0.52916 0,0.29105 0.15875,0.52917 0.35277,0.52917 0.19403,0 0.35278,-0.23812 0.35278,-0.52917 z m -38.36458,-0.0572 c -0.24254,-0.0979 -0.63941,-0.0979 -0.88195,0 -0.24253,0.0979 -0.0441,0.17793 0.44098,0.17793 0.48506,0 0.6835,-0.0801 0.44097,-0.17793 z m 39.10148,-4.65614 c 0.9361,-1.15634 0.87912,-2.72947 -0.11954,-3.2999 -1.09969,-0.62813 -36.80367,-0.6507 -41.1868,-0.026 -4.35147,0.62015 -14.89429,0.7509 -15.08224,0.18704 -0.16873,-0.5062 -2.06413,-0.59676 -2.36316,-0.11292 -0.1105,0.17881 -1.23081,0.4354 -2.48957,0.5702 -1.81639,0.19451 -2.46823,0.12743 -3.15888,-0.3251 -1.04671,-0.68583 -1.24753,-0.70661 -1.24877,-0.12922 -6.7e-4,0.31154 -0.77726,0.44736 -2.64584,0.46274 -1.45468,0.012 -2.64488,-0.12693 -2.64488,-0.30867 0,-0.18175 -0.48269,-0.23391 -1.07265,-0.11592 -0.61342,0.12268 -1.3778,0.0283 -1.78538,-0.22049 -0.59549,-0.36346 -0.78811,-0.33347 -1.1711,0.18235 -0.64657,0.87083 -7.1972,0.90259 -8.65413,0.042 -1.47854,-0.87339 -2.97876,-0.27254 -3.12836,1.25293 -0.2003,2.04248 1.71464,3.23255 3.13425,1.94783 0.68331,-0.6184 -0.54511,-0.59784 24.14265,-0.40408 8.53722,0.067 16.39535,0.24181 17.4625,0.38847 3.55794,0.48899 16.26654,0.83613 28.87092,0.78862 l 12.46676,-0.047 z m 7.4919,-27.07895 c 0.33064,-5.39384 0.86383,-11.29233 1.32767,-14.68759 0.33722,-2.46835 0.51416,-3.0117 0.88148,-2.70685 0.25276,0.20978 1.30169,0.33671 2.33095,0.28208 1.29343,-0.0686 1.86049,0.0319 1.8361,0.3256 -0.0194,0.23371 -0.0591,1.29805 -0.0882,2.36521 -0.0291,1.06715 -0.17198,1.90737 -0.3175,1.86716 -0.14552,-0.0402 -0.93661,0.0406 -1.75798,0.17961 -1.80889,0.30612 -1.71513,0.004 -2.3774,7.65461 -0.54293,6.27193 -0.8432,7.80374 -1.57767,8.04857 -0.38115,0.12704 -0.43031,-0.5086 -0.25746,-3.3284 z m -90.06784,0.68052 c 0.003,-0.15698 0.15929,-0.52353 0.34737,-0.81457 0.29471,-0.45604 0.34272,-0.44672 0.34738,0.0674 0.003,0.3281 -0.15335,0.69465 -0.34738,0.81457 -0.19403,0.11992 -0.35034,0.0896 -0.34737,-0.0674 z"
         id="path351"
         inkscape:connector-curvature="0" />
      <path
         style="fill:#d66636;stroke-width:0.35277778"
         d="m 130.42361,265.14114 c -0.12963,-0.20974 -0.61041,-0.28731 -1.06839,-0.17236 -1.09545,0.27493 -1.78124,-0.76934 -2.31697,-3.52813 -0.22341,-1.15046 -0.5708,-2.30229 -0.77196,-2.55962 -0.25144,-0.32162 -0.25187,-0.54215 -0.001,-0.70555 0.2004,-0.13073 0.45927,-1.03145 0.57527,-2.00159 0.28894,-2.41666 1.38119,-5.55579 2.48966,-7.15532 0.5074,-0.73218 1.38577,-2.83488 1.95193,-4.67268 0.56616,-1.83779 1.92154,-6.27831 3.01195,-9.86783 1.09042,-3.58951 2.29094,-7.32014 2.66783,-8.29028 0.37688,-0.97013 1.00755,-3.03388 1.40147,-4.58611 0.39393,-1.55222 1.58334,-5.67972 2.64314,-9.17222 2.05766,-6.78091 2.34746,-7.2675 4.72099,-7.92674 1.95035,-0.54171 75.99856,-0.44147 77.80998,0.10533 0.75549,0.22806 1.66321,0.81117 2.01716,1.29581 0.73314,1.00385 0.74406,0.82049 -1.09256,18.34366 -2.23133,21.28897 -2.37282,23.41663 -1.74786,26.28194 0.25392,1.16417 0.42683,2.25244 0.38425,2.41838 -0.0426,0.16595 0.0874,0.50037 0.28893,0.74316 0.98628,1.18839 1.67353,7.11891 1.08028,9.32208 -0.43946,1.632 -1.3329,2.2107 -2.93904,1.90367 -0.57465,-0.10985 -0.95229,-0.0258 -0.95229,0.21186 0,0.55176 -89.81141,0.56426 -90.15239,0.0126 z m 84.33156,-7.37975 v -0.88194 h -4.58611 c -7.4663,0 -24.56701,0.48132 -26.28195,0.73973 -1.37367,0.207 -1.46871,0.27196 -0.70555,0.48233 0.48507,0.13371 2.86171,0.27926 5.28143,0.32345 2.41973,0.0442 4.4725,0.15333 4.56172,0.24256 0.0892,0.0892 5.01508,0.12028 10.94635,0.069 l 10.78411,-0.0932 z m -72.67223,-0.35277 c -0.17068,-0.27617 -0.37361,-0.29666 -0.6088,-0.0615 -0.19403,0.19403 -0.23757,0.53919 -0.0968,0.76703 0.17068,0.27617 0.37361,0.29666 0.6088,0.0615 0.19403,-0.19403 0.23757,-0.53919 0.0968,-0.76703 z m 8.46667,0.35277 c 0,-0.79486 -1.72331,-0.6897 -1.87821,0.11462 -0.10025,0.52055 0.0676,0.62184 0.87712,0.52917 0.60373,-0.0691 1.00109,-0.32466 1.00109,-0.64379 z m 66.85139,0.17639 c 0,-0.29104 -0.15875,-0.52916 -0.35278,-0.52916 -0.19402,0 -0.35277,0.23812 -0.35277,0.52916 0,0.29105 0.15875,0.52917 0.35277,0.52917 0.19403,0 0.35278,-0.23812 0.35278,-0.52917 z m -38.36458,-0.0572 c -0.24254,-0.0979 -0.63941,-0.0979 -0.88195,0 -0.24253,0.0979 -0.0441,0.17793 0.44098,0.17793 0.48506,0 0.6835,-0.0801 0.44097,-0.17793 z m 39.10148,-4.65614 c 0.9361,-1.15634 0.87912,-2.72947 -0.11954,-3.2999 -1.09969,-0.62813 -36.80367,-0.6507 -41.1868,-0.026 -4.35147,0.62015 -14.89429,0.7509 -15.08224,0.18704 -0.16873,-0.5062 -2.06413,-0.59676 -2.36316,-0.11292 -0.1105,0.17881 -1.23081,0.4354 -2.48957,0.5702 -1.81639,0.19451 -2.46823,0.12743 -3.15888,-0.3251 -1.04671,-0.68583 -1.24753,-0.70661 -1.24877,-0.12922 -6.7e-4,0.31154 -0.77726,0.44736 -2.64584,0.46274 -1.45468,0.012 -2.64488,-0.12693 -2.64488,-0.30867 0,-0.18175 -0.48269,-0.23391 -1.07265,-0.11592 -0.61342,0.12268 -1.3778,0.0283 -1.78538,-0.22049 -0.59549,-0.36346 -0.78811,-0.33347 -1.1711,0.18235 -0.64657,0.87083 -7.1972,0.90259 -8.65413,0.042 -1.47854,-0.87339 -2.97876,-0.27254 -3.12836,1.25293 -0.2003,2.04248 1.71464,3.23255 3.13425,1.94783 0.68331,-0.6184 -0.54511,-0.59784 24.14265,-0.40408 8.53722,0.067 16.39535,0.24181 17.4625,0.38847 3.55794,0.48899 16.26654,0.83613 28.87092,0.78862 l 12.46676,-0.047 z m 10.75809,-39.86493 c -0.11986,-0.19394 -0.11577,-1.22184 0.009,-2.28423 l 0.22702,-1.9316 1.39277,-0.13282 c 0.76602,-0.073 1.43235,-0.0481 1.48074,0.0554 0.0484,0.10353 -0.003,1.14231 -0.11457,2.30841 l -0.20254,2.12017 -1.28729,0.10865 c -0.708,0.0597 -1.38535,-0.05 -1.50522,-0.24398 z"
         id="path349"
         inkscape:connector-curvature="0" />
      <path
         style="fill:#d14b4b;stroke-width:0.35277778"
         d="m 130.42361,265.14114 c -0.12963,-0.20974 -0.61041,-0.28731 -1.06839,-0.17236 -1.09545,0.27493 -1.78124,-0.76934 -2.31697,-3.52813 -0.22341,-1.15046 -0.581,-2.31601 -0.79465,-2.5901 -0.28762,-0.36901 -0.27399,-0.53686 0.0525,-0.64675 0.24253,-0.0816 0.44097,-0.65164 0.44097,-1.26668 0,-1.35432 1.09931,-5.31058 1.91267,-6.88346 0.32481,-0.62811 0.9478,-1.27784 1.38443,-1.44385 0.66499,-0.25282 1.1293,-1.38141 2.8602,-6.9522 1.13649,-3.65771 2.5176,-8.21766 3.06914,-10.13321 0.55153,-1.91556 1.47934,-4.42062 2.06179,-5.56681 0.60749,-1.19547 1.06086,-2.64349 1.06337,-3.39633 0.004,-1.31612 0.54163,-3.39186 3.07146,-11.86755 1.11209,-3.72581 1.53986,-4.69192 2.34306,-5.29167 0.97905,-0.73106 1.11978,-0.73405 39.05989,-0.82956 20.94252,-0.0527 38.81355,0.0276 39.71341,0.17844 1.13589,0.19043 1.83257,0.54331 2.2787,1.15419 0.73203,1.00236 0.74272,0.82311 -1.0935,18.3424 -2.23133,21.28897 -2.37282,23.41663 -1.74786,26.28194 0.25392,1.16417 0.42683,2.25244 0.38425,2.41838 -0.0426,0.16595 0.0874,0.50037 0.28893,0.74316 0.98628,1.18839 1.67353,7.11891 1.08028,9.32208 -0.43946,1.632 -1.3329,2.2107 -2.93904,1.90367 -0.57465,-0.10985 -0.95229,-0.0258 -0.95229,0.21186 0,0.55176 -89.81141,0.56426 -90.15239,0.0126 z m 84.33156,-7.37975 v -0.88194 h -4.58611 c -7.4663,0 -24.56701,0.48132 -26.28195,0.73973 -1.37367,0.207 -1.46871,0.27196 -0.70555,0.48233 0.48507,0.13371 2.86171,0.27926 5.28143,0.32345 2.41973,0.0442 4.4725,0.15333 4.56172,0.24256 0.0892,0.0892 5.01508,0.12028 10.94635,0.069 l 10.78411,-0.0932 z m -72.67223,-0.35277 c -0.17068,-0.27617 -0.37361,-0.29666 -0.6088,-0.0615 -0.19403,0.19403 -0.23757,0.53919 -0.0968,0.76703 0.17068,0.27617 0.37361,0.29666 0.6088,0.0615 0.19403,-0.19403 0.23757,-0.53919 0.0968,-0.76703 z m 8.46667,0.35277 c 0,-0.79486 -1.72331,-0.6897 -1.87821,0.11462 -0.10025,0.52055 0.0676,0.62184 0.87712,0.52917 0.60373,-0.0691 1.00109,-0.32466 1.00109,-0.64379 z m 66.85139,0.17639 c 0,-0.29104 -0.15875,-0.52916 -0.35278,-0.52916 -0.19402,0 -0.35277,0.23812 -0.35277,0.52916 0,0.29105 0.15875,0.52917 0.35277,0.52917 0.19403,0 0.35278,-0.23812 0.35278,-0.52917 z m -38.36458,-0.0572 c -0.24254,-0.0979 -0.63941,-0.0979 -0.88195,0 -0.24253,0.0979 -0.0441,0.17793 0.44098,0.17793 0.48506,0 0.6835,-0.0801 0.44097,-0.17793 z m 39.10148,-4.65614 c 0.9361,-1.15634 0.87912,-2.72947 -0.11954,-3.2999 -1.09969,-0.62813 -36.80367,-0.6507 -41.1868,-0.026 -4.35147,0.62015 -14.89429,0.7509 -15.08224,0.18704 -0.16873,-0.5062 -2.06413,-0.59676 -2.36316,-0.11292 -0.1105,0.17881 -1.23081,0.4354 -2.48957,0.5702 -1.81639,0.19451 -2.46823,0.12743 -3.15888,-0.3251 -1.04671,-0.68583 -1.24753,-0.70661 -1.24877,-0.12922 -6.7e-4,0.31154 -0.77726,0.44736 -2.64584,0.46274 -1.45468,0.012 -2.64488,-0.12693 -2.64488,-0.30867 0,-0.18175 -0.48269,-0.23391 -1.07265,-0.11592 -0.61342,0.12268 -1.3778,0.0283 -1.78538,-0.22049 -0.59549,-0.36346 -0.78811,-0.33347 -1.1711,0.18235 -0.64657,0.87083 -7.1972,0.90259 -8.65413,0.042 -1.47854,-0.87339 -2.97876,-0.27254 -3.12836,1.25293 -0.2003,2.04248 1.71464,3.23255 3.13425,1.94783 0.68331,-0.6184 -0.54511,-0.59784 24.14265,-0.40408 8.53722,0.067 16.39535,0.24181 17.4625,0.38847 3.55794,0.48899 16.26654,0.83613 28.87092,0.78862 l 12.46676,-0.047 z m 10.75809,-39.86493 c -0.11986,-0.19394 -0.11577,-1.22184 0.009,-2.28423 l 0.22702,-1.9316 1.39277,-0.13282 c 0.76602,-0.073 1.43235,-0.0481 1.48074,0.0554 0.0484,0.10353 -0.003,1.14231 -0.11457,2.30841 l -0.20254,2.12017 -1.28729,0.10865 c -0.708,0.0597 -1.38535,-0.05 -1.50522,-0.24398 z"
         id="path347"
         inkscape:connector-curvature="0" />
      <path
         style="fill:#d3512e;stroke-width:0.35277778"
         d="m 131.67908,265.22922 c -0.6774,-0.0643 -1.34724,-0.30241 -1.48854,-0.52916 -0.19446,-0.31206 -0.42928,-0.30544 -0.96606,0.0272 -0.61214,0.37936 -0.77812,0.33109 -1.21318,-0.35278 -0.27721,-0.43575 -0.69452,-1.74477 -0.92734,-2.90894 -0.23283,-1.16416 -0.58749,-2.31893 -0.78813,-2.56616 -0.53489,-0.65905 -0.0881,-0.90454 0.79054,-0.43433 0.65646,0.35133 0.75311,0.31852 0.69515,-0.236 -0.11359,-1.08669 -0.0111,-1.21147 0.68766,-0.83748 0.42224,0.22598 0.60939,0.60664 0.50135,1.01977 -0.12368,0.47296 0.25378,0.9726 1.33604,1.76851 2.07814,1.52828 2.49286,1.46429 2.20433,-0.34011 l -0.23177,-1.44942 3.02062,0.1265 c 1.66135,0.0696 3.11386,0.21982 3.22781,0.33388 0.11395,0.11406 0.0262,0.72642 -0.19491,1.3608 -0.30715,0.8811 -0.30222,1.21514 0.0209,1.41484 0.23263,0.14378 17.84726,0.21121 39.14362,0.14985 42.73272,-0.12313 41.56729,-0.0625 41.4045,-2.1538 -0.0833,-1.07034 0.33476,-1.65543 1.19707,-1.6753 0.22257,-0.005 0.9724,-0.52526 1.66629,-1.15585 1.51405,-1.37594 1.6332,-1.39605 1.6332,-0.27566 0,0.61277 0.15045,0.81314 0.50765,0.67607 1.10992,-0.42591 1.13135,5.07956 0.0264,6.7795 -0.35898,0.55227 -1.00685,0.80379 -2.53655,0.98474 -2.02798,0.2399 -87.33067,0.49976 -89.71664,0.27332 z m 0.62441,-8.22909 c -0.24811,-0.15745 -0.79611,-0.2887 -1.21779,-0.29167 -0.42167,-0.003 -1.25511,-0.41638 -1.85208,-0.9187 -0.8741,-0.73551 -1.0854,-1.18411 -1.0854,-2.30439 0,-1.76656 0.82968,-3.81146 1.91497,-4.71981 0.80836,-0.67657 2.95612,-6.9667 6.01019,-17.602 0.49563,-1.72596 1.37586,-4.07227 1.95605,-5.21402 0.60423,-1.18905 1.05677,-2.63658 1.05928,-3.38828 0.004,-1.31612 0.54163,-3.39186 3.07146,-11.86755 1.11217,-3.72608 1.53982,-4.69187 2.34316,-5.29167 0.98142,-0.73275 1.03337,-0.7337 40.04247,-0.7337 37.49828,0 39.09985,0.0263 40.06215,0.65676 l 1.00238,0.65676 -0.23862,3.92935 c -0.20408,3.36064 -1.06105,11.88901 -2.69902,26.85991 -0.75604,6.91011 -0.91612,11.2213 -0.50039,13.47639 0.65969,3.57846 0.1587,5.18919 -1.95377,6.28159 -0.71305,0.36873 -8.68265,0.46535 -40.39389,0.48969 -21.72807,0.0167 -41.20759,0.0837 -43.28782,0.14896 -2.08022,0.0652 -3.98522,-0.0102 -4.23333,-0.16762 z m 83.67543,-2.99742 c 2.09938,-0.21943 2.23425,-0.29086 2.71314,-1.437 0.27717,-0.66336 0.40799,-1.50841 0.29072,-1.8779 -0.44903,-1.41476 -2.03304,-1.4912 -25.57067,-1.23389 -12.32076,0.13469 -31.13264,0.27304 -41.80417,0.30743 -10.67152,0.0344 -19.60121,0.19098 -19.84375,0.34795 -0.59145,0.38279 -0.54076,2.37542 0.0813,3.19687 0.39126,0.51664 0.75291,0.60751 1.66448,0.41823 1.46866,-0.30497 37.21067,-0.20858 49.67156,0.13395 12.71244,0.34945 30.10282,0.426 32.79736,0.14436 z m 12.91707,-40.64324 c -0.11986,-0.19394 -0.11577,-1.22184 0.009,-2.28423 l 0.22702,-1.9316 1.39277,-0.13282 c 0.76602,-0.073 1.43235,-0.0481 1.48074,0.0554 0.0484,0.10353 -0.003,1.14231 -0.11457,2.30841 l -0.20254,2.12017 -1.28729,0.10865 c -0.708,0.0597 -1.38535,-0.05 -1.50522,-0.24398 z"
         id="path345"
         inkscape:connector-curvature="0" />
      <path
         style="fill:#c93d43;stroke-width:0.35277778"
         d="m 131.58042,265.23619 c -0.73167,-0.0605 -1.23824,-0.2589 -1.12571,-0.44097 0.28813,-0.46621 -1.02397,-0.41412 -1.49754,0.0594 -0.576,0.576 -1.36611,-0.8535 -1.87321,-3.3891 -0.23283,-1.16417 -0.58749,-2.31894 -0.78813,-2.56616 -0.53489,-0.65905 -0.0881,-0.90454 0.79054,-0.43433 0.65646,0.35132 0.75311,0.31851 0.69515,-0.236 -0.11359,-1.08669 -0.0111,-1.21147 0.68766,-0.83748 0.42224,0.22598 0.60939,0.60664 0.50135,1.01977 -0.12368,0.47296 0.25378,0.9726 1.33604,1.76851 2.07814,1.52828 2.49286,1.46429 2.20433,-0.34011 l -0.23177,-1.44942 3.02062,0.1265 c 1.66135,0.0696 3.11386,0.21982 3.22781,0.33388 0.11395,0.11406 0.0262,0.72642 -0.19491,1.3608 -0.30715,0.8811 -0.30222,1.21514 0.0209,1.41483 0.23263,0.14379 17.84726,0.21122 39.14362,0.14986 42.73272,-0.12313 41.56729,-0.0625 41.4045,-2.1538 -0.0833,-1.07034 0.33476,-1.65543 1.19707,-1.6753 0.22257,-0.005 0.9724,-0.52526 1.66629,-1.15585 1.51405,-1.37594 1.6332,-1.39605 1.6332,-0.27566 0,0.61277 0.15045,0.81314 0.50765,0.67607 1.10992,-0.42592 1.13135,5.07955 0.0264,6.7795 -0.35898,0.55227 -1.00685,0.80379 -2.53655,0.98474 -1.99165,0.2356 -87.14047,0.50131 -89.8153,0.28028 z m 0.72307,-8.23606 c -0.24811,-0.15745 -0.79611,-0.2887 -1.21779,-0.29167 -0.42167,-0.003 -1.25511,-0.41638 -1.85208,-0.9187 -0.89549,-0.75351 -1.08404,-1.17015 -1.07765,-2.38125 0.004,-0.80737 0.314,-2.14264 0.68831,-2.96725 0.53382,-1.17605 0.86859,-1.49931 1.55268,-1.49931 0.47967,0 1.33785,-0.39188 1.90707,-0.87085 0.81309,-0.68417 1.08097,-1.25936 1.2496,-2.68318 0.11805,-0.99679 0.35236,-1.99397 0.52068,-2.21596 0.16833,-0.22199 0.66161,-1.67362 1.09618,-3.22584 1.10388,-3.94289 2.83935,-9.62488 3.42324,-11.20784 0.26983,-0.73153 0.4906,-1.96694 0.4906,-2.74535 0,-0.77842 0.2202,-1.94231 0.48933,-2.58643 0.26913,-0.64412 0.60613,-1.86245 0.74888,-2.70739 0.14275,-0.84494 0.56939,-1.95534 0.94809,-2.46755 0.37869,-0.51222 0.76984,-1.63036 0.86922,-2.48476 0.0994,-0.8544 0.54502,-2.74409 0.9903,-4.19929 0.44529,-1.45521 0.99721,-3.33283 1.22648,-4.17248 0.74349,-2.72288 -1.99974,-2.56057 41.42689,-2.45111 33.41434,0.0842 38.64876,0.16686 39.19321,0.6188 0.5613,0.46592 0.60318,0.93666 0.39237,4.40972 -0.20184,3.32521 -1.06181,11.8785 -2.69641,26.81868 -0.75604,6.91011 -0.91612,11.2213 -0.50039,13.47639 0.65969,3.57846 0.1587,5.18919 -1.95377,6.28159 -0.71305,0.36873 -8.68265,0.46535 -40.39389,0.48969 -21.72807,0.0167 -41.20759,0.0837 -43.28782,0.14896 -2.08022,0.0652 -3.98522,-0.0102 -4.23333,-0.16762 z m 83.67543,-2.99742 c 2.09938,-0.21943 2.23425,-0.29086 2.71314,-1.437 1.3182,-3.15491 -0.44009,-3.62559 -13.51619,-3.61822 -5.40291,0.003 -14.26848,0.17928 -19.70126,0.39161 -5.43278,0.21234 -19.6409,0.40828 -31.57361,0.43543 -11.93271,0.0272 -21.89427,0.1778 -22.13681,0.33477 -0.59145,0.38279 -0.54076,2.37542 0.0813,3.19687 0.39126,0.51664 0.75291,0.60751 1.66448,0.41823 1.46866,-0.30497 37.21067,-0.20858 49.67156,0.13395 12.71244,0.34945 30.10282,0.426 32.79736,0.14436 z m 12.91707,-40.64324 c -0.11986,-0.19394 -0.11577,-1.22184 0.009,-2.28423 l 0.22702,-1.9316 1.39277,-0.13282 c 0.76602,-0.073 1.43235,-0.0481 1.48074,0.0554 0.0484,0.10353 -0.003,1.14231 -0.11457,2.30841 l -0.20254,2.12017 -1.28729,0.10865 c -0.708,0.0597 -1.38535,-0.05 -1.50522,-0.24398 z"
         id="path343"
         inkscape:connector-curvature="0" />
      <path
         style="fill:#e85104;stroke-width:0.35277778"
         d="m 132.10774,265.23917 c -1.24605,-0.0716 -1.78182,-0.23556 -1.62084,-0.49603 0.16665,-0.26966 -0.15521,-0.32488 -1.04861,-0.1799 -1.52864,0.24807 -1.71728,-0.001 -2.34714,-3.09768 -0.23678,-1.16417 -0.59468,-2.31894 -0.79532,-2.56616 -0.6581,-0.81086 0.0722,-0.92354 0.90638,-0.13986 0.4483,0.42116 1.0705,0.76574 1.38265,0.76574 0.31216,0 1.0163,0.37151 1.56477,0.82557 0.54846,0.45406 1.49012,0.99341 2.09256,1.19854 l 1.09537,0.37296 -0.037,-1.27636 c -0.0333,-1.14725 0.07,-1.29785 1.0213,-1.48879 1.48592,-0.29825 2.22551,0.17842 2.49353,1.60709 l 0.23083,1.23044 39.38365,-0.002 c 27.21643,-10e-4 39.81961,-0.12027 40.79477,-0.38491 0.77611,-0.21062 1.91116,-0.86048 2.52233,-1.44412 0.76962,-0.73496 1.32193,-0.99431 1.79665,-0.84363 0.82028,0.26034 2.5484,-0.97569 2.58499,-1.84889 0.0199,-0.47582 0.0834,-0.45353 0.32397,0.1138 0.34071,0.80348 0.11161,4.02406 -0.4078,5.7328 -0.36484,1.2002 -1.43458,1.74437 -2.75194,1.39987 -0.37564,-0.0982 -0.73028,-0.0435 -0.78809,0.12167 -0.0953,0.27228 -84.0111,0.65183 -88.39698,0.39982 z m 61.63032,-8.32775 c -0.10268,-0.10268 -14.33246,-0.23963 -31.62173,-0.30432 -25.16962,-0.0942 -31.54539,-0.20921 -31.9887,-0.57712 -0.77508,-0.64326 -1.62663,-2.45047 -1.62663,-3.45212 0,-1.33291 1.3281,-3.63591 2.09677,-3.63591 0.36922,0 1.13704,-0.39188 1.70626,-0.87085 0.81309,-0.68417 1.08097,-1.25936 1.2496,-2.68318 0.11805,-0.99679 0.35236,-1.99397 0.52068,-2.21596 0.16833,-0.22199 0.66161,-1.67362 1.09618,-3.22584 1.10388,-3.94289 2.83935,-9.62488 3.42324,-11.20784 0.26983,-0.73153 0.4906,-1.96694 0.4906,-2.74535 0,-0.77842 0.2202,-1.94231 0.48933,-2.58643 0.26913,-0.64412 0.60613,-1.86245 0.74888,-2.70739 0.14275,-0.84494 0.56939,-1.95534 0.94809,-2.46755 0.37869,-0.51222 0.76984,-1.63036 0.86922,-2.48476 0.0994,-0.8544 0.54502,-2.74409 0.9903,-4.19929 0.44529,-1.45521 0.99721,-3.33283 1.22648,-4.17248 0.73512,-2.69223 -1.82972,-2.53078 40.13651,-2.52642 20.52467,0.002 37.91895,0.10327 38.65396,0.22473 1.90725,0.31519 2.16223,1.00487 1.65588,4.4788 -0.56344,3.86556 -0.9788,8.1921 -1.37695,14.34259 -0.18212,2.8134 -0.49223,6.22653 -0.68912,7.58472 -1.3678,9.43524 -1.58534,14.49488 -0.87762,20.41211 0.25137,2.10172 -0.21078,3.06445 -1.93618,4.03333 -1.20533,0.67684 -2.07491,0.73727 -13.64287,0.94807 -6.79552,0.12383 -12.4395,0.14114 -12.54218,0.0385 z m -44.24678,-3.10446 c 8.14916,0.0366 26.68002,0.16791 41.17969,0.29183 29.43622,0.25157 27.86629,0.37119 28.34103,-2.15942 0.57231,-3.05064 -0.48361,-3.17232 -24.30179,-2.80039 -10.70638,0.16718 -28.91178,0.32233 -40.45643,0.34478 -11.54466,0.0224 -21.26443,0.0685 -21.59951,0.10228 -1.05442,0.10638 -1.76112,1.5725 -1.32454,2.74788 0.52216,1.40576 1.38402,1.98974 2.46294,1.66884 0.48506,-0.14427 7.54944,-0.23238 15.69861,-0.1958 z m 79.40471,-40.44749 c -0.11986,-0.19394 -0.11577,-1.22184 0.009,-2.28423 l 0.22702,-1.9316 1.39277,-0.13282 c 0.76602,-0.073 1.43235,-0.0481 1.48074,0.0554 0.0484,0.10353 -0.003,1.14231 -0.11457,2.30841 l -0.20254,2.12017 -1.28729,0.10865 c -0.708,0.0597 -1.38535,-0.05 -1.50522,-0.24398 z"
         id="path341"
         inkscape:connector-curvature="0" />
      <path
         style="fill:#cc322f;stroke-width:0.35277778"
         d="m 132.10774,265.23917 c -1.24605,-0.0716 -1.78182,-0.23556 -1.62084,-0.49603 0.16665,-0.26966 -0.15521,-0.32488 -1.04861,-0.1799 -1.52864,0.24807 -1.71728,-0.001 -2.34714,-3.09768 -0.23678,-1.16417 -0.59468,-2.31894 -0.79532,-2.56616 -0.6581,-0.81086 0.0722,-0.92354 0.90638,-0.13986 0.4483,0.42116 1.0705,0.76574 1.38265,0.76574 0.31216,0 1.0163,0.37151 1.56477,0.82557 0.54846,0.45406 1.49012,0.99341 2.09256,1.19854 l 1.09537,0.37296 -0.037,-1.27636 c -0.0333,-1.14725 0.07,-1.29785 1.0213,-1.48879 1.48592,-0.29825 2.22551,0.17842 2.49353,1.60709 l 0.23083,1.23044 39.38365,-0.002 c 27.21643,-10e-4 39.81961,-0.12027 40.79477,-0.38491 0.77611,-0.21062 1.91116,-0.86048 2.52233,-1.44412 0.76962,-0.73496 1.32193,-0.99431 1.79665,-0.84363 0.82028,0.26034 2.5484,-0.97569 2.58499,-1.84889 0.0199,-0.47582 0.0834,-0.45353 0.32397,0.1138 0.34071,0.80348 0.11161,4.02406 -0.4078,5.7328 -0.36484,1.2002 -1.43458,1.74437 -2.75194,1.39987 -0.37564,-0.0982 -0.73028,-0.0435 -0.78809,0.12167 -0.0953,0.27228 -84.0111,0.65183 -88.39698,0.39982 z m 61.63032,-8.32775 c -0.10268,-0.10268 -14.33246,-0.23963 -31.62173,-0.30432 -25.16962,-0.0942 -31.54539,-0.20921 -31.9887,-0.57712 -0.77508,-0.64326 -1.62663,-2.45047 -1.62663,-3.45212 0,-1.33291 1.3281,-3.63591 2.09677,-3.63591 0.36922,0 1.13704,-0.39188 1.70626,-0.87085 0.81309,-0.68417 1.08097,-1.25936 1.2496,-2.68318 0.11805,-0.99679 0.35236,-1.99397 0.52068,-2.21596 0.16833,-0.22199 0.66161,-1.67362 1.09618,-3.22584 1.10388,-3.94289 2.83935,-9.62488 3.42324,-11.20784 0.26983,-0.73153 0.4906,-1.87177 0.4906,-2.53386 0,-0.88345 0.18296,-1.26188 0.68751,-1.42202 0.86376,-0.27415 1.2674,-1.46716 0.71968,-2.12712 -0.55905,-0.67362 -0.1105,-3.22046 0.77911,-4.42372 0.37869,-0.51222 0.76984,-1.63036 0.86922,-2.48476 0.0994,-0.8544 0.54502,-2.74409 0.9903,-4.19929 0.44529,-1.45521 0.99721,-3.33283 1.22648,-4.17248 0.73512,-2.69223 -1.82972,-2.53078 40.13651,-2.52642 20.52467,0.002 37.91895,0.10327 38.65396,0.22473 1.90725,0.31519 2.16223,1.00487 1.65588,4.4788 -0.56344,3.86556 -0.9788,8.1921 -1.37695,14.34259 -0.18212,2.8134 -0.49223,6.22653 -0.68912,7.58472 -1.3678,9.43524 -1.58534,14.49488 -0.87762,20.41211 0.25137,2.10172 -0.21078,3.06445 -1.93618,4.03333 -1.20533,0.67684 -2.07491,0.73727 -13.64287,0.94807 -6.79552,0.12383 -12.4395,0.14114 -12.54218,0.0385 z m -44.24678,-3.10446 c 8.14916,0.0366 26.68002,0.16791 41.17969,0.29183 29.47174,0.25187 27.86543,0.37576 28.34605,-2.18615 0.3079,-1.64124 -0.12289,-2.02725 -3.02713,-2.71249 -1.82765,-0.43123 -3.86829,-0.5078 -10.05417,-0.37729 -4.26861,0.0901 -13.47611,0.28514 -20.46111,0.4335 -6.985,0.14835 -21.59,0.23913 -32.45556,0.20172 -10.86555,-0.0374 -20.10309,0.0617 -20.52785,0.22021 -2.38785,0.89114 -1.13636,5.04956 1.30147,4.32447 0.48506,-0.14427 7.54944,-0.23238 15.69861,-0.1958 z m 71.27641,-29.25487 c 0.29252,-0.92167 -0.48831,-1.81267 -1.38341,-1.5786 -0.39151,0.10239 -0.9076,0.0237 -1.14686,-0.17488 -0.62774,-0.52097 -41.27533,-0.25544 -42.4642,0.2774 -0.98549,0.44168 -0.92446,0.4794 1.94028,1.19907 2.12577,0.53404 14.2557,0.9053 30.76601,0.94165 11.68765,0.0257 12.07572,0.005 12.28818,-0.66464 z m -70.34053,-0.45848 c 0.55967,-1.22835 0.14206,-2.10744 -0.85198,-1.79342 -0.4342,0.13716 -1.2208,0.33117 -1.74799,0.43113 -1.08692,0.20609 -1.68459,1.4303 -0.9313,1.90761 0.26329,0.16683 1.07744,0.30576 1.8092,0.30873 1.07033,0.004 1.40705,-0.16265 1.72207,-0.85405 z m 78.46883,-10.73414 c -0.11986,-0.19394 -0.11577,-1.22184 0.009,-2.28423 l 0.22702,-1.9316 1.39277,-0.13282 c 0.76602,-0.073 1.43235,-0.0481 1.48074,0.0554 0.0484,0.10353 -0.003,1.14231 -0.11457,2.30841 l -0.20254,2.12017 -1.28729,0.10865 c -0.708,0.0597 -1.38535,-0.05 -1.50522,-0.24398 z"
         id="path339"
         inkscape:connector-curvature="0" />
      <path
         style="fill:#a93b46;stroke-width:0.35277778"
         d="m 132.2847,265.16973 c -0.92639,-0.097 -1.67417,-0.33514 -1.66172,-0.52917 0.0332,-0.51778 -1.37611,-0.64902 -1.94041,-0.18069 -0.63637,0.52815 -1.0229,-0.19912 -1.59142,-2.99431 -0.23678,-1.16417 -0.59468,-2.31894 -0.79532,-2.56616 -0.75523,-0.93054 0.18507,-0.91916 0.98647,0.012 0.46088,0.53545 1.20143,1.12935 1.64569,1.31978 0.44425,0.19043 1.20461,0.64955 1.68967,1.02027 0.48507,0.37071 1.30894,0.76962 1.83082,0.88645 0.91995,0.20596 0.94683,0.16737 0.88195,-1.26562 -0.0634,-1.4005 -0.007,-1.49074 1.07452,-1.71968 1.42052,-0.3007 2.06978,0.16731 2.47471,1.78385 l 0.30929,1.23472 h 40.19422 c 44.02884,0 41.74152,0.10979 42.77822,-2.05321 0.4104,-0.85627 0.61451,-0.95755 1.52621,-0.75731 1.23127,0.27043 2.40298,-0.56663 2.43854,-1.74207 0.0212,-0.70208 0.0387,-0.69837 0.34859,0.0741 0.36591,0.91206 -0.0835,4.8698 -0.67949,5.98333 -0.38118,0.71225 -2.30414,1.31214 -2.94213,0.91784 -0.1958,-0.12101 -0.46162,-0.0491 -0.59072,0.15978 -0.24056,0.38923 -84.43179,0.78747 -87.97769,0.41614 z m 4.85935,-9.19039 c -0.58208,-0.18278 -2.18064,-0.30578 -3.55235,-0.27333 -2.71934,0.0643 -3.20317,-0.0981 -3.70051,-1.24208 -0.18159,-0.41771 -0.51268,-1.01272 -0.73574,-1.32224 -0.87158,-1.20939 0.18513,-2.94304 3.14184,-5.15451 0.84058,-0.62871 1.08205,-1.12767 1.25583,-2.59499 0.11833,-0.99913 0.35287,-1.99824 0.52119,-2.22023 0.16833,-0.22199 0.66161,-1.67362 1.09618,-3.22584 1.10388,-3.94289 2.83935,-9.62488 3.42324,-11.20784 0.26983,-0.73153 0.4906,-1.87177 0.4906,-2.53386 0,-0.88345 0.18296,-1.26188 0.68751,-1.42202 0.86376,-0.27415 1.2674,-1.46716 0.71968,-2.12712 -0.55905,-0.67362 -0.1105,-3.22046 0.77911,-4.42372 0.37869,-0.51222 0.76984,-1.63036 0.86922,-2.48476 0.0994,-0.8544 0.54502,-2.74409 0.9903,-4.19929 0.44529,-1.45521 0.99721,-3.33283 1.22648,-4.17248 0.73526,-2.69275 -1.85974,-2.5303 40.41861,-2.5303 42.58533,0 39.68132,-0.19578 39.68132,2.67513 0,0.87927 -0.15029,2.66114 -0.33397,3.95969 -0.18369,1.29856 -0.52608,3.71039 -0.76087,5.35962 -0.23479,1.64924 -0.4534,3.48444 -0.48579,4.07822 -0.0324,0.59379 -0.15638,1.23733 -0.27551,1.43009 -0.11914,0.19277 0.0328,1.3408 0.33775,2.55119 0.4965,1.97102 0.4982,2.24519 0.0164,2.62686 -0.37814,0.29951 -0.59906,1.36961 -0.74346,3.60114 -0.113,1.74625 -0.35842,4.28625 -0.54538,5.64445 -1.5245,11.07471 -1.52301,11.03692 -0.55264,13.95841 0.73944,2.22627 0.47552,2.9509 -1.59817,4.38797 l -1.49992,1.03944 -31.96878,-0.0773 c -17.58283,-0.0425 -34.9976,-0.0907 -38.69948,-0.10701 -3.70188,-0.0163 -7.27375,0.0533 -7.9375,0.1547 -0.66374,0.10141 -1.68305,0.0348 -2.26514,-0.14795 z m 81.15664,-2.11323 c 0.73254,-0.60796 1.25634,-2.78034 0.85238,-3.53515 -0.77581,-1.44961 -1.16554,-1.46217 -43.9883,-1.41788 -22.62004,0.0234 -41.5396,0.14073 -42.04347,0.26074 -2.1315,0.50767 -2.86536,2.09818 -1.77907,3.85583 l 0.73567,1.19034 7.64836,0.095 c 4.20659,0.0523 23.49437,0.0659 42.86172,0.0303 26.36653,-0.0485 35.33882,-0.16886 35.71271,-0.47916 z m 2.467,-29.31402 c 0.29252,-0.92167 -0.48831,-1.81267 -1.38341,-1.5786 -0.39151,0.10239 -0.9076,0.0237 -1.14686,-0.17488 -0.62774,-0.52097 -41.27533,-0.25544 -42.4642,0.2774 -0.98549,0.44168 -0.92446,0.4794 1.94028,1.19907 2.12577,0.53404 14.2557,0.9053 30.76601,0.94165 11.68765,0.0257 12.07572,0.005 12.28818,-0.66464 z m -70.34053,-0.45848 c 0.55967,-1.22835 0.14206,-2.10744 -0.85198,-1.79342 -0.4342,0.13716 -1.2208,0.33117 -1.74799,0.43113 -1.08692,0.20609 -1.68459,1.4303 -0.9313,1.90761 0.26329,0.16683 1.07744,0.30576 1.8092,0.30873 1.07033,0.004 1.40705,-0.16265 1.72207,-0.85405 z m 78.46883,-10.73414 c -0.11986,-0.19394 -0.11577,-1.22184 0.009,-2.28423 l 0.22702,-1.9316 1.39277,-0.13282 c 0.76602,-0.073 1.43235,-0.0481 1.48074,0.0554 0.0484,0.10353 -0.003,1.14231 -0.11457,2.30841 l -0.20254,2.12017 -1.28729,0.10865 c -0.708,0.0597 -1.38535,-0.05 -1.50522,-0.24398 z"
         id="path337"
         inkscape:connector-curvature="0" />
      <path
         style="fill:#d34c05;stroke-width:0.35277778"
         d="m 132.63943,265.16973 c -1.11935,-0.097 -2.03557,-0.33514 -2.03606,-0.52917 -4.9e-4,-0.19403 -0.59278,-0.35278 -1.31621,-0.35278 -1.2626,0 -1.33187,-0.0636 -1.72791,-1.5875 -0.4884,-1.87922 -0.57285,-3.18162 -0.20478,-3.15805 0.36826,0.0236 2.26897,1.07811 3.46668,1.92333 0.98424,0.69458 1.65599,0.70721 43.17246,0.81156 31.23951,0.0785 42.55533,-2.6e-4 43.64871,-0.30391 0.81182,-0.22546 1.88461,-0.86848 2.38397,-1.42892 0.57359,-0.64376 1.25581,-1.01901 1.85261,-1.01901 0.51958,0 1.3121,-0.34517 1.76117,-0.76704 l 0.81649,-0.76706 v 2.01311 c 0,1.1072 -0.23003,2.56362 -0.51117,3.23649 -0.47514,1.13717 -0.62224,1.22339 -2.08727,1.22339 -0.86685,0 -1.62901,0.15495 -1.69369,0.34432 -0.12194,0.35707 -83.598,0.70159 -87.525,0.36124 z m 4.50462,-9.19039 c -0.58208,-0.18278 -2.18064,-0.30578 -3.55235,-0.27333 -2.71934,0.0643 -3.20317,-0.0981 -3.70051,-1.24208 -0.18159,-0.41771 -0.51268,-1.01272 -0.73574,-1.32224 -0.87158,-1.20939 0.18513,-2.94304 3.14184,-5.15451 0.84058,-0.62871 1.08205,-1.12767 1.25583,-2.59499 0.11833,-0.99913 0.35287,-1.99824 0.52119,-2.22023 0.16833,-0.22199 0.66161,-1.67362 1.09618,-3.22584 1.10388,-3.94289 2.83935,-9.62488 3.42324,-11.20784 0.26983,-0.73153 0.4906,-1.87177 0.4906,-2.53386 0,-0.88345 0.18296,-1.26188 0.68751,-1.42202 0.86376,-0.27415 1.2674,-1.46716 0.71968,-2.12712 -0.55905,-0.67362 -0.1105,-3.22046 0.77911,-4.42372 0.37869,-0.51222 0.76984,-1.63036 0.86922,-2.48476 0.0994,-0.8544 0.54502,-2.74409 0.9903,-4.19929 0.44529,-1.45521 0.99721,-3.33283 1.22648,-4.17248 0.73526,-2.69275 -1.85974,-2.5303 40.41861,-2.5303 42.58533,0 39.68132,-0.19578 39.68132,2.67513 0,0.87927 -0.15029,2.66114 -0.33397,3.95969 -0.18369,1.29856 -0.52608,3.71039 -0.76087,5.35962 -0.75434,5.29867 -0.77605,5.64093 -0.53686,8.4645 0.0903,1.06596 0.0384,2.09784 -0.11536,2.29306 -0.15375,0.19522 -0.37502,1.78369 -0.49172,3.52994 -0.11669,1.74625 -0.36513,4.28625 -0.5521,5.64445 -1.5245,11.07471 -1.523,11.03692 -0.55264,13.95841 0.73945,2.22627 0.47553,2.9509 -1.59817,4.38797 l -1.49991,1.03944 -31.96879,-0.0773 c -17.58283,-0.0425 -34.99759,-0.0907 -38.69948,-0.10701 -3.70188,-0.0163 -7.27375,0.0533 -7.9375,0.1547 -0.66374,0.10141 -1.68305,0.0348 -2.26514,-0.14795 z m 81.15664,-2.11323 c 0.73254,-0.60796 1.25634,-2.78034 0.85238,-3.53515 -0.77581,-1.44961 -1.16554,-1.46217 -43.9883,-1.41788 -22.62004,0.0234 -41.5396,0.14073 -42.04347,0.26074 -2.1315,0.50767 -2.86536,2.09818 -1.77907,3.85583 l 0.73567,1.19034 7.64836,0.095 c 4.20659,0.0523 23.49437,0.0659 42.86172,0.0303 26.36653,-0.0485 35.33882,-0.16886 35.71271,-0.47916 z m 2.467,-29.31402 c 0.29252,-0.92167 -0.48831,-1.81267 -1.38341,-1.5786 -0.39151,0.10239 -0.9076,0.0237 -1.14686,-0.17488 -0.62774,-0.52097 -41.27533,-0.25544 -42.4642,0.2774 -0.98549,0.44168 -0.92446,0.4794 1.94028,1.19907 2.12577,0.53404 14.2557,0.9053 30.76601,0.94165 11.68765,0.0257 12.07572,0.005 12.28818,-0.66464 z m -70.34053,-0.45848 c 0.55967,-1.22835 0.14206,-2.10744 -0.85198,-1.79342 -0.4342,0.13716 -1.2208,0.33117 -1.74799,0.43113 -1.08692,0.20609 -1.68459,1.4303 -0.9313,1.90761 0.26329,0.16683 1.07744,0.30576 1.8092,0.30873 1.07033,0.004 1.40705,-0.16265 1.72207,-0.85405 z m 78.61551,-12.65841 v -2.28303 l 1.43748,-0.13709 c 0.79062,-0.0754 1.47707,-0.0524 1.52545,0.0511 0.0484,0.10353 -0.003,1.14231 -0.11456,2.30841 l -0.20254,2.12017 -1.32291,0.11172 -1.32292,0.11171 z"
         id="path335"
         inkscape:connector-curvature="0" />
      <path
         style="fill:#d02a0f;stroke-width:0.35277778"
         d="m 132.63943,265.16973 c -1.11935,-0.097 -2.03557,-0.33514 -2.03606,-0.52917 -4.9e-4,-0.19403 -0.59278,-0.35278 -1.31621,-0.35278 -1.2626,0 -1.33187,-0.0636 -1.72791,-1.5875 -0.4884,-1.87922 -0.57285,-3.18162 -0.20478,-3.15805 0.36826,0.0236 2.26897,1.07811 3.46668,1.92333 0.98424,0.69458 1.65599,0.70721 43.17246,0.81156 31.23951,0.0785 42.55533,-2.6e-4 43.64871,-0.30391 0.81182,-0.22546 1.88461,-0.86848 2.38397,-1.42892 0.57359,-0.64376 1.25581,-1.01901 1.85261,-1.01901 0.51958,0 1.3121,-0.34517 1.76117,-0.76704 l 0.81649,-0.76706 v 2.01311 c 0,1.1072 -0.23003,2.56362 -0.51117,3.23649 -0.47514,1.13717 -0.62224,1.22339 -2.08727,1.22339 -0.86685,0 -1.62901,0.15495 -1.69369,0.34432 -0.12194,0.35707 -83.598,0.70159 -87.525,0.36124 z m 4.50462,-9.19039 c -0.58208,-0.18278 -2.18064,-0.30578 -3.55235,-0.27333 -2.71934,0.0643 -3.20317,-0.0981 -3.70051,-1.24208 -0.18159,-0.41771 -0.51268,-1.01272 -0.73574,-1.32224 -0.50654,-0.70285 -0.19035,-2.03374 0.7746,-3.26048 0.60293,-0.7665 1.00988,-0.93173 2.21253,-0.89834 0.81053,0.0225 1.1562,0.11897 0.76814,0.21435 -1.91538,0.47081 -2.60303,2.15851 -1.56428,3.83925 l 0.73988,1.19715 7.46776,0.007 c 67.2981,0.0674 78.27649,0.0152 78.74645,-0.37485 0.74255,-0.61627 1.25682,-2.77987 0.84407,-3.5511 -0.34118,-0.63751 -2.00122,-1.25202 -4.03665,-1.49429 -0.69214,-0.0824 -0.49205,-0.14427 0.57828,-0.17883 2.94044,-0.095 2.90336,0.008 3.9691,-10.98897 0.51712,-5.33577 1.09412,-10.97139 1.28221,-12.52361 0.3821,-3.15334 1.25904,-11.74062 1.58513,-15.52222 0.35245,-4.08736 0.46922,-4.46321 1.25585,-4.04222 0.78639,0.42086 0.88394,2.09786 0.34407,5.91454 -0.18369,1.29856 -0.52608,3.71039 -0.76087,5.35962 -0.75434,5.29867 -0.77605,5.64093 -0.53686,8.4645 0.0903,1.06596 0.0384,2.09784 -0.11536,2.29306 -0.15375,0.19522 -0.37502,1.78369 -0.49172,3.52994 -0.11669,1.74625 -0.36513,4.28625 -0.5521,5.64445 -1.5245,11.07471 -1.523,11.03692 -0.55264,13.95841 0.73945,2.22627 0.47553,2.9509 -1.59817,4.38797 l -1.49991,1.03944 -31.96879,-0.0773 c -17.58283,-0.0425 -34.99759,-0.0907 -38.69948,-0.10701 -3.70188,-0.0163 -7.27375,0.0533 -7.9375,0.1547 -0.66374,0.10141 -1.68305,0.0348 -2.26514,-0.14795 z m -2.91041,-7.28057 c 0.33955,-0.0887 0.89517,-0.0887 1.23472,0 0.33955,0.0887 0.0617,0.16134 -0.61736,0.16134 -0.6791,0 -0.95691,-0.0726 -0.61736,-0.16134 z m 8.99583,-0.0209 c 3.54101,-0.0575 9.33538,-0.0575 12.87639,0 3.54101,0.0575 0.64382,0.10462 -6.43819,0.10462 -7.08202,0 -9.97921,-0.0471 -6.4382,-0.10462 z m 23.83168,7e-4 c 2.09634,-0.0625 5.43009,-0.0622 7.40833,3.5e-4 1.97824,0.0628 0.26305,0.11389 -3.81154,0.1136 -4.07458,-2.9e-4 -5.69314,-0.0516 -3.59679,-0.11412 z m 12.33476,0.019 c 0.34324,-0.0894 0.81949,-0.0836 1.05833,0.0131 0.23884,0.0966 -0.042,0.16982 -0.62407,0.16263 -0.58209,-0.007 -0.7775,-0.0863 -0.43426,-0.1757 z m 8.65956,-0.0197 c 3.74781,-0.0572 9.78031,-0.0571 13.40556,1.9e-4 3.62525,0.0573 0.55886,0.10408 -6.8142,0.10398 -7.37305,-1.1e-4 -10.33916,-0.047 -6.59136,-0.10417 z m 20.45994,0.0232 c 0.25466,-0.1019 0.55893,-0.0894 0.67616,0.0278 0.11723,0.11722 -0.0911,0.2006 -0.46302,0.18528 -0.41097,-0.0169 -0.49456,-0.10052 -0.21314,-0.21313 z m 20.52726,-37.26586 v -2.28303 l 1.43748,-0.13709 c 0.79062,-0.0754 1.47707,-0.0524 1.52545,0.0511 0.0484,0.10353 -0.003,1.14231 -0.11456,2.30841 l -0.20254,2.12017 -1.32291,0.11172 -1.32292,0.11171 z"
         id="path333"
         inkscape:connector-curvature="0" />
      <path
         style="fill:#cf190a;stroke-width:0.35277778"
         d="m 133.90806,265.28511 c -0.46924,-0.0963 -0.91636,-0.58707 -1.15281,-1.26534 -0.32764,-0.93989 -0.29277,-1.16034 0.22984,-1.4528 0.841,-0.47065 4.05763,-0.56635 4.59525,-0.13672 0.38509,0.30774 78.14377,0.49416 80.92821,0.19402 0.70512,-0.076 1.03833,-0.40011 1.37264,-1.3351 0.51039,-1.42748 0.89365,-1.75101 2.08319,-1.75849 0.47256,-0.003 1.22662,-0.35057 1.67569,-0.77244 l 0.81649,-0.76706 v 2.01311 c 0,1.1072 -0.23003,2.56362 -0.51117,3.23649 -0.47224,1.13023 -0.62805,1.22339 -2.04611,1.22339 -0.84422,0 -1.74529,-0.19843 -2.00237,-0.44097 -0.37395,-0.35278 -0.49977,-0.35278 -0.62912,0 -0.10426,0.28435 -0.99703,0.46066 -2.51355,0.49639 l -2.35185,0.0554 1.76389,0.24193 c 0.97014,0.13306 -16.41299,0.27287 -38.62917,0.31068 -22.21618,0.0378 -40.94868,0.12411 -41.62778,0.19177 -0.6791,0.0677 -1.57967,0.0522 -2.00127,-0.0343 z m -6.09134,-1.64692 c -0.56414,-1.48378 -0.83763,-4.11291 -0.42785,-4.11291 0.76226,0 1.81768,1.55815 1.81768,2.6835 0,2.18078 -0.79377,2.99716 -1.38983,1.42941 z m 9.32733,-7.67402 c -0.58208,-0.18756 -1.93145,-0.31721 -2.99861,-0.28811 -3.21754,0.0877 -3.52548,0.0206 -3.85253,-0.83958 -0.16902,-0.44454 -0.56196,-1.0196 -0.87322,-1.27792 -0.72974,-0.60564 -0.71837,-1.60383 0.0328,-2.87542 1.0065,-1.70387 2.342,-1.82135 1.57528,-0.13858 -0.60467,1.32711 -0.50504,2.06575 0.39237,2.90882 l 0.80244,0.75386 41.61909,0.15964 c 22.89049,0.0878 42.22275,0.0754 42.96057,-0.0276 1.41828,-0.19794 2.10045,-0.92528 2.50597,-2.67194 0.18143,-0.78143 0.0326,-1.15913 -0.7381,-1.87341 -0.79833,-0.73987 -0.87616,-0.95106 -0.44985,-1.22071 0.28352,-0.17933 0.61757,-0.32848 0.74233,-0.33145 0.42321,-0.0101 0.69643,-1.22279 0.87439,-3.88114 0.0976,-1.45786 0.48584,-5.71552 0.86276,-9.46147 0.37693,-3.74594 0.58866,-7.19595 0.47051,-7.66669 -0.11814,-0.47073 -0.0193,-1.37461 0.21973,-2.00863 0.23899,-0.634 0.85595,-5.28024 1.37101,-10.32496 0.53546,-5.24439 1.08267,-9.13916 1.27784,-9.095 0.74639,0.16886 0.52509,4.34346 -0.60368,11.38805 -0.70111,4.37564 -0.75465,5.2268 -0.51027,8.11172 0.0903,1.06596 0.0384,2.09784 -0.11536,2.29306 -0.15375,0.19522 -0.37502,1.78369 -0.49172,3.52994 -0.11669,1.74625 -0.36513,4.28625 -0.5521,5.64445 -1.52142,11.05236 -1.52104,11.04284 -0.5669,13.91547 0.73303,2.20696 0.52293,2.88306 -1.31621,4.23558 l -1.46223,1.07534 -7.25064,-0.008 c -3.98785,-0.005 -7.87688,-0.15364 -8.64228,-0.33113 -0.7654,-0.17749 -1.54295,-0.22919 -1.72788,-0.1149 -0.53746,0.33217 -20.70544,0.54825 -39.21382,0.42015 -2.52236,-0.0175 -6.25298,-0.0286 -8.29028,-0.0248 -2.03729,0.004 -5.62419,7.1e-4 -7.97088,-0.007 -2.3467,-0.008 -4.8867,0.0732 -5.64445,0.17996 -0.75775,0.10674 -1.85397,0.0406 -2.43606,-0.14693 z m 91.89862,-44.52897 v -2.28303 l 1.43748,-0.13709 c 0.79062,-0.0754 1.47707,-0.0524 1.52545,0.0511 0.0484,0.10353 -0.003,1.14231 -0.11456,2.30841 l -0.20254,2.12017 -1.32291,0.11172 -1.32292,0.11171 z"
         id="path331"
         inkscape:connector-curvature="0" />
      <path
         style="fill:#b51e1e;stroke-width:0.35277778"
         d="m 134.23644,265.08371 c -0.19348,-0.24373 -0.45157,-0.99877 -0.57353,-1.67787 l -0.22176,-1.23472 h 1.90987 c 1.05042,0 2.0291,0.11906 2.17483,0.26458 0.14573,0.14552 0.0798,0.26458 -0.14661,0.26458 -0.64529,0 -0.48141,1.68504 0.20579,2.11599 0.53286,0.33416 0.50872,0.35745 -0.17639,0.17014 -0.43657,-0.11935 -0.79375,-0.0813 -0.79375,0.0845 0,0.48666 -1.99377,0.49738 -2.37845,0.0128 z m -6.41972,-1.44552 c -0.4948,-1.30142 -0.83868,-4.11347 -0.50231,-4.10751 0.69345,0.0123 1.01215,0.60227 1.04523,1.93488 0.0193,0.77611 0.15685,1.7683 0.30573,2.20486 0.36994,1.08475 -0.43561,1.05416 -0.84865,-0.0322 z m 92.56523,0.0322 c 0.30366,-1.39995 0.30932,-2.18905 0.0205,-2.85782 -0.3326,-0.77011 0.2812,-1.27386 1.56196,-1.28192 0.47256,-0.003 1.22662,-0.35057 1.67569,-0.77244 l 0.8165,-0.76706 v 2.01311 c 0,1.1072 -0.23003,2.56362 -0.51117,3.23649 -0.47756,1.14297 -0.61714,1.22339 -2.12339,1.22339 -1.48776,0 -1.59893,-0.0613 -1.44005,-0.79375 z m 3.56621,-3.7128 c -0.0917,-0.0917 -0.4156,-0.0712 -0.71978,0.0455 -0.4049,0.15538 -0.49041,0.47417 -0.31921,1.19011 0.39615,1.65672 0.62381,1.73184 0.92052,0.30374 0.15686,-0.75494 0.21016,-1.44765 0.11847,-1.53935 z m -86.98049,-4.01388 c -0.6791,-0.20263 -2.06531,-0.30029 -3.08046,-0.21703 -1.47626,0.12109 -1.77031,0.0605 -1.46894,-0.30261 0.20724,-0.24971 0.27439,-0.61972 0.14922,-0.82225 -0.15369,-0.24868 1.2822,-0.36823 4.42255,-0.36823 4.03128,0 4.59339,0.0684 4.22378,0.51371 -0.23449,0.28254 -0.32393,0.67942 -0.19876,0.88195 0.12517,0.20252 -7e-5,0.36823 -0.27831,0.36823 -0.27824,0 -0.9623,0.0708 -1.52013,0.15732 -0.55783,0.0865 -1.56986,-0.008 -2.24895,-0.21109 z m 16.05138,0.0538 c -1.46095,-0.1461 -1.61242,-0.22101 -0.88194,-0.43616 0.48507,-0.14287 1.23913,-0.26193 1.67569,-0.26458 1.2202,-0.007 0.94075,-0.64743 -0.35277,-0.80795 -0.63059,-0.0783 -0.12259,-0.16769 1.12889,-0.19874 1.73201,-0.043 2.17725,0.0417 1.86436,0.35459 -0.3129,0.3129 -0.27232,0.51251 0.1699,0.83587 0.50039,0.3659 0.41307,0.44344 -0.62964,0.55908 -0.66583,0.0738 -2.00435,0.0549 -2.97449,-0.0421 z m 13.22917,0.0164 c -0.82781,-0.24854 -0.79932,-0.2815 0.46408,-0.53699 0.80785,-0.16337 1.65416,-0.12326 2.11667,0.1003 l 0.77064,0.3725 -0.7649,0.0239 c -0.42069,0.0131 -0.97631,0.0872 -1.23472,0.16449 -0.2584,0.0773 -0.8667,0.0215 -1.35177,-0.12418 z m -22.77528,-0.4491 c 0.31264,-0.17496 1.41806,-0.16484 2.57733,0.0236 l 2.0299,0.32997 -2.57733,-0.0236 c -1.654,-0.0151 -2.38121,-0.13336 -2.0299,-0.32996 z m 18.81065,0.18315 c 0.43882,-0.0844 1.07382,-0.0812 1.41111,0.007 0.33728,0.0883 -0.0218,0.15734 -0.79787,0.15342 -0.77611,-0.004 -1.05207,-0.0762 -0.61324,-0.16054 z m 11.1151,0.005 c 0.34324,-0.0894 0.81949,-0.0836 1.05833,0.0131 0.23884,0.0966 -0.042,0.16981 -0.62408,0.16262 -0.58208,-0.007 -0.7775,-0.0863 -0.43425,-0.17569 z m 44.86425,-0.53958 c 0.66159,-0.94454 0.7131,-1.47274 0.1082,-1.10933 -0.33346,0.20034 -0.32985,0.12774 0.0148,-0.29776 0.79393,-0.98015 1.14703,-2.76517 0.70947,-3.58656 -0.37186,-0.69805 -0.35467,-0.7129 0.25414,-0.21952 0.60142,0.48738 0.62928,0.47345 0.35281,-0.17639 -0.39469,-0.92774 -0.39668,-0.88786 0.49262,-9.86845 0.42218,-4.26349 0.81443,-9.35797 0.87165,-11.32108 0.0572,-1.96311 0.24181,-3.79222 0.41021,-4.06468 0.16839,-0.27247 0.71086,-4.58769 1.20549,-9.58938 0.50967,-5.15378 1.05064,-9.09513 1.24857,-9.0966 0.75929,-0.006 0.53503,4.25088 -0.59579,11.30823 -0.70111,4.37564 -0.75465,5.2268 -0.51027,8.11172 0.0903,1.06596 0.0384,2.09784 -0.11536,2.29306 -0.15375,0.19522 -0.37502,1.78369 -0.49172,3.52994 -0.11669,1.74625 -0.36513,4.28625 -0.5521,5.64445 -1.52142,11.05236 -1.52104,11.04284 -0.5669,13.91547 0.73303,2.20696 0.52293,2.88306 -1.31621,4.23558 -1.72848,1.27114 -2.27999,1.37686 -1.51963,0.29128 z m -70.35916,-0.58234 c 0,-0.16941 0.75406,-0.31436 1.67569,-0.3221 1.22262,-0.0103 1.48493,0.0663 0.97014,0.28324 -0.94517,0.39828 -2.64583,0.42326 -2.64583,0.0389 z m 13.22916,-0.0447 c -0.4732,-0.20335 0.16576,-0.29761 1.94028,-0.28625 1.93157,0.0124 2.36013,0.0897 1.5875,0.28625 -1.43268,0.36455 -2.67941,0.36455 -3.52778,0 z m 8.20209,-0.2552 c 0.63059,-0.0783 1.66246,-0.0783 2.29305,0 0.63059,0.0782 0.11466,0.14228 -1.14652,0.14228 -1.26118,0 -1.77712,-0.064 -1.14653,-0.14228 z m 4.60816,0.0142 c 0.25466,-0.1019 0.55893,-0.0894 0.67616,0.0278 0.11722,0.11722 -0.0911,0.2006 -0.46302,0.18528 -0.41097,-0.0169 -0.49456,-0.10052 -0.21314,-0.21313 z m -44.66608,-0.8879 c -0.23283,-0.23284 -0.40172,-0.82815 -0.37529,-1.32292 l 0.048,-0.89958 0.16215,0.88194 c 0.0892,0.48507 0.32513,1.08038 0.52432,1.32292 0.4621,0.56264 0.19872,0.57558 -0.35922,0.0176 z m 99.76556,-42.02231 v -2.28303 l 1.43748,-0.13709 c 0.79062,-0.0754 1.47707,-0.0524 1.52545,0.0511 0.0484,0.10353 -0.003,1.14231 -0.11456,2.30841 l -0.20254,2.12017 -1.32291,0.11172 -1.32292,0.11171 z"
         id="path329"
         inkscape:connector-curvature="0" />
      <path
         style="fill:#514049;stroke-width:0.35277778"
         d="m 134.7628,265.28887 c 0.24254,-0.0979 0.63941,-0.0979 0.88195,0 0.24253,0.0979 0.0441,0.17794 -0.44097,0.17794 -0.48507,0 -0.68351,-0.0801 -0.44098,-0.17794 z m 94.27987,-53.85367 v -2.28303 l 1.43748,-0.13709 c 0.79062,-0.0754 1.47707,-0.0524 1.52545,0.0511 0.0484,0.10353 -0.003,1.14231 -0.11456,2.30841 l -0.20254,2.12017 -1.32291,0.11172 -1.32292,0.11171 z"
         id="path327"
         inkscape:connector-curvature="0" />
    </g>
  </g>
</svg>
