<?xml version="1.0" encoding="UTF-8" standalone="no"?>
<!-- Created with Inkscape (http://www.inkscape.org/) -->

<svg
   xmlns:dc="http://purl.org/dc/elements/1.1/"
   xmlns:cc="http://creativecommons.org/ns#"
   xmlns:rdf="http://www.w3.org/1999/02/22-rdf-syntax-ns#"
   xmlns:svg="http://www.w3.org/2000/svg"
   xmlns="http://www.w3.org/2000/svg"
   xmlns:sodipodi="http://sodipodi.sourceforge.net/DTD/sodipodi-0.dtd"
   xmlns:inkscape="http://www.inkscape.org/namespaces/inkscape"
   width="417.54562"
   height="276.18295"
   viewBox="0 0 110.47561 73.073408"
   version="1.1"
   id="svg8"
   inkscape:version="0.92.2 5c3e80d, 2017-08-06"
   sodipodi:docname="up.svg">
  <defs
     id="defs2" />
  <sodipodi:namedview
     id="base"
     pagecolor="#ffffff"
     bordercolor="#666666"
     borderopacity="1.0"
     inkscape:pageopacity="0.0"
     inkscape:pageshadow="2"
     inkscape:zoom="1.979899"
     inkscape:cx="112.80789"
     inkscape:cy="109.26567"
     inkscape:document-units="px"
     inkscape:current-layer="layer1"
     showgrid="false"
     units="px"
     fit-margin-top="0"
     fit-margin-left="0"
     fit-margin-right="0"
     fit-margin-bottom="0"
     inkscape:window-width="1500"
     inkscape:window-height="906"
     inkscape:window-x="0"
     inkscape:window-y="1"
     inkscape:window-maximized="1" />
  <metadata
     id="metadata5">
    <rdf:RDF>
      <cc:Work
         rdf:about="">
        <dc:format>image/svg+xml</dc:format>
        <dc:type
           rdf:resource="http://purl.org/dc/dcmitype/StillImage" />
        <dc:title></dc:title>
      </cc:Work>
    </rdf:RDF>
  </metadata>
  <g
     inkscape:label="Layer 1"
     inkscape:groupmode="layer"
     id="layer1"
     transform="translate(-121.41588,-197.57693)">
    <g
       id="g187"
       transform="translate(-0.40090477,-0.13363472)">
      <path
         style="fill:#d4cfcf;stroke-width:0.35277778"
         d="m 121.96418,270.18763 c 0.12258,-0.31945 0.36659,-1.54977 0.54224,-2.73403 0.17566,-1.18426 0.77287,-3.66133 1.32714,-5.50459 l 1.00778,-3.35139 -0.61752,-4.40972 c -0.44847,-3.20254 -0.53186,-4.94089 -0.30461,-6.35 0.2644,-1.63947 12.38293,-40.70555 13.95884,-44.99863 0.82071,-2.23576 2.85481,-3.98558 5.31652,-4.57348 2.77778,-0.66339 75.74815,-0.76697 79.47598,-0.11282 4.77197,0.83738 5.97437,2.70363 6.53597,10.14459 0.21114,2.79733 0.54263,5.125 0.73665,5.17261 0.19403,0.0476 0.78262,0.18116 1.30798,0.29678 l 0.9552,0.21022 -0.20943,3.613 c -0.11518,1.98715 -0.34123,3.78156 -0.50232,3.98758 -0.16109,0.20602 -0.29587,1.07915 -0.29951,1.94028 -0.004,0.86113 -0.084,2.43882 -0.17864,3.50598 -0.0946,1.06715 -0.25886,4.24215 -0.36499,7.05555 -0.27826,7.37591 -2.70503,34.85995 -3.18502,36.07153 -0.23142,0.58412 -3.08439,0.61736 -52.98487,0.61736 -48.81997,0 -52.72371,-0.0432 -52.51739,-0.58082 z"
         id="path233"
         inkscape:connector-curvature="0" />
      <path
         style="fill:#d0aba0;stroke-width:0.35277778"
         d="m 122.03702,269.79831 c 0.12852,-0.53357 0.78482,-2.95451 1.45844,-5.37986 0.67362,-2.42535 1.30554,-4.77307 1.40428,-5.21716 0.0987,-0.44409 -0.0982,-2.64501 -0.43776,-4.89093 -0.3395,-2.24592 -0.52943,-4.81945 -0.42207,-5.71895 0.10737,-0.8995 1.56919,-6.00108 3.2485,-11.33685 1.6793,-5.33576 3.9236,-12.47951 4.98732,-15.875 6.33989,-20.23733 6.04009,-19.42868 7.85691,-21.19304 1.36472,-1.32531 2.03099,-1.68801 3.72629,-2.02848 3.16107,-0.63483 76.17711,-0.57656 78.89402,0.063 4.47432,1.0532 5.93529,3.4782 6.28313,10.42907 0.12219,2.44156 0.34595,4.63764 0.49725,4.88018 0.1513,0.24253 0.83399,0.44097 1.51708,0.44097 h 1.24198 l -0.24732,2.38125 c -0.27047,2.60418 -0.60052,3.26319 -1.63428,3.26319 -0.66194,0 -0.67443,0.27981 -0.45282,10.14236 0.21422,9.53373 0.16272,10.86214 -0.8582,22.13681 -0.59735,6.59694 -1.17638,13.02632 -1.28674,14.2875 -0.11035,1.26118 -0.27872,2.80899 -0.37415,3.43958 l -0.17351,1.14653 h -50.05469 c -47.36951,0 -50.06404,-0.0331 -50.22908,-0.61736 -0.0959,-0.33955 -0.28189,-1.30727 -0.41327,-2.1505 -0.26776,-1.71845 -0.57876,-1.59812 -1.22713,0.47481 -0.61003,1.95032 -0.95971,2.29305 -2.33961,2.29305 -1.12865,0 -1.18468,-0.0563 -0.96457,-0.97014 z"
         id="path231"
         inkscape:connector-curvature="0" />
      <path
         style="fill:#a8a2a1;stroke-width:0.35277778"
         d="m 121.93755,270.15109 c 0.0926,-0.33955 0.84626,-3.0485 1.67487,-6.01988 l 1.50655,-5.40253 -0.64225,-4.53594 c -0.36167,-2.55438 -0.54283,-5.15768 -0.41467,-5.95912 0.20593,-1.2878 2.2816,-8.00006 11.34565,-36.6893 3.24223,-10.26217 3.74043,-11.20651 6.72179,-12.74096 l 1.71664,-0.88352 38.10963,-0.10613 c 27.2064,-0.0758 38.70308,0.008 40.18387,0.29134 5.00972,0.95997 6.9216,4.12621 6.9216,11.46278 0,3.96427 0.20333,4.4034 2.03891,4.4034 h 1.19225 l -0.24732,2.38125 c -0.27952,2.69134 -0.59361,3.26319 -1.79231,3.26319 -1.01039,0 -0.99782,-0.29325 -0.47133,10.99549 0.36509,7.82809 0.35837,7.97672 -1.05816,23.40035 -0.78407,8.53722 -1.42566,15.80003 -1.42576,16.13958 -1.6e-4,0.58505 -2.61043,0.61736 -49.87543,0.61736 h -49.87526 l -0.38124,-0.97014 c -0.20969,-0.53357 -0.48448,-1.56406 -0.61065,-2.28997 -0.28884,-1.66178 -0.65373,-1.45022 -1.19309,0.69178 -0.54882,2.17956 -0.90868,2.56833 -2.37731,2.56833 -0.98636,0 -1.18359,-0.11629 -1.04698,-0.61736 z"
         id="path229"
         inkscape:connector-curvature="0" />
      <path
         style="fill:#be8674;stroke-width:0.35277778"
         d="m 121.81678,270.61503 c 0,-0.0844 0.17218,-0.60032 0.38262,-1.14653 0.21044,-0.54621 1.01784,-3.1996 1.79422,-5.89642 l 1.41161,-4.90332 -0.60731,-4.01749 c -0.35529,-2.35035 -0.52463,-4.85379 -0.40807,-6.03279 0.19744,-1.99718 13.42008,-44.49195 14.46963,-46.50231 0.66726,-1.27812 2.16423,-2.6828 3.77119,-3.5387 1.17953,-0.62823 2.9457,-0.66201 39.51111,-0.75555 25.39221,-0.065 38.84985,0.0249 39.98001,0.26685 2.41237,0.51652 4.59023,2.12655 5.54532,4.0995 0.63898,1.31996 0.85118,2.59778 1.09648,6.60283 0.19265,3.14537 0.45749,5.06089 0.72235,5.22458 0.23,0.14215 0.96307,0.18869 1.62905,0.10343 1.19098,-0.15249 1.20723,-0.13687 0.98966,0.95097 -0.12166,0.60831 -0.2212,1.72117 -0.2212,2.47302 0,1.18086 -0.10809,1.36775 -0.79375,1.37242 -1.82999,0.0125 -1.81002,-0.13742 -1.36907,10.27746 l 0.40853,9.64908 -1.41578,15.34584 c -0.77868,8.4402 -1.41583,15.62364 -1.41591,15.96319 -1.2e-4,0.58505 -2.6121,0.61736 -49.91147,0.61736 h -49.91133 l -0.17936,-0.79375 c -0.0987,-0.43656 -0.30379,-1.5875 -0.45587,-2.55764 -0.15208,-0.97014 -0.42761,-1.7361 -0.61229,-1.70215 -0.18468,0.0339 -0.71017,1.18489 -1.16775,2.55764 -0.81445,2.44335 -0.85735,2.4959 -2.0373,2.4959 -0.66292,0 -1.20532,-0.069 -1.20532,-0.15342 z"
         id="path227"
         inkscape:connector-curvature="0" />
      <path
         style="fill:#8f5e5a;stroke-width:0.35277778"
         d="m 121.81678,270.5992 c 0,-0.0931 0.23023,-0.76777 0.51163,-1.4993 0.28139,-0.73153 1.08927,-3.37466 1.79528,-5.87362 l 1.28365,-4.54357 -0.60836,-4.02447 c -0.35276,-2.33362 -0.5261,-4.87117 -0.41257,-6.03976 0.10912,-1.1231 2.32564,-8.73108 5.00663,-17.18475 2.64596,-8.3432 5.75325,-18.15175 6.9051,-21.79678 1.15185,-3.64504 2.31842,-7.05816 2.59238,-7.58473 0.59788,-1.14914 1.66469,-2.13073 3.56376,-3.27909 l 1.41111,-0.85329 h 39.33473 39.33472 l 1.41574,0.75828 c 1.84837,0.99001 3.31648,2.46876 3.97541,4.00422 0.3197,0.74495 0.64488,3.18244 0.8198,6.1449 0.19063,3.22871 0.43861,5.00208 0.72412,5.17854 0.23882,0.14759 0.9791,0.19859 1.64508,0.11333 1.19098,-0.15249 1.20723,-0.13687 0.98966,0.95097 -0.12166,0.60831 -0.2212,1.72117 -0.2212,2.47302 0,1.19279 -0.10381,1.36702 -0.81452,1.36702 -0.44798,0 -1.10008,0.20881 -1.44912,0.46403 -0.60207,0.44025 -0.61303,0.95107 -0.21385,9.96597 l 0.42075,9.50194 -1.4346,15.45346 c -0.78903,8.4994 -1.39782,15.64315 -1.35288,15.875 0.063,0.32493 -11.33316,0.44204 -49.72288,0.51095 l -49.8046,0.0894 -0.35989,-1.8533 c -0.19795,-1.01931 -0.40775,-2.15764 -0.46624,-2.52962 -0.23665,-1.50506 -0.91291,-0.79631 -1.64533,1.72438 -0.76959,2.64865 -0.7752,2.65611 -1.99764,2.65611 -0.67423,0 -1.22587,-0.0762 -1.22587,-0.16925 z"
         id="path225"
         inkscape:connector-curvature="0" />
      <path
         style="fill:#6f5858;stroke-width:0.35277778"
         d="m 121.81678,270.55718 c 0,-0.11619 0.22835,-0.71151 0.50744,-1.32291 0.27909,-0.61141 1.10018,-3.15495 1.82464,-5.65232 l 1.3172,-4.54066 -0.64054,-4.52388 c -0.3523,-2.48814 -0.54522,-5.20734 -0.42872,-6.04267 0.17947,-1.2868 7.31659,-24.32321 12.82114,-41.38268 1.72592,-5.34889 2.91402,-7.14577 5.29377,-8.0063 0.62685,-0.22667 1.07827,-0.51157 1.00316,-0.6331 -0.0751,-0.12154 0.52865,-0.28588 1.3417,-0.36521 3.00688,-0.29337 77.96059,-0.0387 78.16941,0.26555 0.11793,0.17185 0.7117,0.51341 1.3195,0.75903 0.6078,0.24561 1.51219,0.8716 2.00976,1.39108 1.62357,1.69506 2.09291,3.40588 2.31935,8.45444 0.23218,5.17656 0.35153,5.429 2.4404,5.16156 1.19098,-0.15249 1.20723,-0.13687 0.98966,0.95097 -0.12166,0.60831 -0.2212,1.70088 -0.2212,2.42794 0,1.26945 -0.056,1.33088 -1.41111,1.54757 -1.68145,0.26887 -1.60185,-0.59559 -1.03468,11.23739 0.37574,7.83894 0.37372,7.88333 -1.08698,23.90416 -0.80487,8.82786 -1.54311,16.13036 -1.64052,16.22778 -0.0974,0.0974 -22.45361,0.21736 -49.68045,0.26652 l -49.50334,0.0894 -0.48491,-2.70959 c -0.26669,-1.49028 -0.6536,-2.76583 -0.85978,-2.83456 -0.20619,-0.0687 -0.7567,1.14926 -1.22336,2.70665 -0.83439,2.78459 -0.86752,2.83164 -1.99501,2.83338 -0.63059,9.7e-4 -1.14653,-0.0933 -1.14653,-0.20951 z"
         id="path223"
         inkscape:connector-curvature="0" />
      <path
         style="fill:#b54a1d;stroke-width:0.35277778"
         d="m 127.30966,268.57122 c -0.3359,-3.04062 -0.55425,-3.79999 -1.09264,-3.79999 -0.41934,0 -2.04728,4.13606 -2.04806,5.20347 -1.9e-4,0.24895 -0.43559,0.44097 -0.99987,0.44097 -0.54974,0 -0.99953,-0.16812 -0.99953,-0.37359 0,-0.20548 0.13471,-0.29034 0.29937,-0.18858 0.16465,0.10176 0.50124,-0.72231 0.74798,-1.83126 0.24673,-1.10896 0.91984,-3.66436 1.49579,-5.67867 l 1.04719,-3.66238 -0.60825,-4.0237 c -0.3545,-2.34514 -0.52579,-4.86444 -0.41059,-6.03901 0.10871,-1.10842 2.20652,-8.36531 4.66179,-16.12642 2.45527,-7.76111 5.54343,-17.53429 6.86259,-21.71817 1.31915,-4.18388 2.6409,-8.07326 2.93722,-8.64306 0.72074,-1.38593 1.86887,-2.39081 3.75875,-3.28982 1.56323,-0.74362 1.62047,-0.74468 40.45936,-0.75099 l 38.89391,-0.006 1.34481,0.74433 c 3.44382,1.90609 4.67099,4.27415 4.7271,9.12182 0.017,1.4685 0.13606,3.46375 0.26458,4.43389 l 0.23368,1.76389 1.41111,0.0309 c 0.77611,0.017 1.4508,0.13608 1.49931,0.26458 0.21554,0.57102 0.0612,4.10659 -0.17639,4.03967 -0.14552,-0.041 -0.78052,0.0344 -1.41111,0.16757 -1.10885,0.23414 -1.14653,0.30021 -1.14653,2.01059 0,0.97266 0.16939,5.30257 0.37643,9.62201 0.37574,7.83894 0.37372,7.88333 -1.08698,23.90416 -0.80487,8.82786 -1.54309,16.13036 -1.64047,16.22778 -0.0974,0.0974 -22.44735,0.22026 -49.66659,0.27296 l -49.48954,0.0958 -0.24442,-2.21249 z"
         id="path221"
         inkscape:connector-curvature="0" />
      <path
         style="fill:#c64200;stroke-width:0.35277778"
         d="m 127.30911,268.56629 c -0.33533,-3.03552 -0.5539,-3.79506 -1.09209,-3.79506 -0.41934,0 -2.04728,4.13606 -2.04806,5.20347 -1.9e-4,0.24895 -0.43559,0.44097 -0.99987,0.44097 -0.54974,0 -0.99953,-0.16812 -0.99953,-0.37359 0,-0.20548 0.13471,-0.29034 0.29937,-0.18858 0.16465,0.10176 0.50124,-0.72231 0.74798,-1.83126 0.24673,-1.10896 0.91984,-3.66436 1.49579,-5.67867 l 1.04719,-3.66238 -0.60825,-4.0237 c -0.3545,-2.34514 -0.52579,-4.86444 -0.41059,-6.03901 0.10871,-1.10842 2.20652,-8.36531 4.66179,-16.12642 2.45527,-7.76111 5.54343,-17.53429 6.86259,-21.71817 1.31915,-4.18388 2.6409,-8.07326 2.93722,-8.64306 0.72074,-1.38593 1.86887,-2.39081 3.75875,-3.28982 1.56323,-0.74362 1.62047,-0.74468 40.45936,-0.75099 l 38.89391,-0.006 1.34481,0.74433 c 3.44382,1.90609 4.67099,4.27415 4.7271,9.12182 0.017,1.4685 0.13606,3.46375 0.26458,4.43389 l 0.23368,1.76389 1.41111,0.0309 c 0.77611,0.017 1.4508,0.13608 1.49931,0.26458 0.21554,0.57102 0.0612,4.10659 -0.17639,4.03967 -0.14552,-0.041 -0.77629,0.0336 -1.4017,0.16569 -0.85141,0.17986 -1.19805,0.48296 -1.3796,1.20632 -0.13337,0.53135 -0.0638,5.07376 0.15451,10.09424 0.42965,9.87932 0.56874,7.27636 -1.69589,31.73765 -0.40877,4.41538 -0.65673,8.16791 -0.55102,8.33896 0.1057,0.17104 -0.32213,0.39432 -0.95073,0.49619 -0.62861,0.10186 -22.99011,0.20023 -49.6922,0.21859 l -48.54927,0.0334 -0.24386,-2.20755 z"
         id="path219"
         inkscape:connector-curvature="0" />
      <path
         style="fill:#c23d00;stroke-width:0.35277778"
         d="m 127.30911,268.56629 c -0.33533,-3.03552 -0.5539,-3.79506 -1.09209,-3.79506 -0.41934,0 -2.04728,4.13606 -2.04806,5.20347 -1.9e-4,0.24895 -0.43559,0.44097 -0.99987,0.44097 -0.54974,0 -0.99953,-0.16812 -0.99953,-0.37359 0,-0.20548 0.13471,-0.29034 0.29937,-0.18858 0.16465,0.10176 0.50124,-0.72231 0.74798,-1.83126 0.24673,-1.10896 0.91984,-3.66436 1.49579,-5.67867 l 1.04719,-3.66238 -0.60825,-4.0237 c -0.3545,-2.34514 -0.52579,-4.86444 -0.41059,-6.03901 0.10871,-1.10842 2.20652,-8.36531 4.66179,-16.12642 2.45527,-7.76111 5.54343,-17.53429 6.86259,-21.71817 1.31915,-4.18388 2.6409,-8.07326 2.93722,-8.64306 0.72074,-1.38593 1.86887,-2.39081 3.75875,-3.28982 1.56323,-0.74362 1.62047,-0.74468 40.45936,-0.75099 l 38.89391,-0.006 1.34481,0.74433 c 3.44382,1.90609 4.67099,4.27415 4.7271,9.12182 0.017,1.4685 0.13606,3.46375 0.26458,4.43389 l 0.23368,1.76389 1.41111,0.0309 c 0.77611,0.017 1.4508,0.13608 1.49931,0.26458 0.21554,0.57102 0.0612,4.10659 -0.17639,4.03967 -0.14552,-0.041 -0.77629,0.0336 -1.4017,0.16569 -0.85141,0.17986 -1.19805,0.48296 -1.3796,1.20632 -0.13337,0.53135 -0.0638,5.07376 0.15451,10.09424 0.42965,9.87932 0.56874,7.27636 -1.69589,31.73765 -0.40877,4.41538 -0.65673,8.16791 -0.55102,8.33896 0.1057,0.17104 -0.32213,0.39432 -0.95073,0.49619 -0.62861,0.10186 -22.99011,0.20023 -49.6922,0.21859 l -48.54927,0.0334 -0.24386,-2.20755 z m 86.95864,-22.15192 c 1.28087,-0.6855 0.68437,-1.04592 -1.73099,-1.04592 -4.33012,0 -13.12112,0.45809 -12.90744,0.6726 0.20054,0.2013 5.98955,0.54528 11.37524,0.67591 1.41946,0.0344 2.88789,-0.10173 3.26319,-0.30259 z m 0.0699,-1.64703 c -0.4339,-0.0837 -1.22765,-0.0859 -1.76389,-0.005 -0.53624,0.0811 -0.18124,0.1496 0.7889,0.15225 0.97014,0.002 1.40888,-0.0637 0.97499,-0.14743 z"
         id="path217"
         inkscape:connector-curvature="0" />
      <path
         style="fill:#ae3200;stroke-width:0.35277778"
         d="m 127.30911,268.56629 c -0.33533,-3.03552 -0.5539,-3.79506 -1.09209,-3.79506 -0.41934,0 -2.04728,4.13606 -2.04806,5.20347 -1.9e-4,0.24895 -0.43559,0.44097 -0.99987,0.44097 -0.54974,0 -0.99953,-0.16812 -0.99953,-0.37359 0,-0.20548 0.13471,-0.29034 0.29937,-0.18858 0.16465,0.10176 0.50124,-0.72231 0.74798,-1.83126 0.24673,-1.10896 0.91984,-3.66436 1.49579,-5.67867 l 1.04719,-3.66238 -0.60825,-4.0237 c -0.3545,-2.34514 -0.52579,-4.86444 -0.41059,-6.03901 0.10871,-1.10842 2.20652,-8.36531 4.66179,-16.12642 2.45527,-7.76111 5.54343,-17.53429 6.86259,-21.71817 1.31915,-4.18388 2.6409,-8.07326 2.93722,-8.64306 0.72074,-1.38593 1.86887,-2.39081 3.75875,-3.28982 1.56323,-0.74362 1.62047,-0.74468 40.45936,-0.75099 l 38.89391,-0.006 1.34481,0.74433 c 3.44382,1.90609 4.67099,4.27415 4.7271,9.12182 0.017,1.4685 0.13606,3.46375 0.26458,4.43389 l 0.23368,1.76389 1.41111,0.0309 c 0.77611,0.017 1.4508,0.13608 1.49931,0.26458 0.21554,0.57102 0.0612,4.10659 -0.17639,4.03967 -0.14552,-0.041 -0.77629,0.0336 -1.4017,0.16569 -0.85141,0.17986 -1.19805,0.48296 -1.3796,1.20632 -0.13337,0.53135 -0.0638,5.07376 0.15451,10.09424 0.42965,9.87932 0.56874,7.27636 -1.69589,31.73765 -0.40877,4.41538 -0.65673,8.16791 -0.55102,8.33896 0.1057,0.17104 -0.32213,0.39432 -0.95073,0.49619 -0.62861,0.10186 -22.99011,0.20023 -49.6922,0.21859 l -48.54927,0.0334 -0.24386,-2.20755 z m 87.26285,-21.93253 c 0.22759,-0.27423 0.48825,-0.90923 0.57926,-1.41112 l 0.16547,-0.91252 h -5.06895 c -6.12798,0 -10.69654,0.34272 -10.04831,0.7538 0.28302,0.17947 -0.22293,0.29665 -1.3007,0.30124 -2.86993,0.0122 -7.61353,0.44457 -7.38864,0.67341 0.32544,0.33115 11.03378,0.98134 17.13503,1.0404 4.36896,0.0423 5.59892,-0.0501 5.92684,-0.44521 z m -83.13044,-1.96065 c -0.28344,-0.34105 -0.73172,0.82934 -0.52431,1.36891 0.16545,0.43043 0.26773,0.35571 0.43905,-0.32079 0.12285,-0.48507 0.16121,-0.95672 0.0853,-1.04812 z"
         id="path215"
         inkscape:connector-curvature="0" />
      <path
         style="fill:#7a2c31;stroke-width:0.35277778"
         d="m 127.3091,268.5662 c -0.33532,-3.03543 -0.55389,-3.79497 -1.09208,-3.79497 -0.41934,0 -2.04728,4.13606 -2.04806,5.20347 -1.9e-4,0.24895 -0.43559,0.44097 -0.99987,0.44097 -0.54974,0 -0.99953,-0.16812 -0.99953,-0.37359 0,-0.20548 0.13471,-0.29034 0.29937,-0.18858 0.16465,0.10176 0.50124,-0.72231 0.74798,-1.83126 0.24673,-1.10896 0.91984,-3.66436 1.49579,-5.67867 l 1.04719,-3.66238 -0.60825,-4.0237 c -0.3545,-2.34514 -0.52579,-4.86444 -0.41059,-6.03901 0.10871,-1.10842 2.20652,-8.36531 4.66179,-16.12642 2.45527,-7.76111 5.54343,-17.53429 6.86259,-21.71817 1.31915,-4.18388 2.6409,-8.07326 2.93722,-8.64306 0.72074,-1.38593 1.86887,-2.39081 3.75875,-3.28982 1.56323,-0.74362 1.62047,-0.74468 40.45936,-0.75099 l 38.89391,-0.006 1.34481,0.74433 c 3.44382,1.90609 4.67099,4.27415 4.7271,9.12182 0.017,1.4685 0.13606,3.46375 0.26458,4.43389 l 0.23368,1.76389 1.41111,0.0309 c 0.77611,0.017 1.4508,0.13608 1.49931,0.26458 0.21485,0.56919 0.0615,4.10998 -0.17639,4.07242 -0.93168,-0.1471 -1.86165,0.14601 -2.65089,0.83553 -0.96915,0.84669 -1.09287,1.69454 -2.38087,16.31597 -0.2051,2.32834 -0.60849,6.53521 -0.89642,9.34861 -0.41544,4.05929 -0.46439,7.15442 -0.23714,14.99306 0.16443,5.67186 0.15369,10.05979 -0.0253,10.30525 -0.24135,0.33108 -11.31161,0.4311 -49.09349,0.44358 l -48.78187,0.0161 -0.24385,-2.20746 z m 87.62727,-21.85316 c 0.39562,-0.42464 0.7193,-1.15234 0.7193,-1.61711 v -0.84503 l -13.14097,0.13009 c -8.95846,0.0887 -13.42168,0.26016 -14.02292,0.53876 -0.48507,0.22478 -1.95497,0.50985 -3.26644,0.63351 -1.31148,0.12365 -2.30596,0.35191 -2.20996,0.50725 0.36447,0.58972 12.34745,1.22803 25.65919,1.36682 5.28543,0.0551 5.57587,0.022 6.2618,-0.71429 z m -83.21315,0.15472 c 0.25722,-2.37461 -0.11257,-3.17952 -0.94054,-2.0472 -0.34072,0.46597 -0.35704,0.82678 -0.0662,1.465 0.36842,0.80861 0.94607,1.14264 1.00678,0.5822 z m 85.64076,-0.78596 c 0.20972,-0.60159 0.23203,-1.13346 0.0522,-1.2446 -0.36093,-0.22307 -1.05496,0.92346 -1.05496,1.74278 0,0.92294 0.61362,0.61809 1.00275,-0.49818 z"
         id="path213"
         inkscape:connector-curvature="0" />
      <path
         style="fill:#942600;stroke-width:0.35277778"
         d="m 130.81261,270.41567 c -2.84008,-0.15778 -3.18474,-0.25081 -3.26738,-0.88194 -0.51951,-3.96743 -1.13515,-5.64666 -1.80423,-4.92125 -0.52268,0.56667 -1.87332,5.05861 -1.63633,5.44206 0.13366,0.21626 -0.20972,0.36113 -0.85596,0.36113 -0.59353,0 -1.07915,-0.16812 -1.07915,-0.37359 0,-0.20548 0.13201,-0.29201 0.29336,-0.19229 0.3084,0.1906 0.76209,-1.16762 2.37305,-7.10424 l 0.98047,-3.61317 -0.59282,-3.97155 c -0.32605,-2.18435 -0.59098,-4.62306 -0.58872,-5.41936 0.004,-1.28721 1.81925,-7.54746 5.46309,-18.83691 0.65757,-2.03729 2.88974,-9.10166 4.9604,-15.69861 2.07065,-6.59694 4.09072,-12.52964 4.48904,-13.18376 0.84385,-1.38576 3.55595,-3.22041 4.76063,-3.22041 0.46596,0 0.73752,-0.1556 0.61567,-0.35277 -0.14486,-0.23438 12.78316,-0.35097 38.52015,-0.34738 21.306,0.003 38.52751,0.13896 38.27002,0.30221 -0.31966,0.20266 -0.0538,0.36405 0.8383,0.50881 2.42547,0.3936 4.70094,2.56657 5.46032,5.21434 0.18873,0.65809 0.34315,3.04345 0.34315,5.3008 0,4.61741 0.19082,5.02501 2.26863,4.846 0.68507,-0.059 1.24863,0.008 1.25236,0.14784 0.0631,2.37246 -0.0478,4.12097 -0.25779,4.06428 -0.85819,-0.23168 -2.8443,0.52759 -3.19992,1.2233 -0.34636,0.6776 -0.99452,6.14061 -1.64218,13.84119 -0.0979,1.16416 -0.4976,5.37104 -0.88821,9.34861 -0.62348,6.34889 -0.67573,8.43806 -0.42795,17.10972 0.15524,5.43278 0.19042,9.99393 0.0782,10.13588 -0.22926,0.28998 -89.77341,0.54622 -94.72619,0.27106 z m 84.12376,-23.70263 c 0.39562,-0.42464 0.7193,-1.15234 0.7193,-1.61711 v -0.84503 l -13.14097,0.13009 c -8.95846,0.0887 -13.42168,0.26016 -14.02292,0.53876 -0.48507,0.22478 -1.95497,0.50985 -3.26644,0.63351 -1.31148,0.12365 -2.30596,0.35191 -2.20996,0.50725 0.36447,0.58972 12.34745,1.22803 25.65919,1.36682 5.28543,0.0551 5.57587,0.022 6.2618,-0.71429 z m -83.21315,0.15472 c 0.25722,-2.37461 -0.11257,-3.17952 -0.94054,-2.0472 -0.34072,0.46597 -0.35704,0.82678 -0.0662,1.465 0.36842,0.80861 0.94607,1.14264 1.00678,0.5822 z m 85.64076,-0.78596 c 0.20972,-0.60159 0.23203,-1.13346 0.0522,-1.2446 -0.36093,-0.22307 -1.05496,0.92346 -1.05496,1.74278 0,0.92294 0.61362,0.61809 1.00275,-0.49818 z"
         id="path211"
         inkscape:connector-curvature="0" />
      <path
         style="fill:#a20000;stroke-width:0.35277778"
         d="m 130.94298,270.49075 -3.04463,-0.10132 -0.36319,-1.48618 c -0.19975,-0.8174 -0.49654,-2.12119 -0.65953,-2.8973 -0.17588,-0.83746 -0.49818,-1.41111 -0.79283,-1.41111 -0.55192,0 -2.27033,4.64395 -1.98936,5.37616 0.11366,0.29617 -0.1791,0.44467 -0.87662,0.44467 -0.57599,0 -1.04726,-0.16812 -1.04726,-0.37359 0,-0.20548 0.13201,-0.29201 0.29336,-0.19229 0.3084,0.1906 0.76209,-1.16762 2.37305,-7.10424 l 0.98047,-3.61317 -0.59282,-3.97155 c -0.32605,-2.18435 -0.59098,-4.62306 -0.58872,-5.41936 0.004,-1.28721 1.81925,-7.54746 5.46309,-18.83691 0.65757,-2.03729 2.88974,-9.10166 4.9604,-15.69861 2.07065,-6.59694 4.09072,-12.52964 4.48904,-13.18376 0.83757,-1.37544 3.553,-3.22041 4.73981,-3.22041 0.44708,0 0.81287,-0.15875 0.81287,-0.35277 0,-0.23302 13.00093,-0.35278 38.29722,-0.35278 21.70665,0 38.21481,0.13332 38.107,0.30775 -0.10461,0.16927 0.38232,0.40067 1.08206,0.51422 2.39174,0.38813 4.67111,2.5762 5.42613,5.20879 0.18873,0.65809 0.34315,3.04345 0.34315,5.3008 0,4.61741 0.19082,5.02501 2.26863,4.846 0.68507,-0.059 1.24863,0.008 1.25236,0.14784 0.0971,3.65066 0.0234,3.98045 -0.90732,4.05748 -0.50275,0.0416 -1.43418,0.32244 -2.06983,0.62408 -1.07839,0.51173 -1.18175,0.71839 -1.54441,3.0881 -0.21377,1.39681 -0.47899,3.96841 -0.58936,5.71466 -0.11038,1.74625 -0.59372,7.25058 -1.07409,12.23183 -0.78463,8.1363 -0.85393,10.13529 -0.68181,19.66736 l 0.1916,10.61053 -0.80413,-0.003 c -0.44228,-0.002 -20.96539,0.038 -45.60692,0.0882 -24.64153,0.0502 -46.17286,0.0456 -47.84741,-0.0101 z m 85.00407,-23.01085 c 0.96293,-0.0338 1.25661,-0.23931 1.63787,-1.14605 0.58303,-1.38663 0.32837,-2.14288 -0.63662,-1.89053 -0.39971,0.10453 -0.93239,0.0194 -1.18374,-0.18922 -0.31796,-0.26389 -5.42152,-0.32809 -16.7753,-0.21103 -16.43327,0.16942 -16.59913,0.18052 -23.19249,1.55107 -1.45671,0.30281 -0.18652,0.69345 3.87557,1.19189 5.60539,0.68783 25.57216,1.06976 36.27471,0.69387 z m -83.61106,-1.54351 c 0.12967,-1.57847 -0.27072,-2.14425 -1.2888,-1.82113 -0.93055,0.29535 -1.11479,1.17944 -0.50466,2.42166 0.70844,1.44236 1.65157,1.12656 1.79346,-0.60053 z"
         id="path209"
         inkscape:connector-curvature="0" />
      <path
         style="fill:#1e3844;stroke-width:0.35277778"
         d="m 131.87095,270.37954 c -1.16417,-0.1169 -2.52843,-0.1417 -3.0317,-0.0551 -0.97535,0.16779 -1.06105,-0.0207 -1.96362,-4.31846 -0.17588,-0.83746 -0.49818,-1.41111 -0.79283,-1.41111 -0.55192,0 -2.27033,4.64395 -1.98936,5.37616 0.11366,0.29617 -0.1791,0.44467 -0.87662,0.44467 -0.57599,0 -1.04726,-0.16812 -1.04726,-0.37359 0,-0.20548 0.13201,-0.29201 0.29336,-0.19229 0.3084,0.1906 0.76209,-1.16762 2.37305,-7.10424 l 0.98047,-3.61317 -0.59282,-3.97155 c -0.32605,-2.18435 -0.59098,-4.62306 -0.58872,-5.41936 0.004,-1.28721 1.81925,-7.54746 5.46309,-18.83691 0.65757,-2.03729 2.88974,-9.10166 4.9604,-15.69861 2.07065,-6.59694 4.09072,-12.52964 4.48904,-13.18376 0.83757,-1.37544 3.553,-3.22041 4.73981,-3.22041 0.44708,0 0.81287,-0.15875 0.81287,-0.35277 0,-0.23302 13.00093,-0.35278 38.29722,-0.35278 21.70665,0 38.21481,0.13332 38.107,0.30775 -0.10461,0.16927 0.38232,0.40067 1.08206,0.51422 2.39174,0.38813 4.67111,2.5762 5.42613,5.20879 0.18873,0.65809 0.34315,3.04345 0.34315,5.3008 0,4.61741 0.19082,5.02501 2.26863,4.846 0.68507,-0.059 1.24863,0.008 1.25236,0.14784 0.0971,3.65066 0.0234,3.98045 -0.90732,4.05748 -0.50275,0.0416 -1.43418,0.32244 -2.06983,0.62408 -1.07839,0.51173 -1.18175,0.71839 -1.54441,3.0881 -0.21377,1.39681 -0.47899,3.96841 -0.58936,5.71466 -0.11038,1.74625 -0.59372,7.25058 -1.07409,12.23183 -0.78463,8.1363 -0.85393,10.13529 -0.68181,19.66736 l 0.1916,10.61053 -0.80413,-0.003 c -0.44228,-0.002 -20.96539,0.038 -45.60692,0.0882 -24.64153,0.0502 -45.75528,-0.004 -46.91944,-0.12129 z m 84.0761,-22.89964 c 0.96293,-0.0338 1.25661,-0.23931 1.63787,-1.14605 0.58303,-1.38663 0.32837,-2.14288 -0.63662,-1.89053 -0.39971,0.10453 -0.93239,0.0194 -1.18374,-0.18922 -0.31796,-0.26389 -5.42152,-0.32809 -16.7753,-0.21103 -16.43327,0.16942 -16.59913,0.18052 -23.19249,1.55107 -1.45671,0.30281 -0.18652,0.69345 3.87557,1.19189 5.60539,0.68783 25.57216,1.06976 36.27471,0.69387 z m -83.61106,-1.54351 c 0.12967,-1.57847 -0.27072,-2.14425 -1.2888,-1.82113 -0.93055,0.29535 -1.11479,1.17944 -0.50466,2.42166 0.70844,1.44236 1.65157,1.12656 1.79346,-0.60053 z m 4.98319,-26.98923 c 0.26307,-0.49155 0.22618,-0.77773 -0.13938,-1.08111 -0.39333,-0.32644 -0.57595,-0.26535 -0.87453,0.29254 -0.20756,0.38783 -0.37738,0.87433 -0.37738,1.08111 0,0.63104 1.01074,0.41851 1.39129,-0.29254 z m 80.0327,-0.44773 c 0.0811,-0.70101 -0.0805,-0.99991 -0.63577,-1.17615 -0.93447,-0.29658 -28.83086,0.1496 -31.22294,0.4994 -1.73136,0.25318 -1.74589,0.26546 -0.78766,0.66627 1.39087,0.58177 11.89625,1.03302 23.01266,0.98849 l 9.525,-0.0382 z m 2.36074,0.2343 c 0,-0.38274 -0.27781,-0.7494 -0.61736,-0.81479 -0.46241,-0.089 -0.61736,0.11546 -0.61736,0.81479 0,0.69932 0.15495,0.90383 0.61736,0.81478 0.33955,-0.0654 0.61736,-0.43204 0.61736,-0.81478 z m -71.08083,-0.18368 c 0.40692,-0.76033 0.20619,-1.40382 -0.43791,-1.40382 -0.56873,0 -1.68265,1.08713 -1.68265,1.64217 0,0.75665 1.6897,0.56672 2.12056,-0.23835 z"
         id="path207"
         inkscape:connector-curvature="0" />
      <path
         style="fill:#840200;stroke-width:0.35277778"
         d="m 134.72818,270.50953 c -0.0454,-0.0454 -1.61432,-0.11457 -3.48655,-0.15372 l -3.40405,-0.0712 -0.22688,-1.61017 c -0.4931,-3.49943 -0.68793,-4.07962 -1.36995,-4.07962 -0.49762,0 -0.84608,0.55812 -1.41808,2.27124 -0.41708,1.24919 -0.95346,2.33629 -1.19195,2.41578 -0.29285,0.0976 -0.37222,-0.12433 -0.24451,-0.68374 0.10399,-0.45556 0.3437,-1.54265 0.53268,-2.41578 0.18897,-0.87312 0.73089,-2.90947 1.20427,-4.52521 l 0.86068,-2.9377 -0.68254,-4.64702 c -0.5438,-3.70244 -0.60639,-5.00555 -0.30791,-6.4109 0.34235,-1.61196 1.8609,-6.50928 10.82948,-34.925 1.65346,-5.23875 3.33085,-10.0602 3.72754,-10.71432 0.83349,-1.37439 3.54875,-3.22041 4.73683,-3.22041 0.44708,0 0.81287,-0.15875 0.81287,-0.35277 0,-0.23302 13.00093,-0.35278 38.29722,-0.35278 25.44164,0 38.22402,0.11842 38.07918,0.35278 -0.11992,0.19402 0.11394,0.35277 0.51967,0.35277 2.17143,0 5.06377,2.3944 5.68666,4.70764 0.20529,0.76239 0.52648,3.46788 0.71376,6.01218 0.18728,2.54431 0.42577,5.67994 0.52998,6.96806 0.16483,2.03738 0.10118,2.40451 -0.48924,2.82223 -0.79749,0.56421 -1.35553,3.39085 -1.66184,8.41767 -0.11232,1.84327 -0.59866,7.42697 -1.08074,12.40822 -0.78851,8.14749 -0.85728,10.12218 -0.68492,19.66736 l 0.1916,10.61053 -8.21247,10e-4 c -4.51685,7.1e-4 -24.85478,0.0403 -45.19538,0.0882 -20.34061,0.0479 -37.02004,0.05 -37.06541,0.005 z m 81.21887,-23.02963 c 0.96293,-0.0338 1.25661,-0.23931 1.63787,-1.14605 0.58303,-1.38663 0.32837,-2.14288 -0.63662,-1.89053 -0.39971,0.10453 -0.93239,0.0194 -1.18374,-0.18922 -0.31796,-0.26389 -5.42152,-0.32809 -16.7753,-0.21103 -16.43327,0.16942 -16.59913,0.18052 -23.19249,1.55107 -1.45671,0.30281 -0.18652,0.69345 3.87557,1.19189 5.60539,0.68783 25.57216,1.06976 36.27471,0.69387 z m -83.61106,-1.54351 c 0.12967,-1.57847 -0.27072,-2.14425 -1.2888,-1.82113 -0.93055,0.29535 -1.11479,1.17944 -0.50466,2.42166 0.70844,1.44236 1.65157,1.12656 1.79346,-0.60053 z m 4.98319,-26.98923 c 0.26307,-0.49155 0.22618,-0.77773 -0.13938,-1.08111 -0.39333,-0.32644 -0.57595,-0.26535 -0.87453,0.29254 -0.20756,0.38783 -0.37738,0.87433 -0.37738,1.08111 0,0.63104 1.01074,0.41851 1.39129,-0.29254 z m 80.0327,-0.44773 c 0.0811,-0.70101 -0.0805,-0.99991 -0.63577,-1.17615 -0.93447,-0.29658 -28.83086,0.1496 -31.22294,0.4994 -1.73136,0.25318 -1.74589,0.26546 -0.78766,0.66627 1.39087,0.58177 11.89625,1.03302 23.01266,0.98849 l 9.525,-0.0382 z m 2.36074,0.2343 c 0,-0.38274 -0.27781,-0.7494 -0.61736,-0.81479 -0.46241,-0.089 -0.61736,0.11546 -0.61736,0.81479 0,0.69932 0.15495,0.90383 0.61736,0.81478 0.33955,-0.0654 0.61736,-0.43204 0.61736,-0.81478 z m -71.08083,-0.18368 c 0.40692,-0.76033 0.20619,-1.40382 -0.43791,-1.40382 -0.56873,0 -1.68265,1.08713 -1.68265,1.64217 0,0.75665 1.6897,0.56672 2.12056,-0.23835 z"
         id="path205"
         inkscape:connector-curvature="0" />
      <path
         style="fill:#7e0000;stroke-width:0.35277778"
         d="m 133.11889,270.48283 c -1.34801,-0.0764 -1.77203,-0.20729 -1.41111,-0.43557 0.41359,-0.2616 0.41989,-0.32741 0.0318,-0.33174 -0.33954,-0.004 -0.37913,-0.13713 -0.13252,-0.44637 0.72153,-0.9048 0.69285,-3.0553 -0.10942,-8.20209 -0.99437,-6.3792 -1.5224,-8.07113 -2.56728,-8.22617 -0.53142,-0.0788 -0.87949,0.15714 -1.16902,0.79259 -0.65668,1.44125 0.74937,9.67461 1.96618,11.51333 0.6846,1.0345 0.86159,1.64078 0.68908,2.36033 -0.41039,1.71167 -1.18585,2.90853 -1.88447,2.90853 -0.53671,0 -0.72334,-0.34306 -0.91159,-1.67569 -0.50483,-3.57375 -0.69503,-4.14514 -1.37977,-4.14514 -0.49762,0 -0.84608,0.55812 -1.41808,2.27124 -0.41708,1.24919 -0.95346,2.33629 -1.19195,2.41578 -0.29285,0.0976 -0.37222,-0.12433 -0.24451,-0.68374 0.10399,-0.45556 0.3437,-1.54265 0.53268,-2.41578 0.18897,-0.87312 0.73089,-2.90947 1.20427,-4.52521 l 0.86068,-2.9377 -0.68254,-4.64702 c -0.5438,-3.70244 -0.60639,-5.00555 -0.30791,-6.4109 0.20604,-0.97014 2.05055,-7.08202 4.09891,-13.58195 2.04836,-6.49993 5.07444,-16.1043 6.72464,-21.34305 1.65019,-5.23875 3.37855,-10.11154 3.8408,-10.82842 0.46226,-0.71688 1.59808,-1.74875 2.52406,-2.29306 l 1.68359,-0.98964 14.81667,-0.17638 c 8.14917,-0.097 25.84979,-0.097 39.33472,0 27.09372,0.19491 25.7926,0.0798 28.14015,2.49054 1.46351,1.50293 1.81882,2.8644 2.23967,8.58205 0.18728,2.54431 0.42577,5.67994 0.52998,6.96806 0.16488,2.03806 0.10131,2.40437 -0.48982,2.82223 -0.85566,0.60485 -1.33556,3.28996 -1.85124,10.35795 -0.21234,2.91042 -0.70835,8.46667 -1.10224,12.34722 -0.61323,6.04156 -0.68088,8.32992 -0.47071,15.92277 0.13499,4.87696 0.13308,9.68413 -0.004,10.6826 l -0.24969,1.81541 -4.42774,-0.0459 c -2.72558,-0.0283 -4.23798,-0.16606 -3.93412,-0.35846 0.35517,-0.22488 0.21568,-0.31405 -0.49734,-0.31794 -0.54503,-0.003 -0.89878,0.14374 -0.78612,0.32603 0.11265,0.18228 -0.1051,0.30808 -0.48391,0.27954 -0.37881,-0.0285 -0.611,-0.17768 -0.51597,-0.33143 0.095,-0.15374 -0.51129,-0.26838 -1.34736,-0.25474 -1.17296,0.0191 -1.35899,0.094 -0.81457,0.32798 0.51167,0.21987 0.12389,0.32148 -1.41111,0.36976 -1.16417,0.0366 -2.27542,0.0186 -2.46944,-0.0401 -0.19403,-0.0587 -1.70216,-0.0784 -3.35139,-0.0438 -1.71797,0.036 -3.33761,-0.11237 -3.79237,-0.34747 -0.62034,-0.3207 -0.99117,-0.30469 -1.69746,0.0733 -0.73841,0.39518 -1.03554,0.40132 -1.62442,0.0335 -0.39638,-0.24755 -0.61549,-0.27985 -0.4869,-0.0718 0.1612,0.26082 -0.81325,0.35729 -3.13808,0.31068 -1.85455,-0.0372 -3.3719,-0.20504 -3.3719,-0.37305 0,-0.168 -0.19473,-0.18511 -0.43272,-0.038 -0.238,0.14709 -1.86519,0.28179 -3.61597,0.29933 -2.47237,0.0248 -3.27923,-0.0894 -3.61301,-0.51121 -0.38253,-0.4834 -0.43098,-0.47742 -0.44097,0.0544 -0.0101,0.53735 -0.56178,0.5928 -5.48063,0.55083 -3.00818,-0.0257 -5.27037,-0.17306 -5.02708,-0.32752 0.26134,-0.16593 0.28595,-0.28305 0.0601,-0.28624 -0.2102,-0.003 -0.50145,0.11366 -0.64722,0.25918 -0.41556,0.41483 -10.92371,0.34196 -11.22963,-0.0779 -0.17555,-0.2409 -0.35363,-0.24438 -0.52917,-0.0103 -0.14904,0.19872 -2.15791,0.36563 -4.60002,0.3822 -2.3845,0.0162 -4.13075,-0.10045 -3.88056,-0.25918 0.31409,-0.19928 0.20921,-0.29027 -0.33887,-0.294 -0.43656,-0.003 -0.79375,0.12872 -0.79375,0.29266 0,0.16394 -0.96766,0.283 -2.15035,0.26458 -1.1827,-0.0184 -2.21672,0.0739 -2.29782,0.20512 -0.0811,0.13122 -0.58187,0.11618 -1.11283,-0.0335 -0.85563,-0.2411 -3.71413,-0.2209 -8.02094,0.0567 -0.77611,0.05 -2.27829,0.0418 -3.33817,-0.0183 z m 30.18588,-1.68649 c -0.32727,-0.85284 0.0925,-1.23843 0.83993,-0.77162 0.51969,0.32455 0.8585,0.31456 1.53062,-0.0451 0.68167,-0.36482 1.25558,-0.37781 2.72913,-0.0618 1.1039,0.23675 1.94886,0.26891 2.06899,0.0788 0.11169,-0.17678 0.91722,-0.33039 1.79008,-0.34135 1.15767,-0.0145 1.80556,0.18539 2.39485,0.739 l 0.80784,0.75893 0.20393,-0.77983 c 0.22924,-0.87661 0.49807,-0.96784 1.09447,-0.37145 0.30932,0.30933 0.54399,0.29584 0.96745,-0.0556 0.37487,-0.31112 0.67598,-0.34708 0.9139,-0.10916 0.23792,0.23793 0.81858,0.23106 1.76238,-0.0208 0.99481,-0.26552 1.58463,-0.26564 2.01146,-3.5e-4 0.42153,0.26196 1.26004,0.26639 2.77639,0.0147 1.8343,-0.30451 2.30975,-0.2707 3.05445,0.21725 0.68926,0.45162 0.96067,0.4831 1.24205,0.14407 0.23365,-0.28154 1.32868,-0.42191 3.11916,-0.39984 2.54901,0.0314 2.76768,0.0923 2.87183,0.79969 0.14507,0.98531 0.27877,0.96507 1.2749,-0.193 0.70985,-0.82526 0.90388,-0.89289 1.39419,-0.48597 0.44284,0.36752 0.68191,0.37947 1.07448,0.0537 0.31161,-0.25862 1.62839,-0.40185 3.43958,-0.37414 1.61407,0.0247 3.33155,0.0253 3.81662,0.001 0.48507,-0.024 2.97758,0.0536 5.53892,0.17257 7.26778,0.33751 7.4397,0.13982 6.99805,-8.04661 -0.23532,-4.36178 -0.30796,-4.70996 -1.17363,-5.62533 -0.50753,-0.53667 -1.50791,-1.13332 -2.22306,-1.32589 -0.84412,-0.2273 -14.52538,-0.28025 -38.99875,-0.15093 -36.01349,0.19029 -37.73238,0.22836 -38.45695,0.85191 -1.17109,1.00781 -1.22318,2.21686 -0.35772,8.30346 l 0.80259,5.64444 2.27347,0.23375 c 3.33616,0.343 7.36895,0.43281 7.63181,0.16995 0.12586,-0.12587 0.51363,0.0289 0.86169,0.34387 0.41333,0.37406 0.85156,0.4757 1.26336,0.29301 0.7219,-0.32026 1.25505,-0.40516 4.06874,-0.64791 1.74974,-0.15096 2.07729,-0.0812 2.39366,0.50997 0.45272,0.8459 1.57631,0.9475 1.25631,0.1136 -0.18163,-0.47334 -0.052,-0.52867 0.75601,-0.32274 0.53637,0.13669 1.39768,0.2425 1.91401,0.23515 0.51633,-0.007 1.02729,0.21725 1.13546,0.49912 0.10816,0.28188 0.45676,0.51251 0.77464,0.51251 0.38341,0 0.50551,-0.18886 0.36271,-0.561 z m 52.64228,-21.31644 c 0.96293,-0.0338 1.25661,-0.23931 1.63787,-1.14605 0.58303,-1.38663 0.32837,-2.14288 -0.63662,-1.89053 -0.39971,0.10453 -0.93293,0.0189 -1.18494,-0.19023 -0.3201,-0.26565 -5.53591,-0.32703 -17.30448,-0.20366 -17.00616,0.17827 -16.82081,0.16622 -23.67886,1.53893 -0.45946,0.092 -0.73903,0.26356 -0.62127,0.38132 1.17015,1.17015 25.96104,2.06609 41.7883,1.51022 z m -83.61106,-1.54351 c 0.1291,-1.57146 -0.27041,-2.14435 -1.27339,-1.82602 -0.94871,0.30111 -1.23,1.58503 -0.56846,2.59467 0.81302,1.24083 1.70742,0.86757 1.84185,-0.76865 z m -1.80806,-4.27096 c 0.62614,-0.31236 1.28976,-1.0688 1.6248,-1.85208 1.42682,-3.33565 2.31197,-6.11774 2.71988,-8.54879 0.25423,-1.51513 0.90952,-3.54293 1.53901,-4.7625 0.80377,-1.55721 1.0902,-2.5802 1.07352,-3.83414 -0.0189,-1.42315 0.14456,-1.87756 0.97389,-2.70689 1.14013,-1.14013 1.31449,-2.7073 0.4483,-4.02927 -0.36452,-0.55634 -0.42365,-0.91392 -0.17638,-1.06674 0.20457,-0.12643 0.37194,-0.60382 0.37194,-1.06086 0,-0.45704 0.49571,-2.12911 1.10157,-3.71571 1.00567,-2.63357 1.05287,-2.93342 0.54213,-3.44416 -0.47281,-0.47281 -0.58869,-0.48145 -0.74831,-0.0558 -0.10387,0.27698 -0.95689,2.80548 -1.89559,5.61888 -0.9387,2.8134 -1.87876,5.59153 -2.08903,6.17361 -0.21027,0.58208 -0.7258,2.24896 -1.14563,3.70417 -1.04106,3.6085 -4.84594,15.62128 -5.67487,17.9167 -0.37048,1.02593 -0.6736,1.93874 -0.6736,2.02848 0,0.3275 0.97588,0.15021 2.00837,-0.36487 z m 89.43834,-22.25484 c 0.28037,-0.61534 0.30086,-1.08698 0.0636,-1.46315 -0.83616,-1.32559 -3.11645,-1.45806 -22.71862,-1.31977 -10.38049,0.0732 -21.25486,0.24174 -24.16528,0.37447 -5.79259,0.26416 -5.80098,0.26432 -7.58472,0.14184 -0.6791,-0.0466 -3.94017,-0.0471 -7.24682,-0.001 -3.57085,0.0497 -6.82001,-0.084 -8.00176,-0.3293 -2.42336,-0.50309 -4.63933,-0.0329 -5.2535,1.11468 -0.34111,0.63737 -0.28539,0.85558 0.34975,1.36989 0.65243,0.52831 1.3927,0.59378 5.42682,0.47993 6.30996,-0.17809 7.95218,-0.15174 9.61023,0.15418 0.77611,0.1432 14.39259,0.2887 30.25885,0.32333 l 28.84774,0.063 z"
         id="path203"
         inkscape:connector-curvature="0" />
      <path
         style="fill:#660100;stroke-width:0.35277778"
         d="m 134.30516,270.46963 c -0.36868,-0.0673 -0.79071,-0.23535 -0.93785,-0.37336 -0.14714,-0.13801 -0.73749,-3.46193 -1.31189,-7.38649 -1.11036,-7.58646 -1.92615,-10.28577 -3.10857,-10.28577 -0.95624,0 -1.83892,1.11619 -1.83531,2.32083 0.002,0.5668 0.47433,3.80868 1.05029,7.20417 1.20943,7.12999 1.26712,8.05781 0.5189,8.34493 -0.29941,0.11489 -0.60699,0.14629 -0.68351,0.0698 -0.0765,-0.0765 -0.34749,-1.40582 -0.60215,-2.954 -0.39095,-2.37676 -0.56815,-2.81486 -1.13853,-2.81486 -0.51703,0 -0.85344,0.53287 -1.43387,2.27124 -0.41708,1.24919 -0.95346,2.33629 -1.19195,2.41578 -0.29285,0.0976 -0.37222,-0.12433 -0.24451,-0.68374 0.10399,-0.45556 0.3437,-1.54265 0.53268,-2.41578 0.18897,-0.87312 0.73089,-2.90947 1.20427,-4.52521 l 0.86068,-2.9377 -0.68254,-4.64702 c -0.5438,-3.70244 -0.60639,-5.00555 -0.30791,-6.4109 0.20604,-0.97014 2.05055,-7.08202 4.09891,-13.58195 2.04836,-6.49993 5.07444,-16.1043 6.72464,-21.34305 1.65019,-5.23875 3.39367,-10.1344 3.87441,-10.87921 0.60357,-0.93512 1.49387,-1.64475 2.87684,-2.29305 l 2.00276,-0.93886 38.80556,0.0996 c 23.31204,0.0598 39.30904,0.23467 40.06661,0.43791 1.67296,0.44883 3.76722,2.59177 4.23666,4.33514 0.20697,0.76865 0.52884,3.47926 0.71525,6.02356 0.18641,2.54431 0.42734,5.64606 0.5354,6.89278 0.1727,1.99239 0.10999,2.334 -0.51811,2.82222 -0.96201,0.74779 -1.24246,2.58843 -2.42279,15.9013 -0.81831,9.22962 -0.98524,12.96549 -0.98524,22.04861 0,6.01486 -0.0397,11.45205 -0.0882,12.08264 l -0.0882,1.14652 h -2.27224 c -1.24973,0 -2.36777,-0.15457 -2.48452,-0.34349 -0.11677,-0.18892 -0.37339,-3.64173 -0.57028,-7.67292 -0.38911,-7.96668 -0.51087,-8.426 -2.52559,-9.52694 -1.07789,-0.58901 -3.35022,-0.61815 -39.77238,-0.51003 -38.12291,0.11317 -38.63913,0.12396 -39.38926,0.82363 -1.20988,1.12848 -1.22984,2.51279 -0.1416,9.82142 0.56336,3.78354 0.89398,7.01364 0.73472,7.178 -0.30264,0.31231 -2.94532,0.49548 -4.10159,0.28429 z m 81.77998,-22.9508 c 0.69158,-0.0175 1.10856,-0.31418 1.49681,-1.06497 0.61114,-1.18182 0.382,-2.20687 -0.4704,-2.10434 -0.31566,0.038 -0.85156,-0.0517 -1.19088,-0.19916 -0.33932,-0.1475 -8.43557,-0.19237 -17.99167,-0.0997 -16.04653,0.1556 -17.65648,0.22674 -21.06062,0.93066 -2.02724,0.41919 -3.75254,0.82881 -3.83399,0.91026 -0.2081,0.2081 1.04921,0.46561 4.52128,0.926 4.72678,0.62676 26.10086,1.01578 38.52947,0.70125 z m -83.74915,-1.58244 c 0.13047,-1.58819 -0.27115,-2.14412 -1.31066,-1.81419 -1.04389,0.33132 -1.34005,1.80148 -0.54081,2.68464 0.97082,1.07274 1.72079,0.72014 1.85147,-0.87045 z m 11.00024,0.13762 c 0,-0.19403 -0.23813,-0.35278 -0.52917,-0.35278 -0.29104,0 -0.52917,0.15875 -0.52917,0.35278 0,0.19402 0.23813,0.35277 0.52917,0.35277 0.29104,0 0.52917,-0.15875 0.52917,-0.35277 z m 31.59438,-3.87805 c 32.77534,-0.002 41.77046,-0.0965 42.22078,-0.44348 0.44897,-0.34598 0.76594,-2.26475 1.47148,-8.90764 0.49458,-4.65667 1.05835,-9.81604 1.25282,-11.46528 1.17592,-9.97228 1.53131,-14.85089 1.11238,-15.26991 -0.33037,-0.33043 -9.64783,-0.44744 -40.64842,-0.51045 l -40.21981,-0.0817 -0.5054,1.20958 c -1.69486,4.05637 -11.47221,35.14129 -11.19454,35.59057 0.10987,0.17777 1.24072,0.22297 2.5304,0.10114 1.28247,-0.12115 21.07361,-0.2214 43.98031,-0.22278 z"
         id="path201"
         inkscape:connector-curvature="0" />
      <path
         style="fill:#590100;stroke-width:0.35277778"
         d="m 134.25278,270.47941 c -0.93812,-0.13324 -0.85547,0.19721 -2.03213,-8.12489 -0.50342,-3.56051 -1.23942,-7.33993 -1.63557,-8.39872 -0.63939,-1.70894 -0.82157,-1.91291 -1.62259,-1.81663 -0.49628,0.0596 -1.2269,0.5451 -1.6236,1.07879 l -0.72128,0.97034 1.26699,7.65146 c 0.69685,4.2083 1.18718,7.85946 1.08962,8.11369 -0.40418,1.05329 -1.12473,0.40738 -1.3537,-1.21347 -0.50483,-3.57375 -0.69503,-4.14514 -1.37977,-4.14514 -0.49762,0 -0.84608,0.55812 -1.41808,2.27124 -0.41708,1.24919 -0.95346,2.33629 -1.19195,2.41578 -0.29285,0.0976 -0.37222,-0.12433 -0.24451,-0.68374 0.10399,-0.45556 0.3437,-1.54265 0.53268,-2.41578 0.18897,-0.87312 0.73089,-2.90947 1.20427,-4.52521 l 0.86068,-2.9377 -0.68254,-4.64702 c -0.5438,-3.70244 -0.60639,-5.00555 -0.30791,-6.4109 0.20604,-0.97014 2.05055,-7.08202 4.09891,-13.58195 2.04836,-6.49993 5.07444,-16.1043 6.72464,-21.34305 2.77111,-8.79727 4.17223,-12.17084 5.05485,-12.17084 0.19127,0 0.34688,0.19844 0.3458,0.44097 -0.004,0.92428 -0.80941,3.29974 -1.40521,4.14514 -0.34185,0.48507 -1.65768,4.05695 -2.92407,7.9375 -1.26638,3.88056 -2.54645,7.76993 -2.84459,8.64306 -1.67659,4.91003 -6.31421,20.49421 -6.14818,20.66024 0.10776,0.10777 20.09154,0.18181 44.40839,0.16454 36.64824,-0.026 44.33775,-0.11351 44.94485,-0.51129 0.65605,-0.42986 0.81611,-1.26534 1.53562,-8.01543 0.44177,-4.14456 1.01734,-9.36119 1.27903,-11.5925 0.2617,-2.23132 0.7493,-6.80649 1.08356,-10.16704 0.56912,-5.72185 0.57009,-6.14776 0.0152,-6.70278 -0.5468,-0.54686 -3.55767,-0.59844 -38.94469,-0.66711 -21.09364,-0.0409 -38.80848,-0.16 -39.36631,-0.26459 -0.8898,-0.16682 -0.99034,-0.30918 -0.81942,-1.16029 0.3904,-1.94412 0.94422,-2.88843 2.02039,-3.44494 0.99077,-0.51234 5.0062,-0.57014 40.77624,-0.58693 38.23247,-0.0179 39.70512,0.005 40.44242,0.63961 2.31299,1.98974 2.6532,3.01695 3.12581,9.43777 0.18728,2.54431 0.42642,5.69657 0.53143,7.00503 0.18318,2.2826 0.15569,2.3924 -0.67843,2.70953 -1.05934,0.40276 -1.20545,1.12447 -1.64811,8.14062 -0.17749,2.81341 -0.57827,7.49653 -0.8906,10.40695 -1.21135,11.28759 -1.26666,12.54953 -0.88899,20.28472 0.37984,7.77974 0.14139,11.46688 -0.77938,12.05124 -0.24714,0.15685 -1.19077,0.28761 -2.09696,0.29058 l -1.64762,0.005 -0.19667,-2.20486 c -0.10818,-1.21267 -0.29627,-4.705 -0.41799,-7.76073 -0.24361,-6.11596 -0.44102,-6.68925 -2.73584,-7.94493 -1.0416,-0.56994 -3.67038,-0.60323 -39.74455,-0.50324 l -38.62916,0.10707 -0.97014,1.04502 c -1.2527,1.34939 -1.26123,2.7112 -0.0679,10.83995 0.49623,3.38026 0.82465,6.22353 0.72981,6.31837 -0.20995,0.20996 -2.91723,0.32268 -4.01272,0.16709 z m -1.84802,-23.53569 c 0.18699,-0.4918 0.27423,-1.24586 0.19388,-1.6757 -0.0803,-0.42983 -0.15789,-0.91112 -0.17231,-1.06953 -0.0598,-0.65705 -1.96897,-0.0268 -2.3703,0.78249 -0.35585,0.71757 -0.30645,1.00104 0.32275,1.85208 0.91854,1.24239 1.58192,1.27862 2.02598,0.11066 z m 85.26079,-0.33751 c 0.30781,-0.64549 0.47607,-1.39148 0.37389,-1.65774 -0.10218,-0.26627 -1.02869,-0.70016 -2.05893,-0.9642 -1.51636,-0.38863 -5.00152,-0.43529 -18.29691,-0.24495 -15.38875,0.22031 -16.79605,0.29396 -22.33137,1.16874 -3.24918,0.51348 -5.85054,0.99068 -5.78078,1.06042 0.31428,0.31429 9.02641,1.24573 13.98144,1.49481 3.00743,0.15117 11.78717,0.28424 19.51053,0.29571 l 14.04247,0.0209 0.55966,-1.17363 z m -73.81809,-0.29908 c 0.58948,-0.43103 0.59466,-0.49216 0.0591,-0.69767 -0.73828,-0.2833 -3.74536,0.11023 -3.74536,0.49015 0,0.15536 0.51593,0.3465 1.14652,0.42475 0.63059,0.0783 1.31463,0.16769 1.52008,0.19874 0.20545,0.0311 0.66428,-0.15613 1.01963,-0.41597 z"
         id="path199"
         inkscape:connector-curvature="0" />
      <path
         style="fill:#470400;stroke-width:0.35277778"
         d="m 134.14077,270.33885 c -0.37528,-0.13927 -0.68282,-0.37739 -0.68343,-0.52917 -6.1e-4,-0.15177 -0.46454,-3.45095 -1.03096,-7.33151 -1.04591,-7.1656 -2.07978,-10.75972 -3.0951,-10.75972 -0.88797,0 -1.84753,0.69704 -2.38178,1.73015 -0.47301,0.91471 -0.41078,1.6397 0.70191,8.17815 1.3142,7.72259 1.41819,8.78892 0.85708,8.78892 -0.48972,0 -0.74272,-0.74022 -1.19499,-3.49636 -0.3154,-1.92203 -0.4984,-2.32447 -1.05696,-2.32447 -0.51703,0 -0.85344,0.53287 -1.43387,2.27124 -0.41708,1.24919 -0.95346,2.33629 -1.19195,2.41578 -0.29285,0.0976 -0.37222,-0.12433 -0.24451,-0.68374 0.10399,-0.45556 0.3437,-1.54265 0.53268,-2.41578 0.18897,-0.87312 0.73089,-2.90947 1.20427,-4.52521 l 0.86068,-2.9377 -0.68254,-4.64702 c -0.54405,-3.70418 -0.60645,-5.00489 -0.30751,-6.4109 0.35015,-1.64689 2.68448,-9.16747 10.77378,-34.71019 1.80602,-5.70269 3.53505,-10.6199 3.84228,-10.92713 0.46954,-0.46954 0.45014,-0.22254 -0.12165,1.54907 -6.55404,20.30669 -12.13242,38.51711 -11.90929,38.87748 0.0926,0.14953 20.25924,0.27188 44.81479,0.27188 40.49812,0 44.6991,-0.0526 45.21292,-0.56575 0.42515,-0.42461 0.77276,-2.49275 1.39342,-8.29028 1.10243,-10.29779 1.48434,-13.847 2.12183,-19.71897 0.29491,-2.71639 0.61027,-6.90202 0.70081,-9.3014 0.0951,-2.52035 0.33571,-4.56865 0.56978,-4.85069 0.74738,-0.90055 2.23913,-0.56691 3.61442,0.80839 1.6124,1.6124 1.96009,2.88076 2.38972,8.71768 0.18728,2.54431 0.42647,5.69787 0.53154,7.00792 0.17888,2.2303 0.1407,2.40052 -0.59993,2.67449 -0.97402,0.36032 -1.69525,2.81484 -1.72769,5.87972 -0.0211,1.99641 -0.93044,12.31105 -1.77269,20.10833 -0.24323,2.25166 -0.29538,6.97332 -0.14419,13.05278 0.20473,8.23216 0.1616,9.70365 -0.31778,10.84119 -0.53246,1.26347 -0.61864,1.31341 -2.1517,1.24668 -1.97654,-0.086 -1.88046,0.27694 -2.29058,-8.65278 -0.34524,-7.51712 -0.45089,-7.87449 -2.75058,-9.30421 l -1.34094,-0.83366 -38.62917,0.11756 c -38.15747,0.11613 -38.63851,0.12624 -39.39455,0.8286 -1.55012,1.44005 -1.67949,2.39138 -1.01293,7.44871 0.33766,2.56185 0.82297,5.84854 1.07847,7.30374 0.25795,1.46921 0.33039,2.78524 0.16288,2.95932 -0.37396,0.38861 -2.97334,0.48126 -3.89599,0.13886 z m -1.81121,-22.92429 c 0.6205,-0.62049 0.54171,-3.08116 -0.10662,-3.32995 -1.91357,-0.73431 -3.3094,1.41314 -1.89627,2.91735 0.87753,0.93409 1.37826,1.03723 2.00289,0.4126 z m 85.25517,-0.37326 c 0.29721,-0.42433 0.54039,-1.20941 0.54039,-1.74462 0,-0.76063 -0.21184,-1.03236 -0.97014,-1.24442 -0.53358,-0.14922 -9.22514,-0.25179 -19.31459,-0.22792 -16.12644,0.0381 -18.72833,0.12004 -21.51944,0.67737 -2.6741,0.53397 -5.79084,0.66627 -19.75556,0.83856 -14.41217,0.17782 -16.58055,0.27377 -16.58055,0.73374 0,0.4633 1.71252,0.51478 13.75833,0.41359 8.53064,-0.0717 15.56792,0.0406 18.52083,0.29534 2.61938,0.226 6.27063,0.53399 8.11389,0.68443 1.84327,0.15043 10.84728,0.28969 20.00893,0.30947 l 16.65753,0.036 z m 6.53761,-20.23532 c 0,-0.49813 -0.15352,-0.78706 -0.35278,-0.66392 -0.19402,0.11992 -0.35277,0.61491 -0.35277,1.09998 0,0.49813 0.15352,0.78706 0.35277,0.66391 0.19403,-0.11992 0.35278,-0.6149 0.35278,-1.09997 z"
         id="path197"
         inkscape:connector-curvature="0" />
      <path
         style="fill:#370200;stroke-width:0.35277778"
         d="m 134.39592,270.47805 c -0.72164,-0.14084 -0.73851,-0.21499 -1.8198,-7.99871 -0.77164,-5.55468 -1.91376,-10.45734 -2.60092,-11.1647 -0.1215,-0.12507 -0.77343,-0.34416 -1.44872,-0.48685 -1.04518,-0.22084 -1.16506,-0.18384 -0.80599,0.24882 0.33751,0.40668 0.23147,0.77576 -0.53062,1.84685 l -0.95243,1.3386 1.30351,7.63213 c 0.73667,4.31329 1.17037,7.76527 0.99735,7.9383 -0.46257,0.46256 -0.95891,-0.75926 -1.23578,-3.04204 -0.19548,-1.61165 -0.42602,-2.15493 -1.10256,-2.59822 -0.93636,-0.61353 -1.07964,-1.73382 -0.5265,-4.11685 0.21845,-0.94112 0.1101,-2.71996 -0.36115,-5.92936 -0.54135,-3.68677 -0.59614,-4.89104 -0.27971,-6.14769 0.21643,-0.85953 0.52926,-1.47888 0.69517,-1.37635 0.34508,0.21328 0.86776,-1.53126 0.55306,-1.84596 -0.11373,-0.11373 0.22042,-0.5429 0.74256,-0.95371 l 0.94935,-0.74691 35.80357,-0.10539 c 19.69196,-0.058 35.71615,-0.018 35.60931,0.0889 -0.10684,0.10684 -5.41947,0.35616 -11.80585,0.55406 -6.38638,0.19789 -12.5262,0.50164 -13.64404,0.67499 -1.11784,0.17335 -10.67479,0.36024 -21.23766,0.41532 -17.66156,0.0921 -19.25846,0.052 -19.86756,-0.49928 -0.96931,-0.87721 -1.75395,-0.73882 -2.89515,0.51064 l -1.01387,1.11005 1.00662,1.00662 c 1.09763,1.09762 2.15156,1.28863 2.79991,0.50742 0.35063,-0.42249 3.51974,-0.4799 20.62528,-0.37362 11.11605,0.0691 21.86312,0.28562 23.88238,0.48124 4.5634,0.44208 34.61803,0.86438 37.86218,0.53201 2.27118,-0.23269 2.40935,-0.30028 2.9557,-1.44599 1.20242,-2.5215 0.008,-2.95868 -8.92428,-3.26743 l -6.70277,-0.23168 7.05555,-0.0723 c 4.84465,-0.0496 7.33094,-0.21164 7.93436,-0.51694 0.8379,-0.42393 0.90701,-0.707 1.48455,-6.08022 0.33315,-3.09957 0.92267,-8.41371 1.31004,-11.8092 0.83617,-7.32956 1.67243,-16.12775 1.98722,-20.90751 0.19315,-2.93278 0.33035,-3.50038 0.92277,-3.81743 0.52636,-0.28171 0.90495,-0.23544 1.55416,0.18995 1.04607,0.68541 1.07988,1.53746 0.32965,8.30721 -1.99998,18.04685 -3.43891,32.4066 -3.45666,34.49579 -0.0216,2.53431 0.67875,2.54201 0.97301,0.0107 1.22706,-10.55554 1.68034,-14.76088 1.95116,-18.10231 0.17299,-2.1343 0.72064,-7.41822 1.217,-11.74204 0.49635,-4.32381 0.90247,-8.41163 0.90247,-9.08403 0,-1.38208 0.5746,-1.62458 1.01603,-0.42879 0.16116,0.43656 0.3915,2.92509 0.51188,5.53006 0.12038,2.60497 0.38147,4.89891 0.5802,5.09764 0.19873,0.19873 0.36133,1.36145 0.36133,2.58383 0,1.939 -0.0845,2.2225 -0.66236,2.2225 -1.33822,0 -1.7795,1.4403 -1.99954,6.52639 -0.14501,3.35184 -1.08634,13.95861 -1.42452,16.05139 -0.58342,3.61037 -0.73124,9.81211 -0.40782,17.10972 0.27212,6.14015 0.25744,8.48242 -0.0603,9.62887 -0.49452,1.78404 -1.49023,2.42188 -2.92763,1.87538 -1.13311,-0.43081 -1.21958,-0.94814 -1.5396,-9.2112 -0.22803,-5.88799 -0.56854,-7.43995 -1.73015,-7.8857 -0.30113,-0.11556 -0.69111,-0.58781 -0.86663,-1.04946 -0.30598,-0.80478 -0.49099,-0.84607 -4.49262,-1.00268 -2.29543,-0.0898 -6.79288,-0.13925 -9.99434,-0.10981 -53.27582,0.4899 -61.45468,0.50929 -62.13098,0.14735 -0.99437,-0.53217 -2.44522,0.10178 -3.50098,1.52977 -1.20915,1.63546 -1.24083,3.82534 -0.16099,11.12826 0.52527,3.55239 0.86357,6.55036 0.75177,6.66215 -0.22843,0.22844 -2.62239,0.3424 -3.51857,0.1675 z"
         id="path195"
         inkscape:connector-curvature="0" />
      <path
         style="fill:#270100;stroke-width:0.35277778"
         d="m 134.41394,270.48152 c -0.38357,-0.0749 -0.63532,-0.6438 -0.78055,-1.76389 -0.88002,-6.7876 -1.99293,-13.53904 -2.4408,-14.80707 l -0.53406,-1.51205 2.01732,0.0854 c 1.10952,0.047 2.25544,-0.025 2.54649,-0.15994 1.07633,-0.49909 1.50614,0.23013 1.04426,1.77172 -0.36143,1.20634 -0.27859,2.43734 0.55524,8.25155 1.28479,8.95864 1.32429,8.14427 -0.39769,8.19894 -0.79422,0.0252 -1.69881,-0.004 -2.01021,-0.0647 z m 86.90764,-0.75067 c -0.64516,-0.40822 -1.00764,-3.29585 -1.06539,-8.4874 -0.0546,-4.91076 -0.39194,-6.83731 -1.38156,-7.89071 -0.9998,-1.06424 -0.94567,-1.63429 0.15521,-1.63429 0.57882,0 1.24597,-0.39997 1.85208,-1.11038 1.50703,-1.76634 1.8035,-2.47911 1.81681,-4.36791 0.011,-1.56371 0.58871,-7.33352 1.76504,-17.62865 0.93123,-8.14999 2.49362,-23.38324 2.48756,-24.25348 -0.004,-0.53357 0.13214,-0.97014 0.30191,-0.97014 0.50988,0 0.74966,1.98068 0.74966,6.19251 0,3.07421 0.12121,4.10887 0.52916,4.51682 0.3443,0.3443 0.52917,1.2189 0.52917,2.50346 0,1.89337 -0.0417,1.98263 -1.01646,2.17759 -0.90825,0.18165 -1.07366,0.4351 -1.55382,2.38086 -0.29556,1.19767 -0.45294,2.61924 -0.34975,3.15904 0.19542,1.02231 -0.7072,11.74145 -1.40125,16.64056 -0.4158,2.93503 -0.52768,12.74099 -0.24971,21.88711 0.14158,4.65861 0.0849,5.4232 -0.46423,6.26181 -0.6387,0.97541 -1.7449,1.23033 -2.70443,0.6232 z m 1.99193,-15.97981 c -0.0844,-0.43883 -0.15662,-0.16287 -0.16054,0.61324 -0.004,0.77612 0.0651,1.13516 0.15342,0.79787 0.0883,-0.33729 0.0915,-0.97229 0.007,-1.41111 z m -95.6358,14.98894 c -0.1058,-0.53358 -0.29727,-1.60514 -0.42549,-2.38125 -0.12823,-0.77611 -0.45301,-1.66379 -0.72175,-1.97262 -0.3275,-0.37636 -0.54003,-1.83037 -0.64454,-4.40972 -0.0858,-2.11652 -0.32203,-4.70332 -0.52504,-5.74845 -0.20301,-1.04513 -0.36428,-2.79138 -0.35838,-3.88056 0.009,-1.63842 0.0779,-1.8585 0.39999,-1.27476 0.2141,0.38805 0.80013,1.14789 1.30229,1.68852 0.76249,0.82091 0.84181,1.08265 0.48111,1.5875 -1.30381,1.82487 -1.28393,2.20661 0.64336,12.3523 0.37966,1.99864 0.6903,3.94332 0.6903,4.32153 0,1.03475 -0.62206,0.82601 -0.84185,-0.28249 z m 1.09499,-18.32149 c -1.20765,-0.35214 -1.67924,-0.70677 -2.01375,-1.51433 -0.48395,-1.16838 -0.25124,-3.09124 0.56519,-4.67004 0.42859,-0.82881 0.73085,-0.98234 1.93406,-0.98234 h 1.42607 l -0.73874,1.03747 c -0.40631,0.57061 -1.05212,1.13694 -1.43514,1.2585 -0.95702,0.30375 -0.87722,0.87903 0.12194,0.87903 0.45008,0 1.1634,0.39688 1.58517,0.88195 0.8846,1.01739 0.98558,1.03439 2.5805,0.4345 0.94209,-0.35435 5.81406,-0.39349 23.41462,-0.18814 12.22375,0.14262 30.89609,0.35534 41.49409,0.47272 l 19.26909,0.21342 0.75105,-0.9548 c 0.41307,-0.52513 0.75105,-1.4173 0.75105,-1.98258 0,-0.82055 -0.2259,-1.12277 -1.12029,-1.49884 l -1.12028,-0.47104 1.07834,-0.55762 c 1.25021,-0.64651 1.15425,-0.18637 2.21807,-10.63707 0.39502,-3.88055 0.86644,-7.76993 1.04761,-8.64305 0.18117,-0.87313 0.4221,-3.01625 0.53541,-4.7625 0.1133,-1.74625 0.44021,-5.55625 0.72645,-8.46667 0.28625,-2.91042 0.61238,-6.37348 0.72475,-7.6957 0.22634,-2.6633 0.74586,-3.23303 1.95243,-2.14111 0.81482,0.73741 0.83677,0.13883 -0.41884,11.42431 -0.83214,7.47933 -1.2913,9.86193 -1.94916,10.11437 -0.6731,0.25829 -0.62966,0.82517 0.10437,1.3619 0.64048,0.46833 0.58599,1.55039 -0.65671,13.04179 -0.48452,4.48043 -0.52087,6.8499 -0.14723,9.59963 0.29718,2.18709 0.2954,2.19366 -0.92536,3.41442 l -1.22312,1.22311 -36.66114,0.0958 c -36.24385,0.0947 -40.23722,0.0938 -42.30559,-0.009 -0.58208,-0.029 -3.0675,1.1e-4 -5.52314,0.0646 -2.95755,0.0777 -4.99718,-0.0379 -6.04177,-0.34253 z m 3.8038,-6.81393 c -0.14462,-0.234 7.59855,-0.3369 22.99793,-0.30564 12.76878,0.0259 22.42221,0.17077 21.45207,0.32187 -2.70482,0.42129 -44.18895,0.40615 -44.45,-0.0162 z"
         id="path193"
         inkscape:connector-curvature="0" />
      <path
         style="fill:#170000;stroke-width:0.35277778"
         d="m 134.41301,270.41567 c -0.23397,-0.097 -0.45072,-0.33513 -0.48167,-0.52916 -0.031,-0.19403 -0.24361,-1.94028 -0.47257,-3.88056 -0.22896,-1.94028 -0.71527,-5.27403 -1.08068,-7.40833 -0.36542,-2.13431 -0.70839,-4.19806 -0.76216,-4.58611 -0.086,-0.62061 0.08,-0.69448 1.37838,-0.61357 0.81188,0.0506 1.57531,-0.0685 1.69651,-0.26458 0.12121,-0.19612 0.54112,-0.35658 0.93314,-0.35658 0.62234,0 0.67976,0.14547 0.45259,1.14653 -0.1431,0.63059 -0.22915,1.78153 -0.19123,2.55764 0.0794,1.62578 1.36259,10.64694 1.79387,12.61181 0.1597,0.7276 0.26756,1.33369 0.23967,1.34687 -0.27623,0.13052 -3.18117,0.11067 -3.50585,-0.024 z m 87.05375,-0.84544 c -0.60269,-0.4407 -0.70117,-1.17571 -0.93356,-6.96736 -0.29402,-7.32742 -0.44838,-8.51885 -1.18269,-9.12828 -0.28591,-0.23728 -0.51984,-0.66954 -0.51984,-0.96059 0,-0.45115 0.0856,-0.45814 0.58045,-0.0474 0.49881,0.41397 0.63526,0.39057 0.97014,-0.16642 0.21433,-0.35649 0.82372,-1.14914 1.3542,-1.76145 0.53047,-0.61232 0.96703,-1.2814 0.97014,-1.48685 0.003,-0.20545 0.23871,-0.6817 0.52358,-1.05833 0.47912,-0.63346 0.51879,-0.55919 0.52916,0.9909 0.008,1.15695 -0.12529,1.6484 -0.42975,1.5875 -0.34091,-0.0682 -0.43025,1.33074 -0.39373,6.16525 0.0521,6.89936 0.25984,8.16492 1.0581,6.44656 0.45605,-0.98171 0.48491,-0.82473 0.3987,2.16833 -0.0746,2.5912 -0.22528,3.37282 -0.76497,3.96875 -0.78777,0.86988 -1.23998,0.9221 -2.15993,0.24942 z m -93.85022,-1.53581 c -0.12619,-0.7276 -0.38578,-1.95791 -0.57687,-2.73402 -0.49595,-2.0143 -0.93096,-5.08569 -0.92437,-6.52639 0.004,-0.90151 0.13403,-0.61589 0.48134,1.05833 0.26163,1.26118 0.71002,3.40431 0.99643,4.7625 0.82877,3.93017 0.93029,4.7625 0.58088,4.7625 -0.18039,0 -0.43122,-0.59531 -0.55741,-1.32292 z m -1.89135,-11.93564 c 0.0169,-0.41097 0.10052,-0.49456 0.21313,-0.21314 0.10191,0.25466 0.0894,0.55893 -0.0279,0.67616 -0.11722,0.11722 -0.2006,-0.0911 -0.18528,-0.46302 z m -0.38063,-2.21442 c 0,-0.36098 -0.10632,-1.43201 -0.23627,-2.38007 l -0.23627,-1.72376 1.15981,1.15981 c 1.08061,1.0806 1.12083,1.20287 0.58904,1.79048 -0.31391,0.34688 -0.57076,0.896 -0.57076,1.22027 0,0.32427 -0.15875,0.58958 -0.35277,0.58958 -0.19403,0 -0.35278,-0.29534 -0.35278,-0.65631 z m 6.76038,-3.53076 c -3.4513,-0.21073 -3.69317,-0.27684 -4.51697,-1.23461 -0.48282,-0.56135 -0.82256,-1.34679 -0.76295,-1.76389 0.0895,-0.62596 0.31261,-0.73515 1.33195,-0.65179 0.67347,0.0551 1.57947,0.43363 2.01334,0.84123 0.65705,0.61726 1.04184,0.70013 2.30307,0.49599 1.77168,-0.28676 28.13276,-0.24566 58.66424,0.0915 11.83569,0.13069 22.60187,0.18333 23.92483,0.11697 2.26721,-0.11372 2.44446,-0.18472 3.08549,-1.23601 0.88736,-1.45526 0.86015,-1.85195 -0.19969,-2.91179 l -0.88242,-0.88242 0.85062,-0.77724 c 0.79979,-0.73079 0.9069,-1.31477 1.79264,-9.77307 0.51811,-4.94771 1.06303,-9.12162 1.21092,-9.27537 0.1479,-0.15374 0.48013,-0.025 0.7383,0.28607 0.39194,0.47226 0.36421,1.50812 -0.16804,6.27675 -1.12127,10.0458 -1.22007,12.10798 -0.67635,14.11644 0.66771,2.46647 0.34355,4.23158 -0.98195,5.34691 l -1.05543,0.88809 h -39.96397 c -21.98019,0 -40.66083,0.0605 -41.51252,0.13445 -0.8517,0.0739 -3.1895,0.0343 -5.19511,-0.0882 z m -4.64372,-5.30907 c 0,-0.92855 0.51458,-1.43997 1.44886,-1.43997 1.12584,0 1.22949,0.22442 0.52951,1.14653 -0.48636,0.64069 -1.97837,0.862 -1.97837,0.29344 z m 96.33854,-2.85108 c 0.0106,-0.48507 0.15583,-1.19944 0.32258,-1.5875 0.26031,-0.60577 0.30593,-0.55588 0.32258,0.35278 0.0106,0.58208 -0.13449,1.29646 -0.32258,1.5875 -0.26953,0.41706 -0.33787,0.34232 -0.32258,-0.35278 z m 1.28662,-12.78811 c 0.25353,-1.98646 0.44707,-2.1355 0.44707,-0.34428 0,0.797 -0.14365,1.53786 -0.31922,1.64637 -0.18212,0.11256 -0.23703,-0.44665 -0.12785,-1.30209 z m -3.58351,-10.45256 c -0.12137,-0.19639 -0.0524,-2.07226 0.15337,-4.16861 0.20572,-2.09636 0.60205,-6.1928 0.88075,-9.10322 0.27869,-2.91042 0.51128,-5.33135 0.51686,-5.37986 0.006,-0.0485 0.24828,-0.0882 0.53932,-0.0882 0.73728,0 0.69256,2.3244 -0.18664,9.70139 -0.98055,8.22729 -1.34261,9.9463 -1.90366,9.0385 z m 6.15206,-1.54197 c 0.007,-1.67585 0.36246,-2.73403 0.91828,-2.73403 0.73915,0 0.67461,3.38069 -0.07,3.66643 -0.83708,0.32121 -0.85347,0.3032 -0.84828,-0.9324 z"
         id="path191"
         inkscape:connector-curvature="0" />
      <path
         style="fill:#090000;stroke-width:0.35277778"
         d="m 134.41301,270.41567 c -0.25125,-0.10418 -0.4742,-1.11508 -0.5446,-2.46944 -0.0656,-1.26118 -0.33725,-3.87875 -0.60375,-5.81681 -0.28598,-2.07976 -0.35484,-3.65345 -0.16805,-3.84024 0.18679,-0.18679 0.10893,-0.52404 -0.19001,-0.82297 -0.27857,-0.27857 -0.50649,-0.6539 -0.50649,-0.83407 0,-0.43892 0.95999,-0.41933 1.23473,0.0252 0.39776,0.64359 0.88194,0.36535 0.88194,-0.50681 0,-0.70711 -0.19857,-0.87921 -1.11936,-0.97014 -1.58337,-0.15638 -1.61899,-0.83018 -0.0495,-0.93588 0.72111,-0.0486 1.49326,-0.23948 1.7159,-0.42425 0.2976,-0.24698 0.46455,0.57471 0.63039,3.10264 0.18497,2.81955 1.4889,11.20235 2.0357,13.08734 0.0993,0.34241 -0.28806,0.49132 -1.37665,0.52916 -0.83318,0.029 -1.70631,-0.0267 -1.94028,-0.12373 z m 87.0887,-1.25992 c -0.33959,-0.33958 -0.56082,-1.19383 -0.57101,-2.20486 -0.0396,-3.92348 -0.36427,-11.59204 -0.52084,-12.3004 -0.0939,-0.42467 -0.0113,-0.87061 0.18341,-0.99096 0.19474,-0.12036 0.35407,-0.50752 0.35407,-0.86037 0,-0.63079 1.04542,-1.81295 1.07189,-1.2121 0.007,0.16928 0.0734,1.18091 0.14643,2.24806 0.0731,1.06715 0.24096,3.79879 0.37307,6.07032 0.17968,3.0893 0.37869,4.24497 0.78974,4.58611 0.30225,0.25084 0.6442,0.42352 0.75989,0.38375 0.35273,-0.12127 0.0901,2.78944 -0.34693,3.84442 -0.45852,1.10696 -1.38787,1.28789 -2.23972,0.43603 z m -93.98478,-2.97341 c 0,-0.48507 0.0801,-0.68351 0.17793,-0.44097 0.0979,0.24253 0.0979,0.63941 0,0.88194 -0.0979,0.24254 -0.17793,0.0441 -0.17793,-0.44097 z m 1.79948,-16.47501 c -1.51105,-0.29394 -2.58806,-2.92777 -1.1972,-2.92777 0.36188,0 1.10425,0.35104 1.64969,0.78008 l 0.99171,0.78008 21.01628,0.0987 c 18.217,0.0856 53.50313,0.15148 62.39936,0.11651 2.84474,-0.0112 2.96063,-0.0447 3.96875,-1.14847 1.2343,-1.35138 1.29025,-1.97557 0.29094,-3.24599 l -0.74752,-0.95031 0.74752,-0.79569 c 0.43796,-0.4662 0.76207,-1.29759 0.78268,-2.00768 0.0193,-0.6666 0.15918,-1.60886 0.31076,-2.09393 0.15824,-0.50637 0.19909,0.17739 0.0959,1.60562 -0.13595,1.88228 -0.0399,2.75789 0.39479,3.59846 0.31596,0.61098 0.57446,1.84535 0.57446,2.74303 0,1.33114 -0.18893,1.8211 -1.02443,2.65659 l -1.02443,1.02443 -44.21932,-0.04 c -24.32063,-0.022 -44.57511,-0.10916 -45.00997,-0.19375 z m -1.50241,-5.03202 c 0,-0.42258 1.24571,-1.11856 1.51681,-0.84746 0.10916,0.10916 0.11305,0.42108 0.009,0.69315 -0.21233,0.55333 -1.52545,0.68616 -1.52545,0.15431 z M 219.91686,233.521 c 0.0169,-0.41097 0.10052,-0.49456 0.21313,-0.21314 0.10191,0.25466 0.0894,0.55893 -0.0278,0.67616 -0.11723,0.11722 -0.2006,-0.0911 -0.18529,-0.46302 z m 0.38063,-2.61644 c 0,-0.48507 0.0801,-0.6835 0.17793,-0.44097 0.0979,0.24253 0.0979,0.63941 0,0.88194 -0.0979,0.24254 -0.17793,0.0441 -0.17793,-0.44097 z m 0.35277,-3.52778 c 0,-0.48507 0.0801,-0.6835 0.17794,-0.44097 0.0979,0.24254 0.0979,0.63941 0,0.88195 -0.0979,0.24253 -0.17794,0.0441 -0.17794,-0.44098 z"
         id="path189"
         inkscape:connector-curvature="0" />
    </g>
  </g>
</svg>
