<?xml version="1.0" encoding="UTF-8" standalone="no"?>
<svg
   xmlns:dc="http://purl.org/dc/elements/1.1/"
   xmlns:cc="http://creativecommons.org/ns#"
   xmlns:rdf="http://www.w3.org/1999/02/22-rdf-syntax-ns#"
   xmlns:svg="http://www.w3.org/2000/svg"
   xmlns="http://www.w3.org/2000/svg"
   xmlns:sodipodi="http://sodipodi.sourceforge.net/DTD/sodipodi-0.dtd"
   xmlns:inkscape="http://www.inkscape.org/namespaces/inkscape"
   viewBox="0 0 32 32"
   version="1.1"
   id="svg22"
   sodipodi:docname="delete.svg"
   width="32"
   height="32"
   inkscape:version="0.92.2 (5c3e80d, 2017-08-06)">
  <metadata
     id="metadata26">
    <rdf:RDF>
      <cc:Work
         rdf:about="">
        <dc:format>image/svg+xml</dc:format>
        <dc:type
           rdf:resource="http://purl.org/dc/dcmitype/StillImage" />
        <dc:title></dc:title>
      </cc:Work>
    </rdf:RDF>
  </metadata>
  <sodipodi:namedview
     pagecolor="#ffffff"
     bordercolor="#666666"
     borderopacity="1"
     objecttolerance="10"
     gridtolerance="10"
     guidetolerance="10"
     inkscape:pageopacity="0"
     inkscape:pageshadow="2"
     inkscape:window-width="1719"
     inkscape:window-height="1390"
     id="namedview24"
     showgrid="false"
     inkscape:zoom="19.4375"
     inkscape:cx="12.474668"
     inkscape:cy="22.216387"
     inkscape:window-x="795"
     inkscape:window-y="350"
     inkscape:window-maximized="0"
     inkscape:current-layer="svg22" />
  <defs
     id="defs12">
    <radialGradient
       id="b"
       cx="15.891"
       cy="15.163"
       r="27.545"
       gradientTransform="matrix(0.99698,0,0,0.99698,101.39,10.123)"
       gradientUnits="userSpaceOnUse">
      <stop
         stop-color="#fff"
         offset="0"
         id="stop2" />
      <stop
         stop-color="#00f038"
         stop-opacity="0"
         offset="1"
         id="stop4" />
    </radialGradient>
    <radialGradient
       id="a"
       cx="16.028"
       cy="16.847"
       r="27.545"
       gradientTransform="matrix(0.9161,0.94247,-0.7149,0.6949,114.73,0.10609)"
       gradientUnits="userSpaceOnUse">
      <stop
         stop-color="#ff9b9b"
         offset="0"
         id="stop7" />
      <stop
         stop-color="#f00000"
         offset="1"
         id="stop9" />
    </radialGradient>
  </defs>
  <g
     id="g20"
     style="stroke-linecap:round;stroke-linejoin:round"
     transform="matrix(0.55640562,0,0,0.55640585,-20.166365,-2.361393)">
    <path
       d="m 92.504,33 a 27.504,27.504 0 1 1 -55.008,0 27.504,27.504 0 1 1 55.008,0 z"
       id="path14"
       inkscape:connector-curvature="0"
       style="fill:url(#b);stroke-width:5" />
    <path
       d="m 92.504,33 a 27.504,27.504 0 1 1 -55.008,0 27.504,27.504 0 1 1 55.008,0 z"
       id="path16"
       inkscape:connector-curvature="0"
       style="fill:url(#a);stroke:#be0000;stroke-width:2.50399995" />
    <path
       d="m 69.094,19.812 c -1.798,1.5509 -3.1446,4.3692 -4.5312,5.8438 -2.6315,-2.177 -3.8188,-6.2358 -6.6562,-7.375 -3.4406,0.91828 -8.9042,4.1354 -4.875,7.625 2.0576,3.0423 6.1945,5.7464 7.1562,8.9062 -1.4673,3.7894 -4.291,6.615 -7.0312,9.375 1.3399,4.6754 7.7548,0.52478 10.344,-1.75 2.0648,-4.6338 3.5683,0.89824 5.4994,2.891 1.5405,6.2227 9.8042,4.4034 10.522,-0.73944 -2.8396,-4.5489 -6.7818,-8.9244 -9.521,-13.402 1.0851,-4.6542 5.6334,-7.7704 6.6875,-12.281 -1.7893,-3.1223 -5.2813,0.35232 -7.5938,0.90625 z"
       id="path18"
       inkscape:connector-curvature="0"
       style="fill:#ffffff" />
  </g>
</svg>
