<?xml version="1.0" encoding="UTF-8" standalone="no"?>
<svg
   xmlns:dc="http://purl.org/dc/elements/1.1/"
   xmlns:cc="http://creativecommons.org/ns#"
   xmlns:rdf="http://www.w3.org/1999/02/22-rdf-syntax-ns#"
   xmlns:svg="http://www.w3.org/2000/svg"
   xmlns="http://www.w3.org/2000/svg"
   viewBox="0 0 125 50"
   height="50"
   width="125"
   id="svg2"
   version="1.1">
  <metadata
     id="metadata8">
    <rdf:RDF>
      <cc:Work
         rdf:about="">
        <dc:format>image/svg+xml</dc:format>
        <dc:type
           rdf:resource="http://purl.org/dc/dcmitype/StillImage" />
        <dc:title></dc:title>
      </cc:Work>
    </rdf:RDF>
  </metadata>
  <defs
     id="defs6" />
  <path
     id="path3715"
     d="m 87.6431,46.99968 c 1.49088,-3.68393 5.77011,-10.42928 9.24626,-14.57489 l 2.9831,-3.55759 -7.80339,0.27585 -7.80341,0.27587 -3.22844,6.83796 C 75.33081,48.34327 73.99805,47.82801 65.92743,30.41522 62.68568,23.42098 59.4859,17.6984 58.81681,17.6984 c -0.66909,0 -3.873648,5.7314 -7.121246,12.73643 C 43.140766,48.88749 42.235043,48.84074 33.3113,29.48599 27.099725,16.01369 26.447934,15.62853 22.883936,23.32425 l -2.605419,5.62584 H 10.139253 0 v -4.18288 -4.18287 l 8.713648,-0.27092 8.713648,-0.27091 3.177695,-6.96905 c 5.588658,-12.25653 6.739237,-11.78238 15.204799,6.26581 3.205078,6.83306 6.351836,12.42375 6.992808,12.42375 0.640971,0 3.820244,-5.72797 7.065045,-12.72881 8.561827,-18.47257 9.511837,-18.4224 18.446407,0.97414 6.18634,13.43027 6.87827,13.83616 10.44766,6.12882 l 2.60542,-5.62584 h 9.21743 9.21743 L 96.64293,16.79516 C 94.90544,14.75128 91.87822,10.21544 89.91577,6.71552 l -3.56809,-6.36347 2.7802,-0.31137 c 2.31654,-0.25943 3.68082,0.63063 8.1805,5.33697 5.72257,5.98542 16.10569,12.97359 23.20712,15.61916 6.94524,2.58738 5.97989,4.83763 -3.99262,9.30685 -6.52593,2.92462 -9.99858,5.32596 -16.6104,11.4861 -9.02895,8.41213 -14.50664,10.73811 -12.26938,5.20992 z"
     style="fill:#ffffff;stroke-width:0.97140861;fill-opacity:1" />
</svg>
